<svg width="64" height="65" viewBox="0 0 64 65" fill="none" xmlns="http://www.w3.org/2000/svg">
<path fill-rule="evenodd" clip-rule="evenodd" d="M55.0124 0.591839C55.3717 0.737591 55.6745 1.02079 55.8346 1.40751L63.0221 18.7603C63.3405 19.5257 62.9772 20.4031 62.2116 20.72C61.446 21.0372 60.569 20.6736 60.2507 19.9082L54.4616 5.93022L46.5495 25.3963C45.2721 28.5513 42.3737 30.7347 38.9967 31.0716L18.9069 33.6575C16.7057 33.9388 14.8288 35.3851 13.985 37.4637L3.29558 63.8399C2.98308 64.6077 2.10808 64.9778 1.3405 64.6665C0.572923 64.3553 0.203782 63.4808 0.514329 62.7129L11.2057 36.336C12.4538 33.2608 15.2428 31.1014 18.526 30.6817L38.6354 28.0933L38.6823 28.0879C40.9499 27.868 42.905 26.4058 43.7702 24.2688L51.7057 4.74125L37.6706 10.555C36.905 10.8721 36.028 10.5086 35.7096 9.74321C35.5339 9.31938 35.5671 8.86088 35.7624 8.48246C35.9186 8.17778 36.1803 7.92485 36.5221 7.78349L53.8307 0.614056C53.8464 0.606732 53.8581 0.602337 53.8757 0.595501C54.2253 0.452679 54.6354 0.438274 55.0124 0.591839Z" fill="#82BEFF"/>
</svg>
