<svg width="352" height="350" viewBox="0 0 352 350" fill="none" xmlns="http://www.w3.org/2000/svg">
<rect x="244" width="35" height="350" rx="17.5" fill="#001A3A"/>
<rect x="160" y="143" width="35" height="207" rx="17.5" fill="#001A3A"/>
<rect x="76" y="232" width="35" height="118" rx="17.5" fill="#001A3A"/>
<path fill-rule="evenodd" clip-rule="evenodd" d="M166.401 35.0089C172.692 28.7307 182.895 28.7834 189.121 35.1264L220 66.5847V109.585L188.898 77.8994C182.672 71.5564 172.469 71.5037 166.178 77.782L26.6467 217.022C20.7924 222.864 11.3221 222.892 5.4338 217.084C-0.520852 211.21 -0.548831 201.61 5.37147 195.702L166.401 35.0089ZM244 134.035V91.035L279 126.692V169.692L244 134.035ZM303 194.142L325.242 216.802C331.036 222.705 340.507 222.83 346.455 217.083C352.471 211.271 352.598 201.671 346.738 195.701L303 151.142V194.142Z" fill="#001A3A"/>
</svg>
