<svg width="32" height="32" viewBox="0 0 32 32" fill="none" xmlns="http://www.w3.org/2000/svg">
<path fill-rule="evenodd" clip-rule="evenodd" d="M15.6148 24.9467L8.81476 18.1467C7.62919 16.9608 7.62949 15.0383 8.81543 13.8527C10.0014 12.6672 11.9239 12.6675 13.1094 13.8534L17.4361 18.1787L25.5374 7.37873C26.1884 6.51105 27.2528 6.05655 28.3297 6.18644C29.4066 6.31633 30.3324 7.01088 30.7583 8.00844C31.1843 9.00601 31.0457 10.1551 30.3948 11.0227L20.1921 24.6227C19.6641 25.3276 18.856 25.7684 17.9775 25.8306C17.099 25.8928 16.2368 25.5702 15.6148 24.9467Z" stroke="#0A803C" stroke-width="1.5" stroke-linejoin="round"/>
<path d="M15.6055 11.3827L18.6095 7.37474C19.3657 6.36807 20.6641 5.9317 21.8748 6.27741" stroke="#0A803C" stroke-width="1.5" stroke-linecap="round" stroke-linejoin="round"/>
<path d="M11.8541 25.6615C10.7499 26.0538 9.51847 25.7757 8.69012 24.9468L1.89012 18.1468C0.88597 17.1453 0.709018 15.582 1.4639 14.3813C2.21877 13.1806 3.70433 12.6626 5.04212 13.1335" stroke="#0A803C" stroke-width="1.5" stroke-linecap="round" stroke-linejoin="round"/>
</svg>
