<svg width="24" height="25" viewBox="0 0 24 25" fill="none" xmlns="http://www.w3.org/2000/svg">
<path d="M19.5 12.88V2.25C19.5 1.42157 18.8284 0.75 18 0.75H6C5.17157 0.75 4.5 1.42157 4.5 2.25V12.88" stroke="#0049A0" stroke-width="1.5" stroke-linecap="round" stroke-linejoin="round"/>
<path fill-rule="evenodd" clip-rule="evenodd" d="M21.284 11.4651C21.5094 11.2864 21.817 11.2523 22.076 11.3773C22.3351 11.5023 22.4997 11.7645 22.5 12.0521V21.7521C22.5 22.5805 21.8284 23.2521 21 23.2521H3C2.17157 23.2521 1.5 22.5805 1.5 21.7521V12.0521C1.50025 11.7645 1.66495 11.5023 1.92395 11.3773C2.18296 11.2523 2.49065 11.2864 2.716 11.4651L10.147 17.3591C11.2347 18.2133 12.7653 18.2133 13.853 17.3591L21.284 11.4651Z" stroke="#0049A0" stroke-width="1.5" stroke-linecap="round" stroke-linejoin="round"/>
<path d="M13.5 12.4939C11.6521 13.1473 9.59377 12.5294 8.41124 10.9662C7.22872 9.40308 7.19398 7.25432 8.32537 5.65378C9.45676 4.05324 11.494 3.36911 13.3621 3.9624C15.2302 4.55568 16.4994 6.28989 16.5 8.24994" stroke="#0049A0" stroke-width="1.5" stroke-linecap="round" stroke-linejoin="round"/>
<path fill-rule="evenodd" clip-rule="evenodd" d="M12 9.75C12.8284 9.75 13.5 9.07843 13.5 8.25C13.5 7.42157 12.8284 6.75 12 6.75C11.1716 6.75 10.5 7.42157 10.5 8.25C10.5 9.07843 11.1716 9.75 12 9.75Z" stroke="#0049A0" stroke-width="1.5" stroke-linecap="round" stroke-linejoin="round"/>
<path d="M13.5 8.25C13.5 9.07843 14.1716 9.75 15 9.75C15.8284 9.75 16.5 9.07843 16.5 8.25" stroke="#0049A0" stroke-width="1.5" stroke-linecap="round" stroke-linejoin="round"/>
</svg>
