<svg width="424" height="254" viewBox="0 0 424 254" fill="none" xmlns="http://www.w3.org/2000/svg">
<path opacity="0.2" d="M110.527 127.336C106.897 128.43 103.499 131.079 102.592 134.754C101.555 138.977 103.947 143.234 104.292 147.571C105.409 161.779 85.1481 171.803 88.0384 185.76C89.1861 191.309 93.8248 195.392 98.3955 198.764C105.718 204.149 113.842 208.907 122.839 210.25C136.494 212.291 150.762 206.292 164.035 210.083C174.741 213.142 182.933 222.106 193.565 225.414C201.658 227.932 210.377 226.94 218.785 225.92C223.318 225.371 228.068 224.738 231.726 222.024C238.527 216.972 238.955 206.996 243.508 199.847C250.542 188.822 265.962 186.656 278.893 188.799C291.823 190.942 304.379 196.217 317.479 195.787C320.278 195.694 323.146 195.315 325.589 193.944C328.558 192.279 330.565 189.345 332.339 186.441C343.425 168.227 349.511 147.422 349.984 126.117C350.06 122.456 349.93 118.637 348.204 115.406C346.022 111.318 341.661 108.873 337.32 107.228C326.895 103.27 315.379 102.623 305.164 98.1588C295.311 93.8533 287.331 86.3026 278.751 79.8317C261.652 66.9613 241.833 58.1558 220.805 54.0867C215.877 53.1369 210.762 52.4584 205.866 53.5552C200.224 54.8189 195.361 58.3271 190.989 62.1039C179.357 72.1509 170.034 84.547 159.314 95.558C151.919 103.151 143.867 110.079 135.25 116.26C131.283 119.112 127.067 122.499 122.646 124.608C118.6 126.536 114.805 126.049 110.527 127.336Z" fill="#0049A0"/>
<path d="M162.376 38.0436C162.376 38.0436 151.424 52.5543 159.259 69.4679C167.094 86.3815 145.604 113.557 145.604 113.557" stroke="#535461" stroke-width="2" stroke-miterlimit="10"/>
<path d="M167.287 32.6131C166.417 36.3475 162.254 38.5723 162.254 38.5723C162.254 38.5723 159.505 34.7418 160.375 31.0074C161.245 27.273 163.492 24.6044 165.408 25.0482C167.323 25.4921 168.157 28.8787 167.287 32.6131Z" fill="#8ED16F"/>
<path d="M164.493 31.9624C164.766 30.79 164.631 29.7567 164.19 29.6544C163.75 29.5522 163.171 30.4197 162.898 31.5921C162.624 32.7645 162.759 33.7979 163.2 33.9001C163.64 34.0024 164.219 33.1349 164.493 31.9624Z" fill="#8ED16F"/>
<path opacity="0.3" d="M164.493 31.9624C164.766 30.79 164.631 29.7567 164.19 29.6544C163.75 29.5522 163.171 30.4197 162.898 31.5921C162.624 32.7645 162.759 33.7979 163.2 33.9001C163.64 34.0024 164.219 33.1349 164.493 31.9624Z" fill="black"/>
<path d="M165.395 49.2044C161.779 50.5048 157.645 48.2263 157.645 48.2263C157.645 48.2263 159.373 43.8417 162.992 42.5441C166.61 41.2466 170.076 41.696 170.742 43.5222C171.408 45.3485 169.01 47.904 165.395 49.2044Z" fill="#8ED16F"/>
<path d="M164.378 46.3254C165.512 45.9161 166.307 45.2405 166.153 44.8164C166 44.3922 164.955 44.3802 163.821 44.7895C162.687 45.1987 161.892 45.8743 162.046 46.2985C162.2 46.7226 163.244 46.7347 164.378 46.3254Z" fill="#8ED16F"/>
<path opacity="0.3" d="M164.378 46.3254C165.512 45.9161 166.307 45.2405 166.153 44.8164C166 44.3922 164.955 44.3802 163.821 44.7895C162.687 45.1987 161.892 45.8743 162.046 46.2985C162.2 46.7226 163.244 46.7347 164.378 46.3254Z" fill="black"/>
<path d="M164.555 62.4262C160.939 63.7266 156.805 61.4481 156.805 61.4481C156.805 61.4481 158.533 57.0635 162.152 55.7659C165.77 54.4684 169.236 54.9178 169.902 56.744C170.568 58.5703 168.171 61.1286 164.555 62.4262Z" fill="#8ED16F"/>
<path d="M163.581 59.7467C164.716 59.3389 165.513 58.6642 165.359 58.2397C165.206 57.8152 164.162 57.8016 163.026 58.2093C161.891 58.6171 161.095 59.2918 161.248 59.7163C161.401 60.1409 162.446 60.1545 163.581 59.7467Z" fill="#8ED16F"/>
<path opacity="0.3" d="M163.581 59.7467C164.716 59.3389 165.513 58.6642 165.359 58.2397C165.206 57.8152 164.162 57.8016 163.026 58.2093C161.891 58.6171 161.095 59.2918 161.248 59.7163C161.401 60.1409 162.446 60.1545 163.581 59.7467Z" fill="black"/>
<path d="M168.777 77.9374C165.162 79.2378 161.027 76.9593 161.027 76.9593C161.027 76.9593 162.756 72.5747 166.374 71.2772C169.993 69.9796 173.459 70.4291 174.125 72.2553C174.791 74.0815 172.393 76.6455 168.777 77.9374Z" fill="#8ED16F"/>
<path d="M167.806 75.265C168.941 74.8573 169.737 74.1826 169.584 73.758C169.431 73.3335 168.386 73.3199 167.251 73.7276C166.116 74.1354 165.32 74.8101 165.473 75.2346C165.626 75.6592 166.67 75.6728 167.806 75.265Z" fill="#8ED16F"/>
<path opacity="0.3" d="M167.806 75.265C168.941 74.8573 169.737 74.1826 169.584 73.758C169.431 73.3335 168.386 73.3199 167.251 73.7276C166.116 74.1354 165.32 74.8101 165.473 75.2346C165.626 75.6592 166.67 75.6728 167.806 75.265Z" fill="black"/>
<path d="M166.029 92.1232C162.414 93.4236 158.279 91.1451 158.279 91.1451C158.279 91.1451 160.008 86.7605 163.626 85.4629C167.245 84.1654 170.711 84.6149 171.377 86.4411C172.042 88.2673 169.648 90.8257 166.029 92.1232Z" fill="#8ED16F"/>
<path d="M165.064 89.2097C166.198 88.8004 166.993 88.1248 166.839 87.7007C166.685 87.2765 165.641 87.2645 164.507 87.6737C163.373 88.083 162.578 88.7586 162.732 89.1828C162.885 89.6069 163.929 89.6189 165.064 89.2097Z" fill="#8ED16F"/>
<path opacity="0.3" d="M165.064 89.2097C166.198 88.8004 166.993 88.1248 166.839 87.7007C166.685 87.2765 165.641 87.2645 164.507 87.6737C163.373 88.083 162.578 88.7586 162.732 89.1828C162.885 89.6069 163.929 89.6189 165.064 89.2097Z" fill="black"/>
<path d="M149.068 52.9616C151.737 55.7207 156.455 55.5058 156.455 55.5058C156.455 55.5058 156.843 50.8103 154.174 48.0512C151.505 45.2921 148.198 44.1556 146.787 45.5069C145.375 46.8582 146.398 50.2025 149.068 52.9616Z" fill="#8ED16F"/>
<path d="M153.241 51.9823C153.567 51.6689 153.151 50.7128 152.313 49.8467C151.475 48.9807 150.532 48.5327 150.206 48.846C149.881 49.1594 150.297 50.1155 151.135 50.9816C151.973 51.8476 152.916 52.2956 153.241 51.9823Z" fill="#8ED16F"/>
<path opacity="0.3" d="M153.241 51.9823C153.567 51.6689 153.151 50.7128 152.313 49.8467C151.475 48.9807 150.532 48.5327 150.206 48.846C149.881 49.1594 150.297 50.1155 151.135 50.9816C151.973 51.8476 152.916 52.2956 153.241 51.9823Z" fill="black"/>
<path d="M147.538 96.7763C150.208 99.5354 154.926 99.3205 154.926 99.3205C154.926 99.3205 155.314 94.625 152.645 91.8659C149.975 89.1068 146.668 87.9703 145.257 89.3216C143.846 90.6729 144.869 94.0172 147.538 96.7763Z" fill="#8ED16F"/>
<path d="M151.704 95.801C152.029 95.4876 151.614 94.5315 150.776 93.6654C149.938 92.7994 148.995 92.3514 148.669 92.6648C148.344 92.9781 148.759 93.9342 149.597 94.8003C150.436 95.6663 151.379 96.1144 151.704 95.801Z" fill="#8ED16F"/>
<path opacity="0.3" d="M151.704 95.801C152.029 95.4876 151.614 94.5315 150.776 93.6654C149.938 92.7994 148.995 92.3514 148.669 92.6648C148.344 92.9781 148.759 93.9342 149.597 94.8003C150.436 95.6663 151.379 96.1144 151.704 95.801Z" fill="black"/>
<path d="M151.078 68.4474C154.518 70.1605 158.891 68.3796 158.891 68.3796C158.891 68.3796 157.686 63.8254 154.249 62.1122C150.812 60.3991 147.312 60.4161 146.437 62.1801C145.561 63.9441 147.638 66.7343 151.078 68.4474Z" fill="#8ED16F"/>
<path d="M154.67 66.1276C154.872 65.7239 154.16 64.9609 153.081 64.4234C152.001 63.8859 150.962 63.7775 150.76 64.1812C150.558 64.5849 151.27 65.3479 152.349 65.8854C153.429 66.4229 154.468 66.5313 154.67 66.1276Z" fill="#8ED16F"/>
<path opacity="0.3" d="M154.67 66.1276C154.872 65.7239 154.16 64.9609 153.081 64.4234C152.001 63.8859 150.962 63.7775 150.76 64.1812C150.558 64.5849 151.27 65.3479 152.349 65.8854C153.429 66.4229 154.468 66.5313 154.67 66.1276Z" fill="black"/>
<path d="M152.519 83.8742C155.959 85.5873 160.331 83.8063 160.331 83.8063C160.331 83.8063 159.127 79.2521 155.69 77.539C152.252 75.8259 148.753 75.8428 147.877 77.6068C147.002 79.3709 149.093 82.178 152.519 83.8742Z" fill="#8ED16F"/>
<path d="M156.115 81.5562C156.317 81.1525 155.606 80.3895 154.526 79.852C153.446 79.3145 152.407 79.2061 152.206 79.6098C152.004 80.0135 152.715 80.7765 153.795 81.314C154.874 81.8515 155.913 81.9599 156.115 81.5562Z" fill="#8ED16F"/>
<path opacity="0.3" d="M156.115 81.5562C156.317 81.1525 155.606 80.3895 154.526 79.852C153.446 79.3145 152.407 79.2061 152.206 79.6098C152.004 80.0135 152.715 80.7765 153.795 81.314C154.874 81.8515 155.913 81.9599 156.115 81.5562Z" fill="black"/>
<path d="M109.626 69.2333C109.626 69.2333 129.629 89.1887 118.337 118.801C107.045 148.413 137.694 197.656 137.694 197.656C137.694 197.656 137.365 197.608 136.756 197.5C95.6678 190.266 75.2652 143.39 98.1047 108.567C106.586 95.62 113.571 80.4336 109.626 69.2333Z" fill="#8ED16F"/>
<path d="M74 149.945C74 149.945 96.8253 146.319 98.9052 166.726C100.985 187.134 142.796 189.964 142.796 189.964C142.796 189.964 142.513 190.15 142.011 190.484C107.488 213.099 74.4874 204.884 79.4605 174.865C81.3137 163.701 81.1607 152.493 74 149.945Z" fill="#8ED16F"/>
<g opacity="0.3">
<path opacity="0.3" d="M74 149.945C74 149.945 96.8253 146.319 98.9052 166.726C100.985 187.134 142.796 189.964 142.796 189.964C142.796 189.964 142.513 190.15 142.011 190.484C107.488 213.099 74.4874 204.884 79.4605 174.865C81.3137 163.701 81.1607 152.493 74 149.945Z" fill="white"/>
</g>
<path d="M103.849 149.694C107.315 149.694 110.125 142.38 110.125 133.357C110.125 124.334 107.315 117.02 103.849 117.02C100.382 117.02 97.5723 124.334 97.5723 133.357C97.5723 142.38 100.382 149.694 103.849 149.694Z" fill="#8ED16F"/>
<path opacity="0.3" d="M103.849 149.694C107.315 149.694 110.125 142.38 110.125 133.357C110.125 124.334 107.315 117.02 103.849 117.02C100.382 117.02 97.5723 124.334 97.5723 133.357C97.5723 142.38 100.382 149.694 103.849 149.694Z" fill="black"/>
<path d="M103.277 192.689C104.929 191.041 103.287 186.731 99.6102 183.062C95.9329 179.394 91.6125 177.756 89.9603 179.404C88.3081 181.053 89.9498 185.363 93.6271 189.031C97.3044 192.7 101.625 194.338 103.277 192.689Z" fill="#8ED16F"/>
<path opacity="0.3" d="M103.277 192.689C104.929 191.041 103.287 186.731 99.6102 183.062C95.9329 179.394 91.6125 177.756 89.9603 179.404C88.3081 181.053 89.9498 185.363 93.6271 189.031C97.3044 192.7 101.625 194.338 103.277 192.689Z" fill="black"/>
<path d="M279.128 100.044H130.547C128.752 100.044 127.03 100.756 125.76 102.022C124.491 103.289 123.777 105.007 123.777 106.798V193.678C123.777 195.47 124.491 197.187 125.76 198.454C127.03 199.72 128.752 200.432 130.547 200.432H279.128C280.924 200.432 282.646 199.72 283.915 198.454C285.185 197.187 285.898 195.47 285.898 193.678V106.798C285.898 105.007 285.185 103.289 283.915 102.022C282.646 100.756 280.924 100.044 279.128 100.044Z" fill="url(#paint0_linear)"/>
<path d="M276.957 101.226H132.714C128.831 101.226 125.684 104.366 125.684 108.24V192.237C125.684 196.11 128.831 199.25 132.714 199.25H276.957C280.84 199.25 283.987 196.11 283.987 192.237V108.24C283.987 104.366 280.84 101.226 276.957 101.226Z" fill="#0049A0"/>
<path d="M283.987 118.38H125.684V136.351H283.987V118.38Z" fill="#0049A0"/>
<path opacity="0.3" d="M283.987 118.38H125.684V136.351H283.987V118.38Z" fill="black"/>
<path d="M268.978 149.694H140.697V158.406H268.978V149.694Z" fill="#D6D6E3"/>
<path d="M151.339 192.717C158.274 192.717 163.895 187.109 163.895 180.191C163.895 173.273 158.274 167.665 151.339 167.665C144.405 167.665 138.783 173.273 138.783 180.191C138.783 187.109 144.405 192.717 151.339 192.717Z" fill="#0049A0"/>
<path opacity="0.3" d="M151.339 192.717C158.274 192.717 163.895 187.109 163.895 180.191C163.895 173.273 158.274 167.665 151.339 167.665C144.405 167.665 138.783 173.273 138.783 180.191C138.783 187.109 144.405 192.717 151.339 192.717Z" fill="black"/>
<path d="M274.987 77.0556C275.19 77.6949 275.621 78.238 276.197 78.5821C278.802 80.2981 284.463 79.9334 285.143 79.9334C285.288 79.9334 285.478 80.1907 285.687 80.6232C286.688 82.6812 288.238 88.7139 288.343 90.0708C288.481 91.7133 290.012 99.3998 292.517 102.263C292.593 102.351 292.67 102.433 292.743 102.509C295.2 104.972 298.082 102.263 298.082 102.263L298.496 100.83C298.379 101.396 298.249 102.054 298.119 102.792C298.054 103.162 297.988 103.555 297.926 103.96C297.553 106.238 297.357 108.541 297.34 110.849C297.333 111.687 297.369 112.525 297.447 113.359C297.47 113.591 297.495 113.82 297.527 114.043C297.654 115.06 297.717 116.083 297.714 117.108C297.691 123.191 296.135 130.759 296.135 130.759L296.195 130.739C296.158 130.929 296.135 131.022 296.135 131.022L296.226 130.994C296.182 131.274 296.141 131.562 296.101 131.856C295.574 135.672 295.271 140.422 295.126 143.164C295.052 144.61 295.116 146.06 295.319 147.495L298.085 166.918V175.965C298.075 177.336 298.243 178.702 298.584 180.03C299.485 183.448 298.742 195.377 298.326 201.037C298.209 202.58 298.119 203.66 298.093 203.971V204.065L298.173 204.033C298.173 204.098 298.173 204.132 298.173 204.132C298.291 204.082 298.414 204.046 298.541 204.025C297.444 205.721 295.458 208.525 293.931 208.998C293.03 209.271 292.23 209.801 291.627 210.521L291.587 210.575L291.53 210.654C291.342 210.906 291.227 211.206 291.199 211.519C291.177 211.465 291.16 211.409 291.148 211.352C291.032 211.983 291.411 212.56 292.604 212.839C293.3 212.972 294.008 213.029 294.716 213.009C298.853 213.009 306.195 211.74 307.005 210.374V205.665L307.138 205.707V205.749L307.646 205.916L309.037 201.257C310.706 200.025 309.32 177.966 309.037 172.897C308.782 168.278 311.647 149.903 312.154 146.666L312.086 146.584L312.162 146.112C312.265 146.186 312.359 146.269 312.446 146.361C312.612 146.558 312.758 146.772 312.879 147C313.119 147.404 313.325 147.828 313.494 148.266C316.294 155.232 317.555 175.151 317.555 176.937V195.669C317.549 197.517 317.807 199.357 318.32 201.133C318.577 202.068 318.776 203.018 318.915 203.977C318.975 204.353 319.026 204.726 319.074 205.082C319.122 205.438 319.17 205.846 319.207 206.179C319.207 206.267 319.227 206.352 319.235 206.431C319.244 206.51 319.235 206.507 319.235 206.547C319.312 207.284 319.352 207.768 319.352 207.768C319.362 207.727 319.381 207.69 319.408 207.658L319.422 207.836C319.442 207.768 319.481 207.708 319.533 207.66C319.648 207.548 319.773 207.445 319.907 207.355V209.735L319.839 209.685V210.094C322.724 212.266 327.419 212.921 331.024 212.896C333.361 212.896 335.254 212.613 335.912 212.285C336.852 211.825 336.337 210.75 335.481 209.928C334.818 209.289 333.954 208.797 333.407 208.859C332.494 208.958 329.374 205.433 327.739 203.502L327.923 203.42L328.184 203.307V172.075C328.184 172.075 328.604 159.744 329.853 147.548C330.446 141.401 329.717 135.198 327.714 129.354L327.674 129.238L328.054 129.298C328.456 129.36 328.672 129.396 328.672 129.396C328.672 129.396 328.672 129.3 328.646 129.114H328.672C328.672 129.114 328.184 123.825 328.178 117.181C328.178 109.65 328.816 100.468 331.454 95.2724C332.973 92.2815 333.48 89.9012 333.438 88.0241C333.504 86.3724 333.027 84.7444 332.08 83.3879C331.683 82.8419 331.143 82.4155 330.519 82.1554L330.465 82.1243H330.437C329.981 81.9404 329.495 81.8444 329.003 81.8416H323.305C322.645 81.8421 321.997 81.6717 321.423 81.3469L319.193 80.0861C318.45 78.4662 318.343 76.4591 318.501 74.5764C318.501 74.4265 318.53 74.2767 318.544 74.1297L318.705 73.9601C318.83 73.8272 318.946 73.6774 319.06 73.5502C319.057 73.6617 319.049 73.7731 319.034 73.8838C319.006 74.0619 318.958 74.1665 318.881 74.1891C320.1 74.0308 321.46 73.7905 322.208 72.8519C322.239 72.8152 322.267 72.7756 322.296 72.736C322.517 72.379 322.7 72 322.843 71.6052C322.947 71.3355 323.088 71.0808 323.259 70.8476C323.446 70.6045 323.69 70.4066 323.891 70.1748L323.925 70.1352C324.642 69.2871 324.682 68.0716 324.69 66.9634C324.704 64.2721 324.625 61.3095 322.82 59.2911C321.321 57.6119 318.929 56.9758 316.66 56.9023C314.39 56.8288 312.126 57.2359 309.859 57.2472C308.317 57.2472 306.458 57.2217 305.608 58.4939C305.192 59.1186 305.141 59.9356 304.687 60.5349C304.427 60.8798 304.027 61.1766 304.004 61.6063C304.001 61.8046 304.052 62 304.152 62.1717V62.1915C304.701 63.2714 305.869 63.9442 307.087 64.1562C306.881 64.4036 306.692 64.6642 306.521 64.9365C305.777 66.1229 305.384 67.4948 305.387 68.8942C305.387 69.0582 305.387 69.2193 305.404 69.3804C305.531 71.2812 306.38 73.0619 307.779 74.3587C307.756 74.517 307.733 74.6753 307.708 74.8308L307.759 74.876C307.92 75.0211 308.087 75.1587 308.261 75.2888L308.323 75.3368C308.323 75.4357 308.323 75.5347 308.323 75.6195C308.323 75.7835 308.323 75.9503 308.306 76.1114C308.289 76.2725 308.306 76.3715 308.289 76.5015L308.252 76.4704L305.484 74.1636L301.032 70.0532C301.032 70.0532 289.901 61.971 289.343 65.8128C289.275 66.4951 289.464 67.1781 289.873 67.7295C291.916 70.8391 298.941 73.4852 298.941 73.4852C298.941 73.4852 303.129 77.9037 305.931 82.6671C305.832 82.7208 305.733 82.7717 305.628 82.8197C303.134 83.9759 299.496 83.4869 299.496 83.4869C295.294 84.1399 294.914 88.7337 294.937 90.591C294.937 90.6786 294.937 90.7634 294.937 90.8398C294.937 90.9161 294.937 90.9331 294.937 90.9755L289.36 77.9122L289.343 77.8726C289.161 77.4473 288.874 77.0746 288.51 76.789C288.145 76.5034 287.715 76.3141 287.257 76.2386C283.528 75.6138 274.208 74.3106 274.987 77.0556ZM298.334 203.985C298.415 203.966 298.498 203.951 298.581 203.94L298.555 203.98L298.334 203.985Z" fill="url(#paint1_linear)"/>
<path d="M326.197 201.314C326.197 201.314 331.479 207.937 332.7 207.802C333.921 207.666 336.764 210.369 335.14 211.194C333.516 212.019 324.168 212.545 319.555 209.031V203.737L326.197 201.314Z" fill="#ACA9C9"/>
<path d="M299.508 201.718C299.508 201.718 296.391 207.259 294.226 207.937C292.061 208.616 290.163 211.047 293.008 211.723C295.853 212.398 306.014 210.911 306.961 209.289V202.122L299.508 201.718Z" fill="#ACA9C9"/>
<path d="M295.593 147.285L298.285 166.446V175.354C298.276 176.705 298.44 178.052 298.772 179.363C299.651 182.735 298.928 194.501 298.52 200.084C298.387 201.905 298.285 203.069 298.285 203.069C300.044 202.258 307.497 204.825 307.497 204.825L308.251 202.267L308.851 200.231C310.478 199.016 309.135 177.257 308.851 172.244C308.667 168.821 310.197 157.722 311.178 151.071C311.461 149.191 311.691 147.678 311.83 146.768C311.918 146.203 311.966 145.889 311.966 145.889C312.264 146.132 312.513 146.43 312.697 146.768C312.93 147.168 313.13 147.585 313.295 148.018C316.021 154.89 317.262 174.537 317.262 176.287V194.764C317.256 196.587 317.507 198.401 318.007 200.155C318.343 201.434 318.588 202.734 318.741 204.048C318.934 205.515 319.024 206.696 319.024 206.696C319.16 205.885 327.559 202.235 327.559 202.235V171.422C327.559 171.422 327.965 159.266 329.186 147.229C329.711 141.753 329.182 136.228 327.627 130.951C327.29 129.801 326.953 128.825 326.661 128.054C326.165 126.739 325.811 126.013 325.811 126.013H298.143C297.678 126.1 297.293 127.033 296.944 128.449C296.718 129.399 296.519 130.564 296.346 131.842C295.834 135.604 295.539 140.289 295.397 142.997C295.326 144.429 295.391 145.865 295.593 147.285Z" fill="#618FD8"/>
<g opacity="0.1">
<path opacity="0.1" d="M327.071 202.323V171.509C327.071 171.509 327.477 159.353 328.698 147.316C329.919 135.279 325.298 126.097 325.298 126.097H325.839C325.839 126.097 330.444 135.288 329.239 147.316C328.035 159.345 327.613 171.509 327.613 171.509V202.323C327.613 202.323 319.214 205.973 319.078 206.784C319.078 206.784 319.078 206.603 319.035 206.292C320.866 205.023 327.071 202.323 327.071 202.323Z" fill="black"/>
<path opacity="0.1" d="M299.099 202.985C298.843 202.99 298.591 203.042 298.354 203.137V203.002C298.601 202.977 298.85 202.971 299.099 202.985Z" fill="black"/>
<path opacity="0.1" d="M308.38 200.299C310.006 199.083 308.663 177.324 308.38 172.312C308.096 167.3 311.497 145.959 311.497 145.959C311.675 146.097 311.832 146.258 311.964 146.44C311.466 149.629 308.677 167.758 308.924 172.312C309.207 177.313 310.55 199.072 308.924 200.299L307.569 204.893L307.076 204.729L308.38 200.299Z" fill="black"/>
</g>
<path d="M301.134 92.6518L298.3 102.654C298.3 102.654 295.319 105.48 292.882 102.654C290.445 99.8266 288.943 92.2475 288.796 90.6249C288.648 89.0022 286.492 80.6231 285.679 80.6231C284.865 80.6231 276.738 81.1631 275.789 77.7962C275.03 75.088 284.103 76.3827 287.736 76.9905C288.183 77.0665 288.604 77.2541 288.959 77.5358C289.314 77.8175 289.593 78.1842 289.768 78.6019L295.339 91.8744C295.339 91.8744 298.288 88.4623 301.134 92.6518Z" fill="#F7C4A7"/>
<path d="M319.42 69.4058C319.42 69.4058 315.898 79.2718 320.369 82.7857C324.841 86.2996 304.379 87.2466 304.379 87.2466L307.156 84.6119C307.156 84.6119 309.12 76.8406 307.765 70.3528L319.42 69.4058Z" fill="#F7C4A7"/>
<path opacity="0.1" d="M315.084 82.7858C315.084 82.7858 318.674 81.9066 318.674 80.9624L321.856 82.7858H329.85C329.85 82.7858 335.676 86.0283 330.799 95.7615C325.923 105.495 328.09 129.402 328.09 129.402C328.09 129.402 310.751 126.292 296.39 131.025C296.39 131.025 298.558 120.347 297.745 114.267C296.931 108.186 299.099 99.6711 299.099 99.6711L300.318 94.5346C300.318 94.5346 300.25 89.7288 295.237 92.1684C295.237 92.1684 294.492 85.2085 299.64 84.3971C299.64 84.3971 305.591 85.2085 307.362 82.2345C307.362 82.2458 311.292 84.5441 315.084 82.7858Z" fill="black"/>
<path d="M315.084 82.5171C315.084 82.5171 318.674 81.6379 318.674 80.6937L321.006 82.0309C321.564 82.3494 322.195 82.517 322.837 82.5171H328.428C329.012 82.5154 329.589 82.6525 330.109 82.9169C330.63 83.1814 331.08 83.5657 331.423 84.038C332.707 85.8388 333.857 89.3894 330.8 95.4928C325.923 105.223 328.091 129.133 328.091 129.133C328.091 129.133 310.751 126.024 296.39 130.756C296.39 130.756 298.558 120.079 297.745 113.998C296.931 107.917 299.099 99.4222 299.099 99.4222L300.318 94.2857C300.318 94.2857 300.25 89.4799 295.237 91.9195C295.237 91.9195 294.511 85.1518 299.428 84.185C299.565 84.1547 299.705 84.1452 299.844 84.1567C300.896 84.267 305.795 84.6203 307.365 81.9715C307.362 81.9743 311.293 84.2726 315.084 82.5171Z" fill="#E14B5A"/>
<path opacity="0.1" d="M328.769 94.8144C328.769 94.8144 324.433 97.517 317.389 94.8144C317.389 94.8144 309.667 91.9875 307.227 86.4353C304.787 80.8832 319.554 87.3824 319.554 87.3824C319.554 87.3824 322.671 87.3824 323.617 86.7067C324.564 86.0311 331.206 91.8405 328.769 94.8144Z" fill="black"/>
<path d="M328.768 94.2746C328.768 94.2746 324.432 96.9771 317.388 94.2746C317.388 94.2746 309.666 91.4476 307.226 85.8955C304.786 80.3434 299.099 74.2626 299.099 74.2626C299.099 74.2626 289.209 70.4773 289.748 66.6949C290.286 62.9124 301.128 70.8844 301.128 70.8844L305.463 74.9383L319.552 86.8312C319.552 86.8312 322.669 86.8312 323.616 86.1556C324.562 85.4799 331.205 91.3006 328.768 94.2746Z" fill="#F7C4A7"/>
<path opacity="0.1" d="M307.635 70.7571L319.284 69.8101C318.685 71.5968 318.278 73.4418 318.068 75.3141C316.714 76.7151 314.863 77.5296 312.912 77.5825C310.962 77.6354 309.069 76.9223 307.64 75.5968C307.937 73.997 307.935 72.3562 307.635 70.7571Z" fill="black"/>
<path d="M312.85 77.1769C316.965 77.1769 320.3 73.8495 320.3 69.7449C320.3 65.6403 316.965 62.3129 312.85 62.3129C308.736 62.3129 305.4 65.6403 305.4 69.7449C305.4 73.8495 308.736 77.1769 312.85 77.1769Z" fill="#F7C4A7"/>
<path opacity="0.1" d="M316.939 71.3593C316.503 70.6412 317.39 69.7055 317.098 68.9196C316.829 68.1959 315.757 68.0715 315.398 67.3959C315.114 66.8503 315.398 66.1803 315.284 65.5782C315.123 64.8008 314.284 64.3174 313.488 64.2778C312.691 64.2382 311.923 64.535 311.167 64.7895C309.934 65.205 308.636 65.5245 307.344 65.3775C306.052 65.2305 304.763 64.5294 304.187 63.3788C304.093 63.2112 304.044 63.0225 304.043 62.8304C304.066 62.4063 304.457 62.1152 304.709 61.7759C305.151 61.1851 305.202 60.3794 305.604 59.7631C306.426 58.508 308.231 58.5391 309.733 58.5334C311.943 58.5334 314.142 58.1207 316.352 58.1942C318.563 58.2677 320.886 58.8924 322.351 60.549C324.108 62.542 324.188 65.4594 324.173 68.1168C324.173 69.2108 324.128 70.4009 323.428 71.2462C323.224 71.4921 322.975 71.6957 322.779 71.9473C322.354 72.5127 322.241 73.2364 321.841 73.8102C321.133 74.8308 319.75 75.0795 318.517 75.2435C318.88 75.1954 318.58 72.7727 318.517 72.5494C318.279 71.4356 318.022 71.4582 316.939 71.3593Z" fill="black"/>
<path d="M316.939 71.0907C316.503 70.3727 317.39 69.437 317.098 68.6511C316.829 67.9274 315.757 67.803 315.398 67.1273C315.114 66.5817 315.398 65.9118 315.284 65.3096C315.123 64.5322 314.284 64.0488 313.488 64.0092C312.691 63.9696 311.923 64.2665 311.167 64.5209C309.934 64.9365 308.636 65.2559 307.344 65.1089C306.052 64.9619 304.763 64.2608 304.187 63.1103C304.093 62.9427 304.044 62.7539 304.043 62.5618C304.066 62.1378 304.457 61.8466 304.709 61.5074C305.151 60.9165 305.202 60.1109 305.604 59.4946C306.426 58.2394 308.231 58.2705 309.733 58.2649C311.943 58.2649 314.142 57.8521 316.352 57.9256C318.563 57.9991 320.886 58.6239 322.351 60.2805C324.108 62.2735 324.188 65.1909 324.173 67.8482C324.173 68.9422 324.128 70.1324 323.428 70.9776C323.224 71.2236 322.975 71.4271 322.779 71.6787C322.354 72.2441 322.241 72.9678 321.841 73.5417C321.133 74.5622 319.75 74.811 318.517 74.9749C318.88 74.9269 318.58 72.5042 318.517 72.2809C318.279 71.1529 318.022 71.1868 316.939 71.0907Z" fill="#281C1C"/>
<path opacity="0.1" d="M328.699 95.1535C328.699 95.1535 325.041 85.6918 322.196 85.4232C319.351 85.1546 327.614 85.4232 327.614 85.4232L330.323 90.2884L328.699 95.1535Z" fill="black"/>
<path d="M328.972 95.1535C328.972 95.1535 325.314 85.6918 322.469 85.4232C319.624 85.1546 327.887 85.4232 327.887 85.4232L330.596 90.2884L328.972 95.1535Z" fill="#E14B5A"/>
<path d="M318.73 204.07C318.923 205.537 319.014 206.719 319.014 206.719C319.15 205.908 327.549 202.258 327.549 202.258V200.062C327.335 200.054 327.121 200.064 326.908 200.093C325.279 200.31 323.769 201.099 322.375 201.942C321.197 202.713 319.981 203.423 318.73 204.07Z" fill="#618FD8"/>
<path opacity="0.3" d="M318.73 204.07C318.923 205.537 319.014 206.719 319.014 206.719C319.15 205.908 327.549 202.258 327.549 202.258V200.062C327.335 200.054 327.121 200.064 326.908 200.093C325.279 200.31 323.769 201.099 322.375 201.942C321.197 202.713 319.981 203.423 318.73 204.07Z" fill="black"/>
<path d="M298.287 203.069C300.047 202.258 307.499 204.825 307.499 204.825L308.253 202.267C306.953 202.004 305.66 201.676 304.391 201.286C303.798 201.115 303.219 200.901 302.657 200.647C302.281 200.447 301.895 200.267 301.501 200.11C300.529 199.776 299.517 199.917 298.519 200.084C298.389 201.905 298.287 203.069 298.287 203.069Z" fill="#618FD8"/>
<path opacity="0.3" d="M298.287 203.069C300.047 202.258 307.499 204.825 307.499 204.825L308.253 202.267C306.953 202.004 305.66 201.676 304.391 201.286C303.798 201.115 303.219 200.901 302.657 200.647C302.281 200.447 301.895 200.267 301.501 200.11C300.529 199.776 299.517 199.917 298.519 200.084C298.389 201.905 298.287 203.069 298.287 203.069Z" fill="black"/>
<path opacity="0.4" d="M335.066 210.773C335.179 210.724 335.28 210.651 335.36 210.558C335.441 210.465 335.499 210.355 335.53 210.236C335.581 210.422 335.562 210.621 335.476 210.794C335.391 210.967 335.245 211.103 335.066 211.177C333.439 211.988 324.094 212.528 319.48 209.014V208.61C324.094 212.124 333.439 211.584 335.066 210.773Z" fill="white"/>
<path opacity="0.4" d="M292.937 211.313C295.771 211.989 305.944 210.502 306.89 208.879V209.283C305.941 210.906 295.782 212.393 292.937 211.717C291.775 211.434 291.404 210.869 291.52 210.25C291.611 210.708 292.036 211.087 292.937 211.313Z" fill="white"/>
<path opacity="0.1" d="M309.461 112.859C309.461 112.859 306.48 111.912 305.667 112.859C304.853 113.806 297.902 116.025 297.902 116.025" fill="black"/>
<path d="M275.732 75.724H290.227V75.4187H275.732V75.724Z" fill="#8ED16F"/>
<path d="M275.732 76.0294H290.227V75.7241H275.732V76.0294Z" fill="#8ED16F"/>
<path opacity="0.1" d="M275.732 76.0294H290.227V75.7241H275.732V76.0294Z" fill="black"/>
<path d="M275.732 76.3346H290.227V76.0293H275.732V76.3346Z" fill="#8ED16F"/>
<path d="M275.732 76.6371H290.227V76.3318H275.732V76.6371Z" fill="#8ED16F"/>
<path opacity="0.1" d="M275.732 76.6371H290.227V76.3318H275.732V76.6371Z" fill="black"/>
<path d="M275.732 76.9425H290.227V76.6372H275.732V76.9425Z" fill="#8ED16F"/>
<path d="M275.732 77.2449H290.227V76.9396H275.732V77.2449Z" fill="#8ED16F"/>
<path opacity="0.1" d="M275.732 77.2449H290.227V76.9396H275.732V77.2449Z" fill="black"/>
<path d="M275.732 77.5503H290.227V77.245H275.732V77.5503Z" fill="#8ED16F"/>
<path d="M275.732 77.8528H290.227V77.5475H275.732V77.8528Z" fill="#8ED16F"/>
<path opacity="0.1" d="M275.732 77.8528H290.227V77.5475H275.732V77.8528Z" fill="black"/>
<path d="M275.732 73.2928H290.227V72.9875H275.732V73.2928Z" fill="#8ED16F"/>
<path d="M285.983 66.0645L297.127 75.3107L297.323 75.0759L286.179 65.8298L285.983 66.0645Z" fill="#8ED16F"/>
<path d="M275.827 61.1999L286.971 70.446L287.166 70.2113L276.023 60.9651L275.827 61.1999Z" fill="#8ED16F"/>
<path d="M275.732 73.5953H290.227V73.29H275.732V73.5953Z" fill="#8ED16F"/>
<path opacity="0.1" d="M275.732 73.5953H290.227V73.29H275.732V73.5953Z" fill="black"/>
<path d="M275.732 73.9034H290.227V73.5981H275.732V73.9034Z" fill="#8ED16F"/>
<path d="M275.732 74.2059H290.227V73.9006H275.732V74.2059Z" fill="#8ED16F"/>
<path opacity="0.1" d="M275.732 74.2059H290.227V73.9006H275.732V74.2059Z" fill="black"/>
<path d="M275.732 74.5084H290.227V74.2031H275.732V74.5084Z" fill="#8ED16F"/>
<path d="M275.732 74.8137H290.227V74.5084H275.732V74.8137Z" fill="#8ED16F"/>
<path opacity="0.1" d="M275.732 74.8137H290.227V74.5084H275.732V74.8137Z" fill="black"/>
<path d="M275.732 75.1162H290.227V74.8109H275.732V75.1162Z" fill="#8ED16F"/>
<path d="M275.732 75.4215H290.227V75.1162H275.732V75.4215Z" fill="#8ED16F"/>
<path opacity="0.1" d="M275.732 75.4215H290.227V75.1162H275.732V75.4215Z" fill="black"/>
<path d="M273.895 87.2757L279.088 88.2378L280.967 78.1401L275.774 77.1781L273.895 87.2757Z" fill="#8ED16F"/>
<path d="M278.569 82.9373C278.788 81.763 278.489 80.7227 277.901 80.6138C277.313 80.5049 276.659 81.3686 276.441 82.5429C276.222 83.7172 276.521 84.7575 277.109 84.8664C277.697 84.9752 278.351 84.1116 278.569 82.9373Z" fill="#8ED16F"/>
<path opacity="0.1" d="M278.569 82.9373C278.788 81.763 278.489 80.7227 277.901 80.6138C277.313 80.5049 276.659 81.3686 276.441 82.5429C276.222 83.7172 276.521 84.7575 277.109 84.8664C277.697 84.9752 278.351 84.1116 278.569 82.9373Z" fill="black"/>
<path d="M274.783 108.589L279.977 109.551L281.856 99.4536L276.663 98.4915L274.783 108.589Z" fill="#8ED16F"/>
<path d="M279.454 104.248C279.673 103.074 279.373 102.034 278.786 101.925C278.198 101.816 277.544 102.68 277.325 103.854C277.107 105.028 277.406 106.068 277.994 106.177C278.582 106.286 279.235 105.423 279.454 104.248Z" fill="#8ED16F"/>
<path opacity="0.1" d="M279.454 104.248C279.673 103.074 279.373 102.034 278.786 101.925C278.198 101.816 277.544 102.68 277.325 103.854C277.107 105.028 277.406 106.068 277.994 106.177C278.582 106.286 279.235 105.423 279.454 104.248Z" fill="black"/>
<path d="M256 56.2013L253.486 60.8357L262.54 65.7236L265.054 61.0893L256 56.2013Z" fill="#8ED16F"/>
<path d="M262.061 62.1994C262.348 61.6746 261.727 60.7843 260.673 60.211C259.62 59.6377 258.533 59.5985 258.246 60.1233C257.959 60.6481 258.581 61.5384 259.634 62.1117C260.688 62.685 261.774 62.7242 262.061 62.1994Z" fill="#8ED16F"/>
<path opacity="0.1" d="M262.061 62.1994C262.348 61.6746 261.727 60.7843 260.673 60.211C259.62 59.6377 258.533 59.5985 258.246 60.1233C257.959 60.6481 258.581 61.5384 259.634 62.1117C260.688 62.685 261.774 62.7242 262.061 62.1994Z" fill="black"/>
<path d="M236.121 147.66L233.607 152.294L242.661 157.182L245.175 152.548L236.121 147.66Z" fill="#8ED16F"/>
<path d="M241.268 153.512C241.552 152.988 240.929 152.102 239.876 151.533C238.823 150.965 237.739 150.929 237.455 151.454C237.17 151.978 237.793 152.864 238.846 153.433C239.899 154.001 240.983 154.037 241.268 153.512Z" fill="#8ED16F"/>
<path opacity="0.1" d="M241.268 153.512C241.552 152.988 240.929 152.102 239.876 151.533C238.823 150.965 237.739 150.929 237.455 151.454C237.17 151.978 237.793 152.864 238.846 153.433C239.899 154.001 240.983 154.037 241.268 153.512Z" fill="black"/>
<path d="M223.955 72.1852L221.441 76.8196L230.495 81.7075L233.009 77.0732L223.955 72.1852Z" fill="#8ED16F"/>
<path d="M229.1 78.0333C229.384 77.5088 228.761 76.6228 227.708 76.0543C226.655 75.4859 225.571 75.4503 225.287 75.9748C225.002 76.4993 225.625 77.3854 226.678 77.9538C227.731 78.5223 228.815 78.5579 229.1 78.0333Z" fill="#8ED16F"/>
<path opacity="0.1" d="M229.1 78.0333C229.384 77.5088 228.761 76.6228 227.708 76.0543C226.655 75.4859 225.571 75.4503 225.287 75.9748C225.002 76.4993 225.625 77.3854 226.678 77.9538C227.731 78.5223 228.815 78.5579 229.1 78.0333Z" fill="black"/>
<path d="M239.203 56.2001L236.689 60.8345L245.744 65.7224L248.257 61.0881L239.203 56.2001Z" fill="#8ED16F"/>
<path d="M244.348 62.0483C244.632 61.5238 244.009 60.6378 242.956 60.0693C241.903 59.5009 240.819 59.4653 240.535 59.9898C240.25 60.5144 240.873 61.4004 241.926 61.9688C242.979 62.5373 244.063 62.5729 244.348 62.0483Z" fill="#8ED16F"/>
<path opacity="0.1" d="M244.348 62.0483C244.632 61.5238 244.009 60.6378 242.956 60.0693C241.903 59.5009 240.819 59.4653 240.535 59.9898C240.25 60.5144 240.873 61.4004 241.926 61.9688C242.979 62.5373 244.063 62.5729 244.348 62.0483Z" fill="black"/>
<path d="M254.423 75.0615L249.172 75.6343L250.291 85.8437L255.542 85.271L254.423 75.0615Z" fill="#8ED16F"/>
<path d="M252.524 82.6111C253.118 82.5462 253.494 81.5312 253.364 80.3439C253.234 79.1566 252.647 78.2466 252.053 78.3115C251.458 78.3763 251.082 79.3913 251.212 80.5786C251.342 81.7659 251.93 82.6759 252.524 82.6111Z" fill="#8ED16F"/>
<path opacity="0.1" d="M252.524 82.6111C253.118 82.5462 253.494 81.5312 253.364 80.3439C253.234 79.1566 252.647 78.2466 252.053 78.3115C251.458 78.3763 251.082 79.3913 251.212 80.5786C251.342 81.7659 251.93 82.6759 252.524 82.6111Z" fill="black"/>
<path d="M290.423 130.967L285.172 131.539L286.291 141.749L291.542 141.176L290.423 130.967Z" fill="#8ED16F"/>
<path d="M288.524 138.516C289.118 138.451 289.494 137.436 289.364 136.249C289.234 135.061 288.647 134.152 288.053 134.216C287.458 134.281 287.082 135.296 287.212 136.484C287.342 137.671 287.93 138.581 288.524 138.516Z" fill="#8ED16F"/>
<path opacity="0.1" d="M288.524 138.516C289.118 138.451 289.494 137.436 289.364 136.249C289.234 135.061 288.647 134.152 288.053 134.216C287.458 134.281 287.082 135.296 287.212 136.484C287.342 137.671 287.93 138.581 288.524 138.516Z" fill="black"/>
<path d="M233.862 96.7491L231.348 101.383L240.402 106.271L242.916 101.637L233.862 96.7491Z" fill="#8ED16F"/>
<path d="M239.006 102.601C239.29 102.077 238.668 101.191 237.615 100.622C236.562 100.054 235.477 100.018 235.193 100.543C234.908 101.067 235.531 101.953 236.584 102.522C237.637 103.09 238.721 103.126 239.006 102.601Z" fill="#8ED16F"/>
<path opacity="0.1" d="M239.006 102.601C239.29 102.077 238.668 101.191 237.615 100.622C236.562 100.054 235.477 100.018 235.193 100.543C234.908 101.067 235.531 101.953 236.584 102.522C237.637 103.09 238.721 103.126 239.006 102.601Z" fill="black"/>
<path d="M211.014 90.2392L208.5 94.8735L217.554 99.7615L220.068 95.1271L211.014 90.2392Z" fill="#8ED16F"/>
<path d="M216.911 96.3987C217.198 95.8739 216.577 94.9837 215.523 94.4104C214.469 93.8371 213.383 93.7978 213.096 94.3226C212.809 94.8475 213.43 95.7377 214.484 96.311C215.537 96.8843 216.624 96.9236 216.911 96.3987Z" fill="#8ED16F"/>
<path opacity="0.1" d="M216.911 96.3987C217.198 95.8739 216.577 94.9837 215.523 94.4104C214.469 93.8371 213.383 93.7978 213.096 94.3226C212.809 94.8475 213.43 95.7377 214.484 96.311C215.537 96.8843 216.624 96.9236 216.911 96.3987Z" fill="black"/>
<path d="M203.697 199.842L201.184 204.476L210.238 209.364L212.752 204.73L203.697 199.842Z" fill="#8ED16F"/>
<path d="M208.842 205.691C209.126 205.167 208.503 204.281 207.451 203.712C206.398 203.144 205.313 203.108 205.029 203.633C204.744 204.157 205.367 205.043 206.42 205.612C207.473 206.18 208.557 206.216 208.842 205.691Z" fill="#8ED16F"/>
<path opacity="0.1" d="M208.842 205.691C209.126 205.167 208.503 204.281 207.451 203.712C206.398 203.144 205.313 203.108 205.029 203.633C204.744 204.157 205.367 205.043 206.42 205.612C207.473 206.18 208.557 206.216 208.842 205.691Z" fill="black"/>
<path d="M197.11 201.628L196.146 206.809L206.269 208.682L207.232 203.501L197.11 201.628Z" fill="#8ED16F"/>
<path opacity="0.05" d="M197.11 201.628L196.146 206.809L206.269 208.682L207.232 203.501L197.11 201.628Z" fill="black"/>
<path d="M203.808 205.615C203.917 205.029 203.051 204.377 201.874 204.159C200.697 203.941 199.654 204.24 199.545 204.826C199.436 205.413 200.302 206.065 201.479 206.283C202.656 206.5 203.699 206.202 203.808 205.615Z" fill="#8ED16F"/>
<path opacity="0.1" d="M203.808 205.615C203.917 205.029 203.051 204.377 201.874 204.159C200.697 203.941 199.654 204.24 199.545 204.826C199.436 205.413 200.302 206.065 201.479 206.283C202.656 206.5 203.699 206.202 203.808 205.615Z" fill="black"/>
<path d="M198.057 204.735L197.094 209.916L207.216 211.789L208.179 206.608L198.057 204.735Z" fill="#8ED16F"/>
<path d="M204.755 208.722C204.864 208.136 203.998 207.484 202.821 207.266C201.644 207.048 200.601 207.347 200.492 207.933C200.383 208.52 201.249 209.172 202.426 209.39C203.603 209.607 204.646 209.309 204.755 208.722Z" fill="#8ED16F"/>
<path opacity="0.1" d="M204.755 208.722C204.864 208.136 203.998 207.484 202.821 207.266C201.644 207.048 200.601 207.347 200.492 207.933C200.383 208.52 201.249 209.172 202.426 209.39C203.603 209.607 204.646 209.309 204.755 208.722Z" fill="black"/>
<path d="M214.379 213.162L211.865 217.796L220.919 222.684L223.433 218.05L214.379 213.162Z" fill="#8ED16F"/>
<path d="M219.524 219.011C219.808 218.487 219.185 217.601 218.132 217.032C217.079 216.464 215.995 216.428 215.71 216.953C215.426 217.477 216.049 218.363 217.102 218.932C218.155 219.5 219.239 219.536 219.524 219.011Z" fill="#8ED16F"/>
<path opacity="0.1" d="M219.524 219.011C219.808 218.487 219.185 217.601 218.132 217.032C217.079 216.464 215.995 216.428 215.71 216.953C215.426 217.477 216.049 218.363 217.102 218.932C218.155 219.5 219.239 219.536 219.524 219.011Z" fill="black"/>
<path d="M207.792 214.944L206.828 220.125L216.95 221.999L217.914 216.818L207.792 214.944Z" fill="#8ED16F"/>
<path opacity="0.05" d="M207.792 214.944L206.828 220.125L216.95 221.999L217.914 216.818L207.792 214.944Z" fill="black"/>
<path d="M214.49 218.932C214.599 218.345 213.733 217.693 212.556 217.476C211.378 217.258 210.336 217.557 210.227 218.143C210.118 218.729 210.984 219.381 212.161 219.599C213.338 219.817 214.38 219.518 214.49 218.932Z" fill="#8ED16F"/>
<path opacity="0.1" d="M214.49 218.932C214.599 218.345 213.733 217.693 212.556 217.476C211.378 217.258 210.336 217.557 210.227 218.143C210.118 218.729 210.984 219.381 212.161 219.599C213.338 219.817 214.38 219.518 214.49 218.932Z" fill="black"/>
<path d="M208.739 218.055L207.775 223.236L217.897 225.109L218.861 219.928L208.739 218.055Z" fill="#8ED16F"/>
<path d="M215.439 222.042C215.548 221.456 214.682 220.804 213.505 220.586C212.328 220.368 211.285 220.667 211.176 221.253C211.067 221.84 211.933 222.492 213.11 222.709C214.287 222.927 215.33 222.629 215.439 222.042Z" fill="#8ED16F"/>
<path opacity="0.1" d="M215.439 222.042C215.548 221.456 214.682 220.804 213.505 220.586C212.328 220.368 211.285 220.667 211.176 221.253C211.067 221.84 211.933 222.492 213.11 222.709C214.287 222.927 215.33 222.629 215.439 222.042Z" fill="black"/>
<path d="M230.401 204.578L227.887 209.212L236.941 214.1L239.455 209.466L230.401 204.578Z" fill="#8ED16F"/>
<path d="M235.543 210.426C235.828 209.901 235.205 209.015 234.152 208.447C233.099 207.878 232.015 207.843 231.73 208.367C231.445 208.892 232.068 209.778 233.121 210.346C234.174 210.915 235.259 210.95 235.543 210.426Z" fill="#8ED16F"/>
<path opacity="0.1" d="M235.543 210.426C235.828 209.901 235.205 209.015 234.152 208.447C233.099 207.878 232.015 207.843 231.73 208.367C231.445 208.892 232.068 209.778 233.121 210.346C234.174 210.915 235.259 210.95 235.543 210.426Z" fill="black"/>
<path d="M223.815 206.362L222.852 211.543L232.974 213.416L233.937 208.235L223.815 206.362Z" fill="#8ED16F"/>
<path opacity="0.05" d="M223.815 206.362L222.852 211.543L232.974 213.416L233.937 208.235L223.815 206.362Z" fill="black"/>
<path d="M230.511 210.349C230.62 209.763 229.754 209.111 228.577 208.893C227.4 208.675 226.357 208.974 226.248 209.56C226.139 210.147 227.005 210.799 228.182 211.017C229.359 211.235 230.402 210.936 230.511 210.349Z" fill="#8ED16F"/>
<path opacity="0.1" d="M230.511 210.349C230.62 209.763 229.754 209.111 228.577 208.893C227.4 208.675 226.357 208.974 226.248 209.56C226.139 210.147 227.005 210.799 228.182 211.017C229.359 211.235 230.402 210.936 230.511 210.349Z" fill="black"/>
<path d="M224.76 209.472L223.797 214.653L233.919 216.526L234.882 211.345L224.76 209.472Z" fill="#8ED16F"/>
<path d="M231.462 213.46C231.571 212.873 230.705 212.221 229.528 212.003C228.351 211.786 227.308 212.084 227.199 212.671C227.09 213.257 227.956 213.909 229.133 214.127C230.31 214.345 231.353 214.046 231.462 213.46Z" fill="#8ED16F"/>
<path opacity="0.1" d="M231.462 213.46C231.571 212.873 230.705 212.221 229.528 212.003C228.351 211.786 227.308 212.084 227.199 212.671C227.09 213.257 227.956 213.909 229.133 214.127C230.31 214.345 231.353 214.046 231.462 213.46Z" fill="black"/>
<defs>
<linearGradient id="paint0_linear" x1="204.838" y1="200.432" x2="204.838" y2="100.044" gradientUnits="userSpaceOnUse">
<stop stop-color="#808080" stop-opacity="0.25"/>
<stop offset="0.54" stop-color="#808080" stop-opacity="0.12"/>
<stop offset="1" stop-color="#808080" stop-opacity="0.1"/>
</linearGradient>
<linearGradient id="paint1_linear" x1="-181990" y1="118361" x2="-181990" y2="32155" gradientUnits="userSpaceOnUse">
<stop stop-color="#808080" stop-opacity="0.25"/>
<stop offset="0.54" stop-color="#808080" stop-opacity="0.12"/>
<stop offset="1" stop-color="#808080" stop-opacity="0.1"/>
</linearGradient>
</defs>
</svg>
