<svg width="424" height="254" viewBox="0 0 424 254" fill="none" xmlns="http://www.w3.org/2000/svg">
<path opacity="0.1" d="M341.908 191.114C340.96 191.949 339.99 192.76 338.998 193.547C338.832 193.682 338.66 193.812 338.491 193.949C334.955 196.694 331.244 199.202 327.38 201.46L326.658 201.881C326.483 201.987 326.311 202.085 326.129 202.183C322.092 204.515 317.904 206.662 313.666 208.695L313.621 208.719L313.301 208.87C309.884 210.509 306.415 212.078 302.895 213.577L302.81 213.608C301.223 214.277 299.635 214.929 298.048 215.562C297.4 215.827 296.749 216.073 296.099 216.325C294.874 216.793 293.646 217.254 292.408 217.696L292.255 217.754L291.99 217.847L291.66 217.969C288.431 219.123 285.158 220.189 281.843 221.167L281.785 221.182C279.472 221.857 277.145 222.48 274.803 223.054L274.483 223.133C271.044 223.965 267.55 224.68 264.034 225.251L263.225 225.381C260.653 225.785 258.064 226.115 255.458 226.371C240.805 227.787 225.978 226.636 211.415 224.661C182.009 220.669 152.992 213.185 126.528 201.454C121.449 199.204 116.469 196.795 111.587 194.227C111.547 194.206 111.513 194.185 111.473 194.166C108.551 192.629 105.669 191.028 102.826 189.361C101.992 188.88 101.164 188.387 100.342 187.892C99.3295 187.282 98.3216 186.664 97.3181 186.039C95.9954 185.213 94.6727 184.366 93.3501 183.5L92.731 183.087L92.493 182.926C92.157 182.701 91.8263 182.476 91.493 182.248C79.0598 173.777 67.9731 163.51 62.7353 150.663C56.6827 135.838 60.5555 117.042 75.5468 108.279C80.6999 105.261 86.689 103.622 92.7416 102.27L93.3606 102.132C94.3844 101.907 95.4081 101.69 96.4266 101.473C99.9952 100.716 103.582 99.9639 107.135 99.1247C108.987 98.6879 110.82 98.2299 112.643 97.7348L113.389 97.5284C117.784 96.3482 122.083 94.833 126.248 92.9961H126.274C126.721 92.7976 127.163 92.5911 127.597 92.3793C127.877 92.2469 128.158 92.1146 128.438 91.969C132.935 89.7293 137.697 86.624 141.361 82.923C141.654 82.6265 141.94 82.3247 142.218 82.0229C142.432 81.7873 142.644 81.5491 142.847 81.3108C145.416 78.314 147.194 74.9863 147.532 71.4548C147.646 70.2681 147.593 69.0713 147.374 67.8995C146.958 65.6783 146.556 63.5049 146.26 61.3844C145.707 57.4002 145.519 53.5906 146.286 49.9188C147.067 46.1755 148.837 42.5725 152.215 39.078C152.724 38.5485 153.274 38.0191 153.863 37.4896C156.595 35.091 159.686 33.1364 163.024 31.6972C163.436 31.5208 163.852 31.3443 164.27 31.1678C173.55 27.4086 184.7 26.625 195.117 27.1438C204.85 27.6451 214.521 28.9915 224.02 31.1678C224.774 31.3372 225.528 31.5146 226.277 31.6972C234.358 33.6563 242.31 36.1169 250.085 39.0648C270.29 46.6705 289.361 57.2307 307.177 68.8843C307.352 68.9981 307.527 69.1119 307.706 69.2284C308.451 69.7138 309.19 70.2009 309.926 70.6897C311.349 71.6339 312.76 72.5843 314.158 73.5409L315.103 74.1842C315.568 74.5019 316.031 74.8205 316.492 75.1399L317.91 76.1221C317.976 76.1622 318.04 76.2074 318.1 76.2571L319.306 77.0936C320.005 77.5807 320.698 78.0705 321.394 78.5629L322.886 79.6218C323.195 79.8442 323.507 80.0639 323.817 80.2889L325.404 81.4485L325.758 81.7132C325.832 81.7662 325.907 81.8191 325.978 81.8773L326.023 81.9065C330.324 85.0647 334.522 88.3395 338.456 91.8101L338.964 92.2602L339.017 92.3078C339.445 92.689 339.874 93.0755 340.295 93.4647C345.432 98.1452 350.035 103.175 353.797 108.734C371.076 134.414 365.947 169.97 341.908 191.114Z" fill="#0049A0"/>
<path d="M274.699 120.647C274.699 120.647 276.239 112.573 281.186 112.531L284.805 119.98L282.371 121.635C282.371 121.635 277.144 121.802 274.699 120.647Z" fill="#65617D"/>
<path opacity="0.1" d="M284.794 119.97L282.371 121.635C282.371 121.635 278.683 121.751 276.048 121.105C275.585 120.998 275.133 120.844 274.699 120.647C274.699 120.647 274.699 120.602 274.726 120.518C274.725 120.507 274.725 120.496 274.726 120.486C274.954 119.473 275.267 118.481 275.662 117.521C275.813 117.158 275.988 116.785 276.173 116.412C276.898 115.016 277.916 113.648 279.31 112.97C279.825 112.717 280.385 112.571 280.958 112.539H281.106H281.178L281.26 112.703L282.482 115.22L284.794 119.97Z" fill="black"/>
<path d="M325.882 153.514C325.882 153.514 331.081 153.016 331.538 153.39C331.996 153.763 334.948 155.68 336.697 154.472C338.445 153.265 337.279 149.061 337.279 148.894C337.279 148.728 337.112 142.776 337.112 142.776L333.993 138.573L330.083 131.208L322.1 130.413L322.306 142.109L322.266 148.103L325.882 153.514Z" fill="#65617D"/>
<path opacity="0.1" d="M325.882 153.514C325.882 153.514 331.081 153.016 331.538 153.39C331.996 153.763 334.948 155.68 336.697 154.472C338.445 153.265 337.279 149.061 337.279 148.894C337.279 148.728 337.112 142.776 337.112 142.776L333.993 138.573L330.083 131.208L322.1 130.413L322.306 142.109L322.266 148.103L325.882 153.514Z" fill="black"/>
<path d="M280.137 112.314C280.137 112.314 279.727 117.391 276.553 117.471C276.553 117.471 275.659 116.941 274.452 116.028C271.675 113.95 267.27 109.952 268.487 106.233C270.233 100.906 278.717 110.733 278.717 110.733L279.37 111.464L280.137 112.314Z" fill="#A5636D"/>
<path opacity="0.1" d="M280.137 112.314C280.137 112.314 279.727 117.391 276.552 117.471C276.552 117.471 275.658 116.941 274.452 116.028L274.188 115.681C274.724 115.962 275.315 116.122 275.92 116.15C276.714 116.166 277.608 115.885 278.182 114.723C278.514 114.069 278.806 113.397 279.058 112.708C279.207 112.304 279.314 111.885 279.375 111.459L280.137 112.314Z" fill="black"/>
<path d="M278.763 121.51L278.052 120.594L275.671 117.51L274.436 115.935C274.971 116.215 275.562 116.374 276.166 116.401C276.959 116.42 277.853 116.136 278.427 114.974C278.76 114.321 279.053 113.648 279.303 112.96C279.697 111.837 279.689 111.26 279.549 111.064C279.409 110.868 280.433 111.819 280.925 112.287L280.943 112.303L281.171 112.52L281.258 112.69L282.462 115.101C282.462 115.101 282.462 115.136 282.462 115.202C282.573 115.967 282.977 120.822 278.763 121.51Z" fill="#E7EFFD"/>
<path d="M324.719 88.5062L318.563 95.0848C318.563 95.0848 310.664 91.908 311.495 90.8491C311.817 90.4308 311.759 89.1098 311.579 87.6511C311.288 85.3453 310.664 82.69 310.664 82.69C310.664 82.69 324.47 80.4424 323.304 82.7747C322.88 83.6245 322.952 84.6278 323.216 85.5385C323.556 86.6015 324.063 87.6033 324.719 88.5062Z" fill="#A5636D"/>
<path opacity="0.1" d="M323.304 82.7641C322.88 83.6139 322.677 83.696 322.941 84.6172C321.137 86.5551 318.841 88.6756 315.987 88.6756C314.457 88.6784 312.948 88.3249 311.579 87.6431C311.288 85.3373 310.664 82.682 310.664 82.682C310.664 82.682 324.47 80.4318 323.304 82.7641Z" fill="black"/>
<path d="M325.884 78.518C325.884 81.1453 324.841 83.665 322.984 85.5228C321.128 87.3806 318.61 88.4243 315.985 88.4243C313.36 88.4243 310.842 87.3806 308.985 85.5228C307.129 83.665 306.086 81.1453 306.086 78.518C306.086 78.4704 306.086 78.4227 306.086 78.3751C306.143 75.7735 307.22 73.2989 309.085 71.4859C310.951 69.6728 313.454 68.667 316.054 68.6858C318.654 68.7046 321.142 69.7464 322.981 71.5862C324.82 73.426 325.862 75.9159 325.881 78.518H325.884Z" fill="#A5636D"/>
<path opacity="0.1" d="M327.316 143.865C325.993 143.865 321.639 143.912 316.761 143.989H316.7L315.089 144.015H315.039C309.254 144.108 303.553 142.978 301.265 143.192C296.397 143.65 303.01 138.692 303.01 138.692C306.636 139.572 310.366 139.95 314.095 139.814L315.494 139.74C319.914 139.491 324.359 139.075 326.681 138.377C326.843 139.668 327.078 141.54 327.316 143.865Z" fill="black"/>
<path d="M327.316 143.616C325.993 143.616 321.639 143.661 316.761 143.74H316.7L315.089 143.766H315.039C309.254 143.859 303.553 142.729 301.265 142.943C296.397 143.399 303.01 138.443 303.01 138.443C306.636 139.323 310.366 139.7 314.095 139.563L315.494 139.491C319.914 139.242 324.359 138.824 326.681 138.128C326.843 139.42 327.078 141.297 327.316 143.616Z" fill="#5F5D7E"/>
<path opacity="0.1" d="M313.322 91.2621L305.669 94.8413L299.768 140.529C299.768 140.529 303.259 138.94 305.257 139.946C307.254 140.952 313.407 140.031 313.407 140.031C313.407 140.031 317.904 139.766 318.563 140.28C319.222 140.794 327.049 138.199 327.049 138.199C327.049 138.199 328.462 135.036 327.38 134.538C326.298 134.04 327.713 129.119 327.713 129.119L327.049 96.157L325.727 91.9213L322.15 89.7584L318.491 92.6705L316.746 92.922L313.322 91.2621Z" fill="black"/>
<path d="M313.322 90.7539L305.672 94.3331L299.768 140.031C299.768 140.031 303.259 138.443 305.257 139.449C307.254 140.455 313.407 139.531 313.407 139.531C313.407 139.531 317.904 139.282 318.563 139.78C319.222 140.277 327.049 137.699 327.049 137.699C327.049 137.699 328.462 134.538 327.38 134.038C326.298 133.537 327.713 128.627 327.713 128.627L327.049 95.6647L325.727 91.4289L322.15 89.2634L318.491 92.1755L316.746 92.4243L313.322 90.7539Z" fill="#E7EFFD"/>
<path opacity="0.1" d="M313.199 92.877C313.199 92.877 315.405 95.4978 315.363 96.0405C315.321 96.5832 315.239 97.8698 315.239 97.8698L313.588 101.243C313.588 101.243 312.673 105.446 312.673 106.32C312.673 107.194 311.218 114.768 311.218 114.768L309.472 126.416L307.266 141.691L309.512 145.561L312.173 143.314L315.704 116.099L316.453 110.731C316.453 110.731 317.247 101.076 317.247 100.078C317.247 99.0797 316.789 96.4562 316.789 96.4562C316.789 96.4562 317.331 93.9597 319.577 93.3773C321.823 92.7949 319.41 93.2502 319.41 93.2502L318.122 92.2098L316.998 92.6678C316.998 92.6678 313.866 91.7121 313.199 92.877Z" fill="black"/>
<path d="M312.949 92.6282C312.949 92.6282 315.153 95.249 315.113 95.7891C315.074 96.3291 314.986 97.621 314.986 97.621L313.322 100.994C313.322 100.994 312.407 105.195 312.407 106.069C312.407 106.942 310.952 114.519 310.952 114.519L309.204 126.167L307 141.44L309.246 145.31L311.907 143.062L315.439 115.851L316.187 110.482C316.187 110.482 316.981 100.827 316.981 99.8263C316.981 98.8256 316.523 96.2074 316.523 96.2074C316.523 96.2074 317.052 93.7083 319.309 93.1259C321.565 92.5435 319.145 93.0015 319.145 93.0015L317.854 91.9611L316.732 92.419C316.732 92.419 313.616 91.4607 312.949 92.6282Z" fill="#0049A0"/>
<path opacity="0.1" d="M311.494 88.2574C311.494 88.2574 311.161 88.5063 311.079 90.1715C310.997 91.8366 309.83 95.5826 309.83 95.5826C309.83 95.5826 314.155 92.5858 316.319 92.9194L311.494 88.2574Z" fill="black"/>
<path d="M311.494 87.7571C311.494 87.7571 311.161 88.0086 311.079 89.6711C310.997 91.3336 309.83 95.0822 309.83 95.0822C309.83 95.0822 314.155 92.0855 316.319 92.419L311.494 87.7571Z" fill="#E7EFFD"/>
<path opacity="0.1" d="M323.305 86.9258L316.496 92.9193C316.496 92.9193 322.237 96.3317 322.985 97.1551C323.734 97.9784 324.482 88.9986 324.482 88.9986L323.305 86.9258Z" fill="black"/>
<path d="M323.556 86.4254L316.736 92.419C316.736 92.419 322.474 95.8314 323.223 96.6547C323.971 97.478 324.72 88.4956 324.72 88.4956L323.556 86.4254Z" fill="#E7EFFD"/>
<path opacity="0.1" d="M311.735 88.2575C311.735 88.2575 310.986 87.8816 310.28 88.9643C309.573 90.0471 308.243 90.5527 308.243 90.5527C308.243 90.5527 300.672 91.7599 300.381 92.7579L296.847 92.9644C296.847 92.9644 295.598 93.1153 295.482 95.7626C295.365 98.41 294.688 98.6323 294.688 98.6323C294.688 98.6323 293.23 101.213 293.365 102.545C293.5 103.877 292.241 104.544 292.241 104.544L297.45 118.056C297.45 118.056 297.616 123.634 296.656 125.672C295.696 127.711 293.91 136.743 293.91 136.743C293.91 136.743 294.659 136.576 294.617 137.077C294.574 137.577 293.701 143.028 293.701 143.028C293.701 143.028 293.453 145.191 293.037 145.94C292.622 146.689 292.58 150.602 292.58 150.602L291.895 153.432C291.895 153.432 293.482 156.969 295.889 156.469C298.296 155.968 302.666 146.523 302.666 146.523L305.452 136.328L307.616 126.255L308.24 119.43L309.238 104.321L310.692 94.3331C310.692 94.3331 312.325 88.9643 311.735 88.2575Z" fill="black"/>
<path d="M311.494 87.757C311.494 87.757 310.745 87.3837 310.039 88.4665C309.333 89.5492 307.999 90.0549 307.999 90.0549C307.999 90.0549 300.431 91.262 300.14 92.2601L296.606 92.4692C296.606 92.4692 295.357 92.636 295.233 95.2569C295.108 97.8777 294.439 98.1292 294.439 98.1292C294.439 98.1292 292.984 100.71 293.116 102.042C293.249 103.374 291.995 104.038 291.995 104.038L297.185 117.555C297.185 117.555 297.352 123.133 296.391 125.172C295.431 127.21 293.648 136.243 293.648 136.243C293.648 136.243 294.397 136.076 294.355 136.576C294.312 137.077 293.439 142.528 293.439 142.528C293.439 142.528 293.191 144.69 292.775 145.44C292.36 146.189 292.318 150.102 292.318 150.102L291.656 152.945C291.656 152.945 293.243 156.482 295.648 155.984C298.053 155.486 302.428 146.035 302.428 146.035L305.214 135.84L307.378 125.781L307.999 118.956L308.999 103.85L310.454 93.8617C310.454 93.8617 312.076 88.4665 311.494 87.757Z" fill="#65617D"/>
<path opacity="0.1" d="M284.793 119.97L282.37 121.635C282.37 121.635 278.683 121.751 276.048 121.105L274.704 120.51L274.439 120.391L274.717 120.478C276.109 120.891 277.196 120.883 278.045 120.597C281.46 119.448 281.082 113.807 280.955 112.531C280.955 112.404 280.934 112.322 280.929 112.29C280.928 112.285 280.928 112.279 280.929 112.274L280.95 112.306C280.995 112.383 281.047 112.457 281.106 112.525C281.153 112.582 281.205 112.636 281.259 112.687L282.463 115.099C282.463 115.099 282.463 115.133 282.463 115.199L284.793 119.97Z" fill="black"/>
<path d="M293.154 103.704L291.99 104.038L291.823 106.421C291.823 106.421 290.451 106.214 290.078 107.837C289.705 109.46 289.038 110.22 289.038 110.22C289.038 110.22 286.75 112.134 286.625 113.756L285.21 114.63C285.21 114.63 281.925 113.881 281.176 112.549C281.176 112.549 282.673 123.287 274.689 120.666C274.689 120.666 283.631 124.579 284.046 125.119C284.461 125.659 287.207 127.237 289.702 125.913C292.196 124.589 292.739 122.5 292.739 122.5C292.739 122.5 295.151 119.13 295.233 118.63C295.315 118.13 297.188 117.547 297.188 117.547L300.765 108.893L293.154 103.704Z" fill="#65617D"/>
<path opacity="0.1" d="M322.349 91.9186L323.555 86.4254C323.555 86.4254 324.084 88.215 324.637 88.6306C325.19 89.0463 326.425 90.0046 326.425 90.0046C326.425 90.0046 328.214 90.8385 328.835 90.8385C329.457 90.8385 332.83 91.7121 333.245 92.1622C333.66 92.6122 335.324 92.2866 335.324 92.2866C335.324 92.2866 336.697 92.7446 337.904 93.0358C339.11 93.327 339.692 95.3257 339.44 96.1146C339.34 96.508 339.341 96.9203 339.443 97.3133C339.544 97.7063 339.744 98.0671 340.022 98.3622C340.522 98.8626 340.771 100.48 340.771 100.48C341.384 100.68 341.892 101.114 342.186 101.687C342.602 102.603 342.477 104.599 342.477 104.599L336.282 113.336C336.282 113.336 336.364 116.706 336.115 117.455C335.867 118.204 336.988 130.94 336.988 130.94L338.277 152.831C338.277 152.831 336.573 154.287 336.197 154.454C335.822 154.621 335.449 146.713 335.449 146.422C335.449 146.131 325.843 132.02 325.843 132.02C325.843 132.02 324.552 129.94 324.552 129.482C324.552 129.024 323.346 124.822 323.346 124.822L321.523 116.724L322.349 91.9186Z" fill="black"/>
<path d="M342.993 104.136C342.993 104.422 342.977 104.613 342.977 104.613L336.784 113.349C336.784 113.349 336.869 116.722 336.62 117.471C336.474 117.905 336.792 122.384 337.086 126.061C337.295 128.709 337.493 130.954 337.493 130.954L338.038 140.24L338.779 152.847C338.779 152.847 337.075 154.303 336.702 154.47C336.329 154.637 335.953 146.729 335.953 146.435C335.953 146.141 326.34 132.031 326.34 132.031C326.34 132.031 325.052 129.948 325.052 129.49C325.052 129.032 323.846 124.828 323.846 124.828L322.018 116.714L322.848 91.9081L323.555 86.4149C323.555 86.4149 324.594 88.2072 325.142 88.6201C325.689 89.0331 326.927 89.9941 326.927 89.9941C326.927 89.9941 328.716 90.828 329.34 90.828C329.964 90.828 333.332 91.7016 333.75 92.1517C334.168 92.6017 335.829 92.2761 335.829 92.2761C335.829 92.2761 337.199 92.7341 338.406 93.0253C339.612 93.3165 340.194 95.3152 339.945 96.1041C339.844 96.4974 339.845 96.91 339.946 97.3031C340.048 97.6962 340.248 98.057 340.527 98.3517C341.024 98.8494 341.276 100.47 341.276 100.47C341.888 100.67 342.396 101.104 342.691 101.677C342.974 102.333 343.001 103.488 342.993 104.136Z" fill="#65617D"/>
<path opacity="0.1" d="M298.05 215.562C297.402 215.827 296.751 216.073 296.1 216.325C294.061 215.729 292.156 215.027 292.156 215.027C294.129 215.098 296.097 215.276 298.05 215.562Z" fill="black"/>
<path opacity="0.1" d="M317.732 193.343C317.732 193.343 322.682 194.508 322.973 195.299L317.732 193.343Z" fill="black"/>
<path opacity="0.1" d="M298.644 196.922C298.644 196.922 296.064 197.672 298.562 199.17C301.059 200.668 298.644 196.922 298.644 196.922Z" fill="black"/>
<path opacity="0.1" d="M310.078 156.916C310.369 156.916 314.903 155.417 316.483 156.085C318.062 156.752 320.019 156.749 320.019 156.749L310.078 156.916Z" fill="black"/>
<path opacity="0.1" d="M310.676 161.681L310.632 162.094L306.753 172.244C306.753 172.244 306.129 175.323 305.587 177.07C305.247 178.258 304.976 179.464 304.777 180.684L308.216 159.383L310.676 161.681Z" fill="black"/>
<path d="M316.699 143.74L315.088 143.767H315.038L314.094 139.571C314.557 139.549 315.025 139.526 315.493 139.496L316.699 143.74Z" fill="#3F3D56"/>
<path d="M336.323 138.649L335.289 139.504L331.842 142.356C331.842 142.356 322.485 147.351 319.909 142.604C317.636 138.424 328.244 135.441 330.8 134.789C331.146 134.702 331.345 134.657 331.345 134.657L336.323 138.649Z" fill="#A5636D"/>
<path opacity="0.1" d="M296.357 97.7454C296.357 97.7454 298.185 98.5793 298.601 99.7441C299.016 100.909 296.357 97.7454 296.357 97.7454Z" fill="black"/>
<path opacity="0.1" d="M290.7 110.233C290.7 110.233 288.039 113.478 289.113 114.733C290.187 115.988 290.7 110.233 290.7 110.233Z" fill="black"/>
<path opacity="0.1" d="M338.276 99.5774C338.276 99.5774 335.782 99.8262 335.697 101.992L338.276 99.5774Z" fill="black"/>
<path opacity="0.1" d="M315.152 133.704C315.417 133.455 321.141 124.968 322.472 125.714L315.152 133.704Z" fill="black"/>
<path opacity="0.1" d="M325.884 78.5179C325.885 80.1493 325.483 81.7556 324.712 83.1931H324.638C324.011 83.0607 323.686 82.3301 323.207 81.8694C322.912 81.5891 322.537 81.408 322.134 81.3515C321.732 81.295 321.321 81.366 320.961 81.5544C320.596 81.7722 320.3 82.0877 320.105 82.4652C319.91 82.8427 319.824 83.2672 319.858 83.6908C319.54 82.3671 319.641 80.9402 319.329 79.606C319.016 78.2717 318.088 76.919 316.813 76.8951C316.263 76.8951 315.622 77.099 315.226 76.686C314.985 76.4371 314.937 76.0453 314.757 75.7435C313.845 74.269 311.072 75.0155 309.94 75.7727C308.808 76.5298 307.493 77.737 306.086 78.3856C306.143 75.784 307.22 73.3094 309.085 71.4964C310.951 69.6833 313.454 68.6775 316.054 68.6963C318.654 68.7151 321.142 69.7569 322.981 71.5967C324.82 73.4365 325.862 75.9264 325.881 78.5285L325.884 78.5179Z" fill="black"/>
<path d="M314.76 75.484C314.94 75.7858 314.988 76.1776 315.229 76.4265C315.625 76.8368 316.266 76.625 316.816 76.6356C318.091 76.6568 319.022 78.0096 319.332 79.3438C319.641 80.6781 319.541 82.0971 319.861 83.4287C319.828 83.0055 319.914 82.5815 320.109 82.2045C320.303 81.8276 320.6 81.5125 320.964 81.2949C321.324 81.1063 321.734 81.0352 322.136 81.0917C322.538 81.1482 322.913 81.3295 323.207 81.61C323.686 82.0653 324.001 82.796 324.641 82.9336C325.281 83.0713 325.874 82.4624 326.101 81.8006C326.329 81.1387 326.31 80.4134 326.458 79.7277C326.741 78.4279 327.588 77.3636 328.045 76.13C328.603 74.628 328.588 72.9729 328.003 71.4813C327.691 70.6871 327.228 69.9961 326.911 69.2152C326.434 68.0292 326.307 66.6923 325.725 65.5618C324.747 63.669 322.44 62.7239 320.546 63.444C319.641 63.7855 318.855 64.4447 317.938 64.7385C316.71 65.133 315.395 64.8365 314.123 64.6591C312.85 64.4817 311.443 64.4659 310.419 65.3024C309.242 66.266 308.919 68.0768 307.814 69.1357C307.348 69.5805 306.771 69.8638 306.282 70.2741C305.793 70.6844 305.369 71.296 305.425 71.9631C305.499 72.8261 306.343 73.6097 306.031 74.4066C305.919 74.6384 305.761 74.8454 305.568 75.0155C304.642 75.9882 303.953 77.1613 303.555 78.4437C305.782 79.14 308.189 76.6833 309.933 75.5317C311.078 74.756 313.85 74.0068 314.76 75.484Z" fill="#4C3E42"/>
<path opacity="0.1" d="M336.322 138.649L335.288 139.504C334.375 137.982 330.627 134.943 330.627 134.943L330.788 134.787C331.135 134.699 331.333 134.654 331.333 134.654L336.322 138.649Z" fill="black"/>
<path d="M337.32 137.116C337.32 137.116 336.947 138.043 336.563 138.845C336.18 139.647 335.77 140.373 335.738 139.782C335.696 138.615 330.873 134.702 330.873 134.702L331.526 134.067L332.286 133.328L337.32 137.116Z" fill="#E7EFFD"/>
<path opacity="0.1" d="M337.488 130.956L338.033 140.243C336.742 138.234 333.194 133.079 330.914 133.246L336.446 126.893C336.677 126.636 336.889 126.364 337.08 126.077C337.289 128.719 337.488 130.956 337.488 130.956Z" fill="black"/>
<path opacity="0.1" d="M337.322 137.116C337.322 137.116 336.949 138.043 336.565 138.845C335.116 136.854 333.126 134.506 331.539 134.067L332.298 133.328L337.322 137.116Z" fill="black"/>
<path d="M341.48 103.44L342.978 104.605C342.978 104.605 345.472 104.647 345.721 106.723C345.969 108.798 348.258 109.762 348.258 109.762C348.258 109.762 349.964 111.467 349.964 112.258C349.964 113.05 351.252 114.463 351.252 114.588C351.252 114.712 352.501 117.251 352.334 117.709C352.168 118.167 353.657 120.166 353.207 120.915C352.832 121.587 352.498 122.282 352.21 122.996C352.21 122.996 350.255 126.742 349.255 127.449C348.255 128.155 343.684 134.107 343.684 134.107C343.684 134.107 338.777 139.767 338.777 141.519C338.777 141.519 333.994 133.527 331.166 133.736L336.697 127.369C336.697 127.369 337.652 126.329 337.695 125.704C337.737 125.079 340.356 122.207 341.605 122.082C341.605 122.082 341.811 120.375 341.271 120.335C340.732 120.295 340.274 118.961 340.274 118.961C340.274 118.961 336.613 114.633 336.571 111.885C336.528 109.137 341.48 103.44 341.48 103.44Z" fill="#65617D"/>
<path opacity="0.1" d="M343.685 107.411C343.685 107.411 340.19 109.989 340.939 110.823C341.688 111.657 343.685 107.411 343.685 107.411Z" fill="black"/>
<path opacity="0.1" d="M343.852 118.056C343.852 118.056 350.338 115.975 350.994 118.056H343.852Z" fill="black"/>
<path opacity="0.1" d="M298.082 106.903C298.082 106.903 298.082 116.391 297.27 117.328C296.458 118.265 298.082 106.903 298.082 106.903Z" fill="black"/>
<path opacity="0.1" d="M335.572 109.96L336.779 113.351C336.779 113.351 337.257 110.024 335.572 109.96Z" fill="black"/>
<g opacity="0.1">
<path opacity="0.1" d="M306.179 73.5832C306.483 72.8022 305.687 72.0371 305.581 71.2006C305.477 71.4367 305.431 71.6948 305.449 71.9524C305.502 72.5851 305.978 73.1728 306.092 73.7579C306.126 73.7025 306.155 73.644 306.179 73.5832Z" fill="black"/>
<path opacity="0.1" d="M319.97 82.5471C319.671 81.2234 319.759 79.8441 319.457 78.5337C319.156 77.2233 318.216 75.844 316.941 75.8228C316.391 75.8228 315.751 76.024 315.354 75.6137C315.113 75.3649 315.066 74.9731 314.886 74.6713C313.976 73.1967 311.204 73.9432 310.069 74.7004C308.368 75.8308 306.032 78.1975 303.849 77.6627C303.746 77.9142 303.648 78.1684 303.566 78.4305C305.794 79.1267 308.201 76.67 309.944 75.5184C311.079 74.7639 313.849 74.0147 314.762 75.4919C314.941 75.7937 314.989 76.1855 315.23 76.4344C315.627 76.8447 316.267 76.6329 316.817 76.6435C318.092 76.6647 319.023 78.0175 319.333 79.3517C319.642 80.686 319.542 82.105 319.862 83.4366C319.838 83.1358 319.875 82.8333 319.97 82.5471Z" fill="black"/>
<path opacity="0.1" d="M326.224 80.9852C325.996 81.647 325.404 82.2532 324.764 82.1182C324.123 81.9832 323.811 81.2552 323.333 80.7946C323.037 80.515 322.662 80.3346 322.26 80.2786C321.857 80.2226 321.447 80.2938 321.087 80.4822C320.74 80.6889 320.455 80.9848 320.261 81.339C320.067 81.6933 319.971 82.093 319.984 82.4968C320.15 81.9884 320.499 81.5595 320.962 81.2923C321.322 81.1036 321.732 81.0326 322.135 81.0891C322.537 81.1456 322.911 81.3268 323.206 81.6073C323.684 82.0626 323.999 82.7933 324.639 82.931C325.28 83.0686 325.872 82.4597 326.1 81.7979C326.217 81.4081 326.293 81.007 326.327 80.6013C326.3 80.731 326.265 80.8591 326.224 80.9852Z" fill="black"/>
<path opacity="0.1" d="M328.18 75.3173C327.711 76.5509 326.857 77.6152 326.592 78.9123C326.534 79.1771 326.502 79.4418 326.471 79.7065C326.754 78.4146 327.598 77.3531 328.058 76.1221C328.266 75.5677 328.396 74.9866 328.442 74.396C328.379 74.7095 328.291 75.0176 328.18 75.3173Z" fill="black"/>
</g>
<path d="M268.078 105.452C268.135 105.452 268.181 105.406 268.181 105.349C268.181 105.292 268.135 105.245 268.078 105.245C268.021 105.245 267.975 105.292 267.975 105.349C267.975 105.406 268.021 105.452 268.078 105.452Z" fill="#E6E8EC"/>
<path d="M184.943 163.436C184.943 163.436 187.853 161.347 190.877 162.642C190.877 162.642 190.03 164.437 186.274 164.413L184.943 163.436Z" fill="#0049A0"/>
<path d="M184.581 163.558C184.581 163.558 183.804 167.061 186.169 169.332C186.169 169.332 187.491 167.849 185.991 164.4L184.581 163.558Z" fill="#0049A0"/>
<path d="M180.723 160.371C180.723 160.371 180.831 157.414 187.521 158.136C187.521 158.136 187.627 160.04 185.326 161.03C183.024 162.02 181.926 161.303 180.723 160.371Z" fill="#0049A0"/>
<path d="M180.314 160.357C180.314 160.357 177.537 161.369 180.283 167.518C180.283 167.518 182.134 167.031 182.357 164.535C182.579 162.038 181.568 161.226 180.314 160.357Z" fill="#0049A0"/>
<path d="M176.388 156.328C176.388 156.328 175.822 151.491 182.642 151.727C182.642 151.727 183.293 156.1 177.634 157.448L176.388 156.328Z" fill="#0049A0"/>
<path d="M171.684 151.023C171.684 151.023 172.406 145.487 179.265 146.866C179.265 146.866 179.472 151.632 172.842 152.291L171.684 151.023Z" fill="#0049A0"/>
<path d="M168.186 145.485C168.186 145.485 169.54 140.058 176.336 141.416C176.336 141.416 174.918 146.292 168.664 146.446L168.186 145.485Z" fill="#0049A0"/>
<path d="M164.855 140.074C164.855 140.074 166.178 134.456 172.731 135.878C172.731 135.878 170.763 141.241 165.324 141.006L164.855 140.074Z" fill="#0049A0"/>
<path d="M162.641 134.898C162.641 134.898 163.553 128.06 169.68 129.325C169.68 129.325 168.156 135.578 163.13 135.87L162.641 134.898Z" fill="#0049A0"/>
<path d="M160.514 128.621C160.514 128.621 161.659 121.714 167.862 123.472C167.862 123.472 165.707 130.04 160.985 129.561L160.514 128.621Z" fill="#0049A0"/>
<path d="M159.117 122.765C159.117 122.765 161.091 115.827 165.842 115.829C165.842 115.829 163.831 123.155 159.567 124.123L159.117 122.765Z" fill="#0049A0"/>
<path d="M158.158 117.023C158.158 117.023 160.274 108.681 164.158 109.169C164.158 109.169 162.716 115.538 158.338 118.302L158.158 117.023Z" fill="#0049A0"/>
<path d="M157.475 110.153C157.475 110.153 159.49 103.191 163.294 102.773C163.294 102.773 162.001 109.595 157.631 111.935L157.475 110.153Z" fill="#0049A0"/>
<path d="M156.768 103.76C156.768 103.76 159.347 96.771 161.86 96.5195C161.86 96.5195 160.884 103.342 157.061 104.88L156.768 103.76Z" fill="#0049A0"/>
<path d="M156.223 97.8038C156.223 97.8038 157.686 90.2615 160.175 89.5468C160.175 89.5468 160.066 95.6727 156.498 98.3518L156.223 97.8038Z" fill="#0049A0"/>
<path d="M154.977 90.0285C154.977 90.0285 156.588 84.0006 158.59 83.0157C158.59 83.0157 158.455 90.0523 155.506 91.466L154.977 90.0285Z" fill="#0049A0"/>
<path d="M153.997 84.927L153.225 74.4357C153.225 74.4357 157.328 82.2188 154.338 86.7616L153.997 84.927Z" fill="#0049A0"/>
<path d="M150.655 74.5998C150.655 74.5998 147.623 67.0364 146.951 66.634C146.951 66.634 152.506 71.3992 152.242 77.8243L150.655 74.5998Z" fill="#0049A0"/>
<path d="M176.2 156.299C176.2 156.299 171.354 155.854 171.758 162.668C171.758 162.668 176.144 163.198 177.351 157.517L176.2 156.299Z" fill="#0049A0"/>
<path d="M171.449 150.848C171.449 150.848 165.876 151.044 166.598 157.996C166.598 157.996 171.307 158.652 172.6 152.114L171.449 150.848Z" fill="#0049A0"/>
<path d="M168.147 145.94C168.147 145.94 162.997 143.759 159.994 150.009C159.994 150.009 164.743 151.809 168.631 146.912L168.147 145.94Z" fill="#0049A0"/>
<path d="M164.744 140.129C164.744 140.129 159.466 137.802 156.654 143.904C156.654 143.904 162.122 145.556 165.207 141.061L164.744 140.129Z" fill="#0049A0"/>
<path d="M162.714 135.044C162.714 135.044 157.547 130.469 153.754 135.441C153.754 135.441 158.997 139.166 162.984 136.095L162.714 135.044Z" fill="#0049A0"/>
<path d="M160.79 128.449C160.79 128.449 155.587 123.766 151.836 129.016C151.836 129.016 157.619 132.799 161.007 129.463L160.79 128.449Z" fill="#0049A0"/>
<path d="M159.625 122.546C159.625 122.546 155.528 116.61 151.033 118.14C151.033 118.14 155.287 124.43 159.636 123.965L159.625 122.546Z" fill="#0049A0"/>
<path d="M158.27 116.981C158.27 116.981 154.083 109.462 150.453 110.934C150.453 110.934 153.485 116.719 158.421 118.265L158.27 116.981Z" fill="#0049A0"/>
<path d="M157.725 109.751C157.725 109.751 153.493 103.871 149.773 104.753C149.773 104.753 153.276 110.744 158.18 111.482L157.725 109.751Z" fill="#0049A0"/>
<path d="M157.185 103.609C157.185 103.609 153.825 96.9592 151.299 96.991C151.299 96.991 153.047 103.657 157.018 104.75L157.185 103.609Z" fill="#0049A0"/>
<path d="M156.34 97.6501C156.34 97.6501 152.637 90.9259 150.039 91.0133C150.039 91.0133 152.028 96.8083 156.248 98.259L156.34 97.6501Z" fill="#0049A0"/>
<path d="M155.545 90.4256C155.545 90.4256 152.748 84.8503 150.59 84.2917C150.59 84.2917 152.143 91.1563 155.32 91.9425L155.545 90.4256Z" fill="#0049A0"/>
<path d="M153.68 84.7392L147.58 76.1725C147.58 76.1725 149.39 84.7816 154.585 86.3779L153.68 84.7392Z" fill="#0049A0"/>
<path d="M149.359 75.3569C149.359 75.3569 142.481 70.9862 142.217 70.2502C142.217 70.2502 145.883 76.6038 152.243 77.5013L149.359 75.3569Z" fill="#0049A0"/>
<path d="M148.879 73.292C148.879 73.292 140.906 66.1893 138.943 66.2713C138.943 66.2713 145.292 66.319 149.049 72.8897L148.879 73.292Z" fill="#0049A0"/>
<path d="M155.512 91.5268L155.231 91.5744C153.353 80.31 150.999 73.6997 148.578 72.9637L148.66 72.699C151.218 73.472 153.586 79.9871 155.512 91.5268Z" fill="#444053"/>
<path d="M158.673 118.514L158.252 118.567C158.123 117.508 158.014 116.433 157.924 115.358C157.162 106.002 156.207 97.4225 155.139 91.0027L155.371 90.6903C156.43 97.1207 157.586 105.955 158.35 115.31C158.435 116.393 158.546 117.471 158.673 118.514Z" fill="#444053"/>
<path d="M193.049 168.524C192.973 168.493 185.394 165.451 177.354 157.803C172.647 153.328 168.679 148.134 165.596 142.416C161.741 135.269 159.218 126.395 158.154 117.722L158.604 117.913C160.985 137.376 170.386 150.385 177.727 157.374C185.687 164.953 193.182 167.963 193.256 167.998L193.049 168.524Z" fill="#444053"/>
<g opacity="0.7">
<path opacity="0.7" d="M198.316 159.889C198.316 159.889 201.718 158.764 204.216 160.892C204.216 160.892 202.874 162.356 199.295 161.212L198.316 159.889Z" fill="#0049A0"/>
<path opacity="0.7" d="M197.932 159.894C197.932 159.894 196.149 163.008 197.736 165.883C197.736 165.883 199.437 164.858 199.032 161.117L197.932 159.894Z" fill="#0049A0"/>
<path opacity="0.7" d="M195.195 155.706C195.195 155.706 196.179 152.913 202.338 155.598C202.338 155.598 201.872 157.451 199.38 157.716C196.888 157.98 196.068 156.953 195.195 155.706Z" fill="#0049A0"/>
<path opacity="0.7" d="M194.812 155.592C194.812 155.592 191.858 155.733 192.654 162.42C192.654 162.42 194.553 162.504 195.519 160.191C196.484 157.877 195.751 156.773 194.812 155.592Z" fill="#0049A0"/>
<path opacity="0.7" d="M192.258 150.562C192.258 150.562 193.157 145.776 199.596 148.032C199.596 148.032 198.916 152.4 193.115 152.003L192.258 150.562Z" fill="#0049A0"/>
<path opacity="0.7" d="M189.346 144.09C189.346 144.09 191.682 139.02 197.811 142.379C197.811 142.379 196.597 146.978 190.068 145.644L189.346 144.09Z" fill="#0049A0"/>
<path opacity="0.7" d="M187.648 137.76C187.648 137.76 190.558 132.981 196.643 136.301C196.643 136.301 193.839 140.537 187.823 138.832L187.648 137.76Z" fill="#0049A0"/>
<path opacity="0.7" d="M186.082 131.602C186.082 131.602 189.008 126.631 194.851 129.94C194.851 129.94 191.378 134.475 186.249 132.629L186.082 131.602Z" fill="#0049A0"/>
<path opacity="0.7" d="M185.508 126C185.508 126 188.418 119.74 193.878 122.776C193.878 122.776 190.563 128.29 185.677 127.073L185.508 126Z" fill="#0049A0"/>
<path opacity="0.7" d="M185.34 119.377C185.34 119.377 188.488 113.124 193.887 116.65C193.887 116.65 189.874 122.278 185.506 120.401L185.34 119.377Z" fill="#0049A0"/>
<path opacity="0.7" d="M185.754 113.365C185.754 113.365 189.701 107.329 194.235 108.745C194.235 108.745 190.137 115.141 185.77 114.797L185.754 113.365Z" fill="#0049A0"/>
<path opacity="0.7" d="M186.542 107.602C186.542 107.602 191.039 100.266 194.605 101.891C194.605 101.891 191.332 107.541 186.338 108.878L186.542 107.602Z" fill="#0049A0"/>
<path opacity="0.7" d="M187.933 100.838C187.933 100.838 191.928 94.7938 195.679 95.5244C195.679 95.5244 192.417 101.653 187.547 102.587L187.933 100.838Z" fill="#0049A0"/>
<path opacity="0.7" d="M189.154 94.5265C189.154 94.5265 193.696 88.6203 196.169 89.1286C196.169 89.1286 193.209 95.3498 189.104 95.6833L189.154 94.5265Z" fill="#0049A0"/>
<path opacity="0.7" d="M190.406 88.6758C190.406 88.6758 194.044 81.9119 196.636 81.9701C196.636 81.9701 194.71 87.7942 190.504 89.282L190.406 88.6758Z" fill="#0049A0"/>
<path opacity="0.7" d="M191.529 80.882C191.529 80.882 194.857 75.6085 197.063 75.2617C197.063 75.2617 194.841 81.9409 191.606 82.4095L191.529 80.882Z" fill="#0049A0"/>
<path opacity="0.7" d="M192.106 75.717L194.487 65.4745C194.487 65.4745 196.093 74.1233 191.895 77.5807L192.106 75.717Z" fill="#0049A0"/>
<path opacity="0.7" d="M191.99 64.8657C191.99 64.8657 191.345 56.7411 190.818 56.156C190.818 56.156 194.715 62.3666 192.538 68.4131L191.99 64.8657Z" fill="#0049A0"/>
<path opacity="0.7" d="M192.089 150.472C192.089 150.472 187.592 148.601 185.957 155.237C185.957 155.237 189.981 157.061 192.835 151.984L192.089 150.472Z" fill="#0049A0"/>
<path opacity="0.7" d="M189.173 143.851C189.173 143.851 183.795 142.379 182.414 149.241C182.414 149.241 186.713 151.272 189.895 145.413L189.173 143.851Z" fill="#0049A0"/>
<path opacity="0.7" d="M187.481 138.183C187.481 138.183 183.214 134.567 178.486 139.642C178.486 139.642 182.483 142.774 187.653 139.256L187.481 138.183Z" fill="#0049A0"/>
<path opacity="0.7" d="M185.959 131.623C185.959 131.623 181.615 127.83 177.115 132.825C177.115 132.825 181.842 136.029 186.125 132.653L185.959 131.623Z" fill="#0049A0"/>
<path opacity="0.7" d="M185.531 126.162C185.531 126.162 181.957 120.256 176.859 123.872C176.859 123.872 180.756 128.992 185.475 127.245L185.531 126.162Z" fill="#0049A0"/>
<path opacity="0.7" d="M185.659 119.292C185.659 119.292 182.083 113.275 176.93 117.174C176.93 117.174 181.326 122.509 185.554 120.333L185.659 119.292Z" fill="#0049A0"/>
<path opacity="0.7" d="M186.298 113.309C186.298 113.309 184.153 106.426 179.404 106.545C179.404 106.545 181.597 113.82 185.885 114.681L186.298 113.309Z" fill="#0049A0"/>
<path opacity="0.7" d="M186.661 107.594C186.661 107.594 184.896 99.1699 180.994 99.4955C180.994 99.4955 182.169 105.921 186.422 108.864L186.661 107.594Z" fill="#0049A0"/>
<path opacity="0.7" d="M188.29 100.528C188.29 100.528 185.996 93.6449 182.182 93.3801C182.182 93.3801 183.748 100.147 188.208 102.31L188.29 100.528Z" fill="#0049A0"/>
<path opacity="0.7" d="M189.6 94.5054C189.6 94.5054 188.37 87.1564 185.947 86.439C185.947 86.439 185.635 93.322 189.103 95.5511L189.6 94.5054Z" fill="#0049A0"/>
<path opacity="0.7" d="M190.577 88.5646C190.577 88.5646 189.035 81.0409 186.535 80.3579C186.535 80.3579 186.71 86.4812 190.31 89.1232L190.577 88.5646Z" fill="#0049A0"/>
<path opacity="0.7" d="M191.955 81.4325C191.955 81.4325 190.942 75.2775 189.045 74.0968C189.045 74.0968 188.487 81.1149 191.286 82.8118L191.955 81.4325Z" fill="#0049A0"/>
<path opacity="0.7" d="M191.864 75.447L188.587 65.4534C188.587 65.4534 187.753 74.2134 192.24 77.2843L191.864 75.447Z" fill="#0049A0"/>
<path opacity="0.7" d="M190.529 65.2047C190.529 65.2047 185.262 58.9834 185.238 58.1998C185.238 58.1998 186.849 65.3476 192.645 68.1061L190.529 65.2047Z" fill="#0049A0"/>
<path opacity="0.7" d="M190.68 63.0894C190.68 63.0894 185.181 53.9323 183.273 53.4266C183.273 53.4266 189.326 55.3645 190.945 62.7558L190.68 63.0894Z" fill="#0049A0"/>
<path opacity="0.7" d="M191.593 82.473L191.312 82.4333C192.868 71.1213 192.577 64.1059 190.492 62.6843L190.654 62.4513C192.862 63.9576 193.188 70.8777 191.593 82.473Z" fill="#444053"/>
<path opacity="0.7" d="M186.588 109.179L186.17 109.103C186.36 108.057 186.575 106.985 186.813 105.942C188.866 96.7845 190.516 88.3078 191.392 81.851L191.707 81.6233C190.818 88.0801 189.284 96.856 187.225 106.024C186.993 107.083 186.776 108.139 186.588 109.179Z" fill="#444053"/>
<path opacity="0.7" d="M204.539 167.158C204.476 167.108 198.143 161.943 192.744 152.251C189.575 146.578 187.326 140.438 186.08 134.059C184.524 126.085 184.757 116.851 186.315 108.269L186.688 108.584C183.183 127.877 188.276 143.094 193.214 151.952C198.561 161.557 204.82 166.666 204.883 166.716L204.539 167.158Z" fill="#444053"/>
</g>
<path d="M141.321 142.771C140.699 143.028 140.053 143.221 139.392 143.348C138.238 143.564 137.067 143.675 135.893 143.679C135.927 143.989 135.953 144.277 135.98 144.54C136.043 145.26 136.08 145.755 136.08 145.755L134.84 145.67L124.607 144.971L118.624 144.084C118.912 144.472 119.226 144.841 119.563 145.188C119.911 145.557 120.315 145.871 120.758 146.117C120.758 146.117 126.158 150.493 127.091 150.533C127.224 150.533 127.266 150.665 127.245 150.875C129.517 150.875 136.583 151.206 134.623 155.142C134.298 155.844 133.727 156.401 133.017 156.707C130.75 157.668 127.33 155.939 125.568 154.877C125.396 155.214 125.232 155.526 125.086 155.793C124.787 156.357 124.578 156.731 124.578 156.731L124.401 156.603L115.322 150.133L113.333 148.444C112.749 148.418 112.17 148.317 111.611 148.145L111.346 148.061C111.335 148.084 111.325 148.107 111.317 148.132C111.245 148.339 111.191 148.551 111.156 148.767C111.156 148.799 111.156 148.831 111.156 148.863C111.119 149.109 111.094 149.358 111.082 149.607C111.082 149.776 111.068 149.956 111.068 150.136C111.053 153.742 112.497 159.537 112.497 159.537C112.497 159.537 116.24 169.091 114.912 171.296C114.844 171.408 114.754 171.505 114.648 171.582C114.179 171.921 113.899 172.524 113.754 173.242C113.259 175.582 114.127 179.153 114.127 179.153C114.127 179.153 114.047 179.286 113.912 179.492C113.62 179.959 113.291 180.402 112.928 180.816C112.873 180.879 112.814 180.946 112.754 181.007C112.59 181.179 112.413 181.338 112.224 181.483C112.259 181.586 112.296 181.692 112.333 181.806C112.37 181.92 112.418 182.097 112.455 182.256C112.749 183.557 112.634 184.918 112.124 186.15C111.777 187.049 111.553 187.99 111.457 188.949C111.285 190.703 111.331 192.473 111.592 194.217C111.553 194.196 111.518 194.174 111.479 194.156C108.553 192.626 105.668 191.028 102.826 189.361C101.992 188.88 101.164 188.387 100.342 187.892C99.3292 187.282 98.3213 186.664 97.3179 186.039C95.9952 185.213 94.6725 184.366 93.3498 183.5L92.7308 183.087L92.4927 182.926C92.1568 182.701 91.8261 182.476 91.4928 182.248C90.1251 180.479 88.8756 178.622 87.7522 176.689C87.5644 176.353 87.3951 176.032 87.2549 175.738V175.722L87.165 175.529L86.792 175.397C86.0909 175.151 85.6465 174.979 85.6465 174.979C85.9701 173.797 86.125 172.576 86.1068 171.352C86.0857 168.969 85.427 165.792 82.7128 163.246C78.7025 159.452 78.1496 155.706 78.0914 154.269C78.0914 154.168 78.0914 154.078 78.0914 154.004C78.09 153.883 78.0953 153.762 78.1072 153.641L78.4141 153.347C77.6364 153.191 76.9062 153.12 76.9062 153.12C76.9062 153.12 79.5675 143.483 84.0487 140.267C86.2708 138.678 88.1199 136.031 89.4268 133.76C91.8107 129.655 94.4877 125.727 97.4369 122.008L98.2437 120.989L98.4792 120.69L98.5294 120.629L98.5929 120.544C98.4836 120.378 98.3725 120.214 98.2596 120.052L98.1856 119.943C97.8337 119.414 97.5321 118.884 97.5798 118.252C97.5798 118.252 97.5798 118.238 97.5798 118.233C97.5798 118.188 97.5798 118.146 97.5798 118.098C97.591 117.993 97.6104 117.888 97.638 117.786C97.647 117.803 97.6576 117.819 97.6697 117.833C98.048 116.732 99.5056 116.245 100.58 115.636C103.111 114.212 104.191 111.096 104.733 108.197C105.153 105.942 105.503 103.413 107.249 101.965C108.375 101.033 109.894 100.726 111.034 99.8024C111.694 99.219 112.239 98.5179 112.642 97.7348C112.907 97.2848 113.134 96.8189 113.381 96.3688C114.507 94.3304 115.989 92.4349 117.949 91.2145C119.909 89.994 122.396 89.5202 124.544 90.3408C125.372 90.6559 126.131 91.135 126.925 91.4871C127.415 91.6871 127.921 91.8448 128.438 91.9584C130.054 92.3369 131.755 92.4349 133.274 93.1099C135.742 94.2059 137.348 96.6309 138.813 98.9341C139.572 100.125 140.765 101.867 141.443 103.62C141.443 103.556 141.443 103.498 141.443 103.437C141.769 104.209 141.949 105.035 141.972 105.873C141.985 106.229 141.947 106.586 141.858 106.932C141.614 107.832 140.993 108.401 140.212 108.819L140.088 108.88C139.921 108.966 139.75 109.043 139.575 109.11C139.548 109.256 139.519 109.404 139.488 109.547C139.474 109.608 139.459 109.672 139.443 109.733C139.408 109.881 139.369 110.026 139.326 110.172C138.761 112.064 137.658 113.751 136.152 115.027C135.109 115.92 133.903 116.603 132.602 117.039C132.509 117.071 132.411 117.095 132.319 117.124C132.24 117.345 132.128 117.553 131.985 117.741C131.882 117.873 131.761 117.989 131.626 118.087C131.541 118.145 131.453 118.196 131.361 118.241C131.339 118.255 131.315 118.267 131.29 118.275C130.337 118.704 129.033 118.368 128.115 117.727C128.068 117.696 128.023 117.659 127.978 117.624C127.978 117.775 127.954 117.934 127.927 118.098C127.901 118.262 127.882 118.363 127.853 118.5C127.824 118.638 127.814 118.704 127.795 118.802C127.777 118.9 127.763 118.966 127.747 119.043L127.716 119.178C127.192 121.733 126.192 124.167 124.769 126.352C124.562 126.665 124.339 126.967 124.1 127.255L123.443 128.256V128.391C123.568 130.694 122.811 132.841 121.743 134.689C121.385 135.301 120.992 135.893 120.565 136.46L120.713 136.547C122.195 137.392 125.115 138.893 126.962 138.766C126.962 138.766 133.946 139.668 134.755 139.216C134.866 139.152 134.975 139.24 135.075 139.428C136.205 138.739 138.802 137.281 140.853 137.087C142.286 136.95 143.453 137.429 143.67 139.205C143.887 140.982 142.818 142.128 141.321 142.771Z" fill="url(#paint0_linear)"/>
<path d="M103.092 179.175C103.539 179.938 103.806 180.794 103.872 181.676C103.938 182.558 103.801 183.444 103.473 184.265C102.83 185.878 102.758 187.887 102.825 189.362C101.991 188.88 101.163 188.387 100.341 187.892C99.3283 187.282 98.3205 186.664 97.317 186.039C95.9943 185.213 94.6716 184.366 93.3489 183.5L92.7299 183.087L92.4918 182.926C92.471 182.887 92.4452 182.852 92.4151 182.82C92.0606 182.444 89.9946 179.479 88.7672 177.229C88.545 176.816 88.3519 176.435 88.1984 176.085V176.067C87.9339 175.479 87.8096 175.008 87.8889 174.793C87.9851 174.456 88.1483 174.141 88.3687 173.868C88.5892 173.595 88.8623 173.37 89.1719 173.205C90.6956 172.411 93.14 173.144 95.5578 174.311C97.6381 175.364 99.6319 176.579 101.52 177.946L101.735 178.102L101.756 178.118C102.55 178.682 103.01 179.055 103.01 179.055C103.01 179.055 103.044 179.098 103.092 179.175Z" fill="#FBBEBE"/>
<path opacity="0.05" d="M102.69 178.822C103.138 179.586 103.405 180.443 103.471 181.326C103.537 182.21 103.4 183.096 103.071 183.919C102.428 185.531 102.357 187.54 102.423 189.017C101.59 188.532 100.762 188.041 99.9387 187.545C98.9247 186.935 97.9168 186.317 96.9151 185.692C95.5924 184.864 94.2697 184.017 92.9603 183.151L92.3413 182.738L92.1032 182.576C92.0817 182.538 92.056 182.503 92.0265 182.471C91.672 182.097 89.606 179.132 88.3785 176.879C88.1563 176.466 87.9632 176.085 87.8098 175.736V175.72C87.5452 175.129 87.4209 174.661 87.5002 174.444C87.5968 174.107 87.7602 173.792 87.9806 173.519C88.201 173.246 88.4739 173.021 88.7832 172.855C90.307 172.061 92.7513 172.795 95.1691 173.962C97.2494 175.014 99.2432 176.23 101.132 177.597L101.346 177.753L101.367 177.769C102.161 178.333 102.621 178.706 102.621 178.706C102.621 178.706 102.642 178.746 102.69 178.822Z" fill="black"/>
<path d="M112.431 185.242C112.355 185.696 112.229 186.139 112.058 186.566C111.766 187.334 111.564 188.134 111.458 188.949C111.25 190.678 111.257 192.428 111.479 194.156C108.553 192.626 105.669 191.028 102.826 189.362C101.993 188.88 101.165 188.387 100.342 187.892C100.157 186.484 99.8924 185.245 99.5935 184.94C99.202 184.527 96.9667 181.33 95.5779 178.807C95.398 178.489 95.2419 178.182 95.0964 177.891V177.877C95.0409 177.761 94.9879 177.65 94.9377 177.539C94.5806 176.771 94.3901 176.173 94.4853 175.884C94.671 175.257 95.053 174.705 95.5752 174.311C97.9217 172.596 102.8 174.918 106.546 177.224L106.638 177.279C107.347 177.721 108.019 178.158 108.622 178.566L108.974 178.804C110.524 179.863 111.553 180.686 111.553 180.686C111.809 181.081 112.014 181.506 112.164 181.952C112.253 182.203 112.326 182.459 112.384 182.719C112.567 183.549 112.583 184.406 112.431 185.242Z" fill="#FBBEBE"/>
<path opacity="0.1" d="M88.783 177.229C90.7062 177.901 93.5447 178.793 95.0896 178.817C95.2495 178.822 95.4097 178.814 95.5684 178.793C96.6556 178.645 100.007 178.883 103.084 179.161C104.317 179.27 105.504 179.384 106.486 179.484L108.951 179.749V178.796C108.266 178.325 107.47 177.801 106.618 177.271C102.859 174.947 97.9201 172.572 95.5551 174.301C92.2246 172.691 88.8439 171.918 87.8836 174.783C87.7725 175.156 88.1772 176.104 88.783 177.229Z" fill="black"/>
<path d="M79.5403 155.042C79.5932 156.469 80.1276 160.172 83.9554 163.913C88.8388 168.678 86.7569 175.529 86.7569 175.529C86.7569 175.529 92.5767 177.817 95.0871 177.877C95.2471 177.882 95.4072 177.874 95.5659 177.854C97.0711 177.645 103.055 178.198 106.494 178.545L108.959 178.809V158.552L81.9926 151.997L79.5509 154.433C79.5344 154.635 79.5309 154.839 79.5403 155.042Z" fill="#5C5C8E"/>
<g opacity="0.1">
<path opacity="0.1" d="M108.517 178.558L108.959 178.603V178.82L106.493 178.555C104.025 178.306 100.253 177.952 97.7637 177.848C99.4858 177.695 105.187 178.222 108.517 178.558Z" fill="black"/>
<path opacity="0.1" d="M79.5511 154.446L81.9928 152.01L83.6223 152.405L81.5881 154.446C81.5751 154.649 81.5751 154.852 81.5881 155.055C81.641 156.482 82.1753 160.183 86.0032 163.926C90.8865 168.691 88.8046 175.54 88.8046 175.54C88.8046 175.54 93.6192 177.433 96.3783 177.822C96.1131 177.821 95.8481 177.836 95.5847 177.867C95.426 177.888 95.2659 177.896 95.1059 177.891C92.5954 177.827 86.7756 175.54 86.7756 175.54C86.7756 175.54 88.8575 168.691 83.9742 163.926C80.1278 160.183 79.5935 156.482 79.5406 155.063C79.5308 154.857 79.5343 154.651 79.5511 154.446Z" fill="black"/>
</g>
<path d="M133.438 140.735C133.438 140.735 141.593 135.075 142.188 140.169C142.784 145.262 133.438 144.548 133.438 144.548V140.735Z" fill="#FBBEBE"/>
<path d="M119.375 136.982C119.375 136.982 123.785 139.894 126.227 139.722C126.227 139.722 132.893 140.616 133.668 140.169C134.443 139.722 134.919 146.634 134.919 146.634L123.965 145.858L116.939 144.786C116.939 144.786 113.426 142.642 113.426 140.794C113.426 138.946 119.375 136.982 119.375 136.982Z" fill="#F7CDDD"/>
<path d="M119.375 136.982C119.375 136.982 123.785 139.894 126.227 139.722C126.227 139.722 132.893 140.616 133.668 140.169C134.443 139.722 134.919 146.634 134.919 146.634L123.965 145.858L116.939 144.786C116.939 144.786 113.426 142.642 113.426 140.794C113.426 138.946 119.375 136.982 119.375 136.982Z" fill="#0049A0"/>
<path d="M125.84 151.711C125.84 151.711 135.758 151.301 133.536 155.923C131.314 160.545 123.801 154.933 123.801 154.933L125.84 151.711Z" fill="#FBBEBE"/>
<path d="M115.869 141.866C115.869 141.866 123.906 135.848 122.776 128.521C121.647 121.193 115.869 134.122 115.869 134.122V141.866Z" fill="#5C5C8E"/>
<path d="M118.096 108.644C118.097 111.28 119.122 113.813 120.953 115.707C121.94 116.728 123.13 117.531 124.445 118.066C124.869 118.244 125.305 118.389 125.751 118.5C126.225 118.623 126.707 118.711 127.193 118.765C127.542 118.799 127.894 118.818 128.251 118.818C129.388 118.816 130.516 118.62 131.587 118.238C133.349 117.626 134.908 116.54 136.094 115.099C137.28 113.659 138.047 111.919 138.31 110.071C138.574 108.224 138.324 106.339 137.588 104.624C136.852 102.909 135.658 101.43 134.138 100.349C132.618 99.2675 130.829 98.6262 128.969 98.4948C127.108 98.3635 125.248 98.7473 123.591 99.6041C121.934 100.461 120.544 101.758 119.575 103.352C118.606 104.947 118.094 106.778 118.096 108.644Z" fill="#FBBEBE"/>
<path opacity="0.1" d="M79.5403 155.042C80.4503 155.208 81.5746 155.515 81.5746 155.987C81.5746 156.781 94.2723 161.072 94.2723 161.072C94.2723 161.072 93.7962 162.181 95.0659 164.09C96.3357 165.999 106.661 176.959 106.661 176.959L106.626 177.282L106.494 178.545L105.864 184.583C105.864 184.583 109.832 183.154 111.102 183.312C111.512 183.363 111.959 183.101 112.369 182.719C112.218 181.998 111.938 181.31 111.541 180.689C111.541 180.689 110.512 179.879 108.959 178.807V158.552L81.9926 151.997L79.5509 154.433C79.5344 154.635 79.5309 154.839 79.5403 155.042Z" fill="black"/>
<path d="M78.3984 153.922C78.3984 153.922 81.5729 154.237 81.5729 155.034C81.5729 155.83 94.2706 160.119 94.2706 160.119C94.2706 160.119 93.7944 161.228 95.0642 163.137C96.334 165.046 106.659 176.006 106.659 176.006L105.865 183.63C105.865 183.63 109.833 182.2 111.103 182.359C111.672 182.431 112.299 181.904 112.817 181.3C113.247 180.791 113.631 180.245 113.963 179.667C113.963 179.667 112.532 173.626 114.439 172.196C116.346 170.767 112.375 160.283 112.375 160.283C112.375 160.283 110.579 152.828 111.108 149.63C111.142 149.417 111.193 149.208 111.262 149.003C111.262 148.979 111.275 148.955 111.286 148.932C112.418 145.877 124.597 120.248 124.597 120.248C124.589 119.521 124.538 118.795 124.444 118.074C124.42 117.873 124.388 117.664 124.348 117.455C124.287 117.074 124.205 116.696 124.102 116.324C124.034 116.081 123.96 115.848 123.872 115.625C123.497 114.657 122.92 113.913 122.058 113.894C122.058 113.894 121.105 112.835 118.883 112.555C117.243 112.34 114.915 112.555 111.741 113.894C104.281 117.071 102.535 117.23 102.535 117.23L98.7836 122.146L98.0112 123.157C95.1879 126.842 92.6321 130.725 90.3634 134.776C89.1148 137.021 87.3477 139.639 85.2288 141.212C80.9406 144.391 78.3984 153.922 78.3984 153.922Z" fill="#0049A0"/>
<path opacity="0.1" d="M106.221 135.552C106.221 135.552 95.6239 138.173 91.5156 144.786L106.221 135.552Z" fill="black"/>
<path opacity="0.1" d="M102.947 147.168C102.947 147.168 100.944 160.633 101.5 161.647C102.055 162.661 102.947 147.168 102.947 147.168Z" fill="black"/>
<path opacity="0.1" d="M103.666 154.081C104.438 155.092 107.568 162.899 107.568 162.899L106.663 176.006L105.869 183.63C105.869 183.63 109.837 182.201 111.11 182.359C111.676 182.431 112.306 181.907 112.824 181.3C111.999 176.834 110.237 167.492 109.914 167.312C109.493 167.074 107.351 159.566 107.237 157.48C107.123 155.394 104.139 150.692 104.139 150.692C104.139 150.692 102.891 153.069 103.666 154.081Z" fill="black"/>
<path opacity="0.1" d="M106.662 141.212C106.855 141.808 107.162 145.262 107.162 145.262C107.379 148.309 109.68 149.305 111.109 149.623C111.143 149.409 111.194 149.2 111.262 148.995C112.215 146.297 124.598 120.24 124.598 120.24C124.585 118.917 124.419 117.601 124.103 116.316C121.407 115.522 117.138 116.745 117.138 116.745C115.905 116.584 111.881 124.592 111.881 124.592C111.881 124.592 109.199 130.726 108.905 131.56C108.612 132.394 108.905 133.768 108.786 134.244C108.667 134.721 107.413 135.134 107.236 135.793C107.059 136.452 107.175 137.755 107.056 137.993C106.937 138.231 106.456 140.616 106.662 141.212Z" fill="black"/>
<path d="M107.613 140.735C107.809 141.331 108.113 144.786 108.113 144.786C108.293 147.322 109.923 148.437 111.288 148.924C111.901 149.143 112.542 149.271 113.192 149.305L115.108 150.967L123.946 157.493C123.946 157.493 127.242 151.404 126.348 151.364C125.454 151.325 120.298 146.996 120.298 146.996C118.711 146.155 117.139 143.338 116.407 141.892C116.45 141.718 116.482 141.541 116.502 141.363C116.822 138.665 123.488 128.338 123.488 128.338C123.488 128.338 126.065 125.302 127.07 119.676C127.099 119.549 127.118 119.411 127.141 119.281C127.17 119.106 127.188 118.929 127.194 118.752C127.313 116.589 125.742 115.803 123.874 115.615C122.904 115.539 121.928 115.57 120.965 115.705C120 115.826 119.046 116.013 118.108 116.266C117.314 116.163 115.34 119.485 114.05 121.839C113.354 123.115 112.854 124.113 112.854 124.113C112.854 124.113 110.158 130.249 109.857 131.083C109.555 131.917 109.857 133.289 109.738 133.768C109.619 134.247 108.365 134.657 108.19 135.316C108.015 135.976 108.127 137.278 108.008 137.516C107.888 137.755 107.412 140.14 107.613 140.735Z" fill="#0049A0"/>
<path opacity="0.1" d="M97.3594 127.001C99.0365 128.727 101.772 128.732 103.957 127.856C106.142 126.98 107.996 125.381 110.025 124.15C111.348 123.356 112.734 122.686 114.03 121.857C114.221 121.733 114.406 121.608 114.586 121.481C116.083 120.422 117.377 119.064 118.924 118.093C119.962 117.406 121.168 117.019 122.411 116.976C122.984 116.97 123.552 117.089 124.075 117.325C124.166 117.365 124.255 117.411 124.339 117.463C124.848 117.757 125.319 118.113 125.741 118.522C126.178 118.916 126.599 119.337 127.064 119.702C127.093 119.575 127.112 119.438 127.136 119.308C127.164 119.133 127.182 118.956 127.188 118.778C127.538 118.813 127.89 118.831 128.247 118.831C129.386 118.825 130.516 118.625 131.588 118.238C131.588 118.196 131.604 118.151 131.612 118.109C131.992 116.107 132.67 113.987 134.289 112.862C135.222 112.208 136.714 111.943 138.005 111.445C138.453 109.884 138.521 108.239 138.203 106.647C137.884 105.054 137.19 103.561 136.177 102.293C135.163 101.024 133.861 100.017 132.379 99.3557C130.897 98.6942 129.279 98.3977 127.659 98.4909C126.039 98.5841 124.464 99.0643 123.068 99.8914C121.672 100.718 120.493 101.868 119.632 103.245C118.771 104.621 118.252 106.184 118.118 107.802C117.984 109.42 118.24 111.047 118.864 112.547C117.223 112.332 114.895 112.547 111.721 113.886C104.261 117.063 102.515 117.222 102.515 117.222L98.7852 122.146C99.19 122.765 99.6476 123.377 99.6899 124.1C99.7746 125.439 98.4837 126.363 97.3594 127.001Z" fill="black"/>
<path d="M134.301 111.911C132.69 113.039 132.005 115.157 131.624 117.156C131.505 117.78 131.391 118.44 131.01 118.935C130.156 120.044 128.436 119.729 127.32 118.935C126.204 118.141 125.325 116.933 124.079 116.369C122.423 115.623 120.479 116.168 118.932 117.14C117.384 118.111 116.088 119.469 114.591 120.526C113.144 121.548 111.53 122.276 110.022 123.194C107.996 124.431 106.144 126.027 103.956 126.901C101.769 127.774 99.0358 127.774 97.3613 126.048C98.4856 125.423 99.7765 124.499 99.6892 123.163C99.602 121.826 98.0438 120.822 98.1496 119.456C98.2555 118.09 99.8665 117.545 101.023 116.872C103.443 115.464 104.461 112.372 104.991 109.513C105.393 107.281 105.723 104.785 107.393 103.353C108.467 102.429 109.924 102.127 111.006 101.214C112.033 100.345 112.593 99.0295 113.249 97.8196C114.326 95.7997 115.739 93.9254 117.609 92.7182C119.479 91.5111 121.857 91.0451 123.91 91.8579C124.704 92.1676 125.413 92.6521 126.19 92.9883C128.122 93.8248 130.336 93.7136 132.251 94.5925C134.608 95.6779 136.14 98.0764 137.542 100.353C138.74 102.299 141.084 105.743 140.428 108.258C139.759 110.823 136.05 110.686 134.301 111.911Z" fill="#7C5C5C"/>
<g opacity="0.1">
<path opacity="0.1" d="M98.1495 119.289C98.1581 119.184 98.1767 119.081 98.205 118.979C98.6309 119.652 99.1626 120.303 99.2129 121.097C99.2251 121.279 99.2099 121.462 99.1679 121.64C98.6944 120.878 98.0833 120.165 98.1495 119.289Z" fill="black"/>
<path opacity="0.1" d="M103.479 124.833C105.667 123.954 107.518 122.358 109.545 121.127C111.053 120.208 112.666 119.48 114.113 118.458C115.611 117.399 116.907 116.041 118.454 115.072C120.002 114.103 121.946 113.555 123.602 114.302C124.848 114.866 125.718 116.06 126.843 116.867C127.967 117.675 129.679 117.99 130.533 116.88C130.917 116.385 131.028 115.729 131.147 115.104C131.528 113.103 132.205 110.985 133.824 109.857C135.575 108.634 139.281 108.772 139.953 106.19C140.065 105.733 140.095 105.258 140.04 104.79C140.472 105.936 140.691 107.091 140.432 108.097C139.757 110.678 136.051 110.54 134.3 111.763C132.692 112.891 132.004 115.009 131.623 117.01C131.504 117.635 131.393 118.294 131.012 118.786C130.155 119.896 128.435 119.581 127.308 118.773C126.181 117.966 125.314 116.772 124.068 116.208C122.412 115.461 120.467 116.009 118.92 116.978C117.372 117.947 116.076 119.308 114.579 120.364C113.132 121.389 111.518 122.114 110.01 123.033C107.984 124.272 106.132 125.865 103.944 126.739C101.757 127.613 99.0241 127.61 97.3496 125.884C97.7823 125.649 98.1931 125.377 98.5771 125.069C100.106 125.627 101.931 125.452 103.479 124.833Z" fill="black"/>
</g>
<path d="M275.76 98.844L264.914 87.9291C264.383 87.385 263.748 86.9516 263.048 86.6541C262.349 86.3566 261.597 86.2007 260.836 86.1956C260.076 86.1904 259.322 86.336 258.618 86.624C257.914 86.912 257.274 87.3366 256.735 87.8735L188.627 155.454L159.83 126.411C158.761 125.325 157.304 124.709 155.781 124.698C154.258 124.687 152.793 125.282 151.709 126.352L140.746 137.206C139.663 138.289 139.05 139.756 139.039 141.288C139.029 142.82 139.622 144.295 140.691 145.392L184.424 189.502C185.505 190.586 186.971 191.2 188.502 191.211C190.033 191.222 191.506 190.629 192.603 189.56L275.699 107.027C276.243 106.495 276.676 105.861 276.974 105.161C277.271 104.461 277.427 103.709 277.433 102.948C277.439 102.187 277.294 101.433 277.007 100.729C276.72 100.024 276.296 99.3837 275.76 98.844Z" fill="#3ACC6C"/>
<g opacity="0.5">
<path opacity="0.5" d="M259.415 186.367C259.415 186.367 251.325 185.88 252.272 191.554C252.224 191.841 252.267 192.137 252.396 192.398C252.526 192.66 252.734 192.874 252.992 193.01C252.992 193.01 252.992 192.589 253.82 192.732C254.111 192.781 254.407 192.795 254.701 192.774C255.098 192.748 255.475 192.593 255.775 192.332C255.775 192.332 258.047 191.392 258.933 187.67C258.933 187.67 259.587 186.86 259.56 186.651L258.195 187.236C258.195 187.236 258.664 188.221 258.296 189.039C258.296 189.039 258.251 187.27 257.989 187.312C257.936 187.312 257.28 187.654 257.28 187.654C257.28 187.654 258.074 189.369 257.476 190.619C257.476 190.619 257.706 188.501 257.029 187.778L256.069 188.34C256.069 188.34 257.005 190.113 256.37 191.559C256.37 191.559 256.534 189.34 255.865 188.477L254.995 189.155C254.995 189.155 255.875 190.902 255.338 192.104C255.338 192.104 255.27 189.52 254.809 189.324C254.809 189.324 254.047 189.997 253.931 190.275C253.931 190.275 254.534 191.543 254.161 192.213C254.161 192.213 253.931 190.489 253.743 190.484C253.743 190.484 252.984 191.622 252.905 192.403C252.941 191.681 253.167 190.981 253.558 190.373C253.121 190.457 252.717 190.666 252.397 190.976C252.397 190.976 252.513 190.182 253.746 190.097C253.746 190.097 254.373 189.234 254.539 189.182C254.539 189.182 253.315 189.078 252.571 189.409C252.571 189.409 253.225 188.647 254.762 188.994L255.621 188.292C255.621 188.292 254.01 188.07 253.325 188.313C253.325 188.313 254.119 187.641 255.854 188.131L256.791 187.572C256.791 187.572 255.415 187.275 254.595 187.381C254.595 187.381 255.46 186.915 257.066 187.421L257.735 187.119C257.735 187.119 256.727 186.921 256.431 186.892C256.135 186.862 256.121 186.778 256.121 186.778C256.759 186.672 257.414 186.745 258.013 186.99C258.013 186.99 259.439 186.457 259.415 186.367Z" fill="#0049A0"/>
</g>
<g opacity="0.5">
<path opacity="0.5" d="M244.901 146.747C244.901 146.747 240.793 153.739 246.279 155.465C246.513 155.639 246.796 155.735 247.088 155.739C247.379 155.742 247.665 155.654 247.903 155.486C247.903 155.486 247.536 155.282 248.03 154.62C248.206 154.383 248.353 154.127 248.469 153.855C248.624 153.489 248.656 153.082 248.562 152.696C248.562 152.696 248.755 150.242 245.845 147.764C245.845 147.764 245.419 146.811 245.224 146.739L245.123 148.222C245.123 148.222 246.21 148.254 246.774 148.953C246.774 148.953 245.187 148.19 245.097 148.442C245.081 148.495 245.078 149.236 245.078 149.236C245.078 149.236 246.972 149.299 247.808 150.406C247.808 150.406 246.03 149.241 245.075 149.516L245.139 150.628C245.139 150.628 247.144 150.597 248.144 151.82C248.144 151.82 246.242 150.665 245.171 150.869L245.38 151.955C245.38 151.955 247.337 151.955 248.16 152.984C248.16 152.984 245.829 151.875 245.446 152.19C245.446 152.19 245.71 153.175 245.89 153.405C245.89 153.405 247.295 153.442 247.721 154.08C247.721 154.08 246.083 153.503 245.991 153.667C245.991 153.667 246.663 154.861 247.313 155.288C246.687 154.926 246.166 154.407 245.803 153.781C245.672 154.213 245.672 154.673 245.803 155.105C245.803 155.105 245.139 154.634 245.636 153.517C245.636 153.517 245.15 152.566 245.179 152.391C245.179 152.391 244.533 153.437 244.488 154.245C244.488 154.245 244.107 153.315 245.113 152.1L244.88 151.015C244.88 151.015 243.951 152.354 243.856 153.074C243.856 153.074 243.615 152.066 244.843 150.737L244.769 149.649C244.769 149.649 243.88 150.739 243.605 151.518C243.605 151.518 243.581 150.536 244.758 149.334L244.795 148.6C244.795 148.6 244.16 149.411 244.001 149.659C243.843 149.908 243.761 149.884 243.761 149.884C243.955 149.268 244.317 148.718 244.806 148.296C244.806 148.296 244.991 146.766 244.901 146.747Z" fill="#0049A0"/>
</g>
<g opacity="0.5">
<path opacity="0.5" d="M219.206 90.9656C219.206 90.9656 215.101 97.9599 220.585 99.6833C220.818 99.8581 221.102 99.9544 221.393 99.9582C221.685 99.962 221.971 99.8731 222.209 99.7045C222.209 99.7045 221.841 99.5006 222.339 98.8388C222.513 98.6017 222.66 98.3449 222.775 98.0737C222.931 97.7075 222.963 97.3005 222.868 96.9142C222.868 96.9142 223.063 94.4601 220.151 91.9822C220.151 91.9822 219.725 91.0318 219.529 90.9603L219.429 92.4402C219.429 92.4402 220.518 92.472 221.079 93.1708C221.079 93.1708 219.492 92.4084 219.405 92.6599C219.386 92.7129 219.386 93.4541 219.386 93.4541C219.386 93.4541 221.278 93.5177 222.114 94.6242C222.114 94.6242 220.336 93.4594 219.381 93.7347L219.447 94.8466C219.447 94.8466 221.45 94.8148 222.45 96.0379C222.45 96.0379 220.548 94.8863 219.476 95.0875L219.685 96.1729C219.685 96.1729 221.643 96.1729 222.468 97.2054C222.468 97.2054 220.135 96.0935 219.751 96.4112C219.751 96.4112 220.016 97.3933 220.198 97.6237C220.198 97.6237 221.6 97.6607 222.026 98.2987C222.026 98.2987 220.389 97.7216 220.299 97.8857C220.299 97.8857 220.968 99.0823 221.622 99.5059C220.995 99.1454 220.473 98.627 220.108 98.0022C219.982 98.4289 219.982 98.8833 220.108 99.31C220.108 99.31 219.444 98.8388 219.942 97.7084C219.942 97.7084 219.455 96.758 219.484 96.5833C219.484 96.5833 218.839 97.629 218.794 98.4364C218.794 98.4364 218.413 97.5072 219.421 96.292L219.185 95.2066C219.185 95.2066 218.257 96.5462 218.164 97.2663C218.164 97.2663 217.921 96.2576 219.148 94.9287L219.074 93.8406C219.074 93.8406 218.185 94.9313 217.91 95.7096C217.91 95.7096 217.886 94.7275 219.064 93.5282L219.101 92.7923C219.101 92.7923 218.466 93.6024 218.307 93.8512C218.148 94.1001 218.066 94.0762 218.066 94.0762C218.265 93.4589 218.631 92.9089 219.124 92.4878C219.124 92.4878 219.296 90.9974 219.206 90.9656Z" fill="#0049A0"/>
</g>
<g opacity="0.5">
<path opacity="0.5" d="M130.754 37.9952C130.754 37.9952 115.464 49.114 125.585 57.9217C125.585 57.9217 126.731 60.0078 129.04 59.481C129.04 59.481 128.442 58.7026 130.122 57.7496C130.718 57.4072 131.27 56.9949 131.768 56.5212C132.441 55.8869 132.889 55.0506 133.045 54.1386C133.045 54.1386 135.749 49.0717 131.831 41.0608C131.831 41.0608 131.807 38.628 131.45 38.2917L129.863 41.3679C129.863 41.3679 132.162 42.4507 132.715 44.4706C132.715 44.4706 130.014 41.3494 129.604 41.8233C129.522 41.9159 128.831 43.4911 128.831 43.4911C128.831 43.4911 132.823 45.3919 133.58 48.5369C133.58 48.5369 130.86 44.3859 128.553 44.0841L127.657 46.5223C127.657 46.5223 131.971 48.3251 132.971 51.8725C132.971 51.8725 129.977 47.6368 127.495 47.0676L126.934 49.5852C126.934 49.5852 131.109 51.4251 131.921 54.3822C131.921 54.3822 127.953 49.8341 126.845 50.1703C126.845 50.1703 126.469 52.5105 126.667 53.1803C126.667 53.1803 129.635 54.5702 129.953 56.3306C129.953 56.3306 126.987 53.5721 126.638 53.8369C126.638 53.8369 126.961 57.0136 127.977 58.5412C127.977 58.5412 126.313 56.3995 126.143 53.9136C126.143 53.9136 125.009 55.2373 124.945 56.7224C124.945 56.7224 123.961 55.0943 126.075 53.1406C126.075 53.1406 125.924 50.6521 126.149 50.308C126.149 50.308 123.789 51.9414 122.94 53.6357C122.94 53.6357 122.99 51.2954 126.273 49.6355L126.781 47.0968C126.781 47.0968 123.551 49.0902 122.681 50.5383C122.681 50.5383 123.101 48.1557 126.961 46.4561L127.818 44.0603C127.818 44.0603 124.908 45.5666 123.585 46.9723C123.585 46.9723 124.45 44.8545 128.083 43.3799L128.842 41.8445C128.842 41.8445 126.725 42.9828 126.157 43.364C125.588 43.7452 125.429 43.6288 125.429 43.6288C126.42 42.4901 127.708 41.6496 129.149 41.2012C129.149 41.2012 130.932 38.1197 130.754 37.9952Z" fill="#0049A0"/>
</g>
<g opacity="0.5">
<path opacity="0.5" d="M115.903 74.6846C115.903 74.6846 96.1231 66.3614 93.5307 81.3691C93.5307 81.3691 92.1789 83.7094 94.0597 85.6419C94.0597 85.6419 94.4645 84.6042 96.3771 85.6763C97.0593 86.0539 97.7839 86.3489 98.5357 86.5552C99.551 86.8355 100.63 86.7779 101.61 86.3911C101.61 86.3911 108.112 86.039 113.585 77.5226C113.585 77.5226 115.929 76.0718 116.048 75.5265L112.125 75.7912C112.125 75.7912 112.426 78.6636 110.802 80.387C110.802 80.387 112.244 75.9289 111.551 75.8044C111.411 75.778 109.48 76.0321 109.48 76.0321C109.48 76.0321 109.98 81.0276 107.363 83.6114C107.363 83.6114 109.792 78.5312 108.734 76.1221L105.842 76.6807C105.842 76.6807 106.636 81.9357 103.774 84.9907C103.774 84.9907 106.125 79.5901 105.218 76.8475L102.446 77.7794C102.446 77.7794 103.115 82.9178 100.721 85.4566C100.721 85.4566 102.811 78.9415 101.827 78.0441C101.827 78.0441 99.3346 79.0554 98.8002 79.6325C98.8002 79.6325 99.197 83.3387 97.6733 84.6756C97.6733 84.6756 98.6098 80.1752 98.1468 79.9899C98.1468 79.9899 95.2502 82.1713 94.3666 84.0535C94.3666 84.0535 95.4697 81.1785 97.7818 79.5531C97.7818 79.5531 95.8401 79.2221 94.3428 80.0375C94.3428 80.0375 95.3454 78.1288 98.4828 79.0342C98.4828 79.0342 100.808 77.422 101.274 77.4458C101.274 77.4458 98.3055 76.1221 96.1602 76.2863C96.1602 76.2863 98.459 74.9626 101.998 77.1731L104.758 76.1724C104.758 76.1724 100.924 74.2055 99.0013 74.2134C99.0013 74.2134 101.557 73.2233 105.477 75.9765L108.308 75.3915C108.308 75.3915 105.133 73.4457 102.99 72.9956C102.99 72.9956 105.559 72.5879 109.122 75.2591L111.059 75.0976C111.059 75.0976 108.715 73.7157 108.006 73.3795C107.297 73.0433 107.329 72.8262 107.329 72.8262C109.016 73.1194 110.589 73.8765 111.871 75.0129C111.871 75.0129 115.884 74.9308 115.903 74.6846Z" fill="#0049A0"/>
</g>
<g opacity="0.5">
<path opacity="0.5" d="M104.058 53.67C104.058 53.67 97.0455 37.4498 86.9641 44.8888C86.9641 44.8888 84.8293 45.5083 84.8478 47.7215C84.8478 47.7215 85.6784 47.335 86.2022 49.0637C86.3975 49.676 86.6638 50.2633 86.9958 50.8135C87.439 51.5596 88.1133 52.1405 88.9163 52.4681C88.9163 52.4681 92.9796 55.9679 101.085 54.0274C101.085 54.0274 103.304 54.5013 103.685 54.2471L101.207 52.1637C101.207 52.1637 99.7518 54.0433 97.7995 54.1333C97.7995 54.1333 101.193 52.3066 100.852 51.8381C100.783 51.7428 99.4925 50.795 99.4925 50.795C99.4925 50.795 96.945 54.0459 93.9372 54.0962C93.9372 54.0962 98.273 52.4602 99.0137 50.4297L96.9768 49.106C96.9768 49.106 94.4187 52.6878 90.9824 52.8758C90.9824 52.8758 95.453 51.0094 96.4768 48.8598L94.2997 47.8459C94.2997 47.8459 91.7707 51.2874 88.9111 51.4171C88.9111 51.4171 93.8605 48.738 93.7838 47.6447C93.7838 47.6447 91.7284 46.824 91.0776 46.8717C91.0776 46.8717 89.2073 49.294 87.5381 49.2251C87.5381 49.2251 90.657 47.0835 90.485 46.7102C90.485 46.7102 87.5222 46.3554 85.9271 46.9749C85.9271 46.9749 88.218 45.8948 90.5168 46.2495C90.5168 46.2495 89.5512 44.9444 88.2021 44.5817C88.2021 44.5817 89.8872 44.0178 91.2337 46.3422C91.2337 46.3422 93.5325 46.7128 93.7997 46.9881C93.7997 46.9881 92.7944 44.5023 91.4189 43.3825C91.4189 43.3825 93.5351 43.912 94.3843 47.2396L96.5932 48.2218C96.5932 48.2218 95.4372 44.865 94.2891 43.7769C94.2891 43.7769 96.371 44.6453 97.1328 48.5157L99.1407 49.7837C99.1407 49.7837 98.3629 46.8187 97.3498 45.3283C97.3498 45.3283 99.1063 46.5513 99.7041 50.1702L100.947 51.1762C100.947 51.1762 100.339 49.0213 100.109 48.4177C99.8787 47.8141 100.024 47.7029 100.024 47.7029C100.859 48.8388 101.361 50.1842 101.477 51.5892C101.477 51.5892 103.91 53.8103 104.058 53.67Z" fill="#0049A0"/>
</g>
<g opacity="0.5">
<path opacity="0.5" d="M240.739 62.1097C240.739 62.1097 239.086 54.1677 233.861 56.5794C233.571 56.6073 233.296 56.7265 233.078 56.9201C232.859 57.1137 232.708 57.3716 232.645 57.6569C232.645 57.6569 233.055 57.559 233.131 58.3849C233.16 58.678 233.223 58.9668 233.319 59.2453C233.451 59.6209 233.701 59.944 234.031 60.1666C234.031 60.1666 235.533 62.115 239.351 61.9932C239.351 61.9932 240.305 62.4115 240.501 62.3321L239.578 61.1673C239.578 61.1673 238.75 61.8767 237.866 61.7364C237.866 61.7364 239.56 61.2308 239.454 60.9872C239.43 60.9369 238.938 60.3916 238.938 60.3916C238.938 60.3916 237.493 61.6173 236.131 61.3605C236.131 61.3605 238.229 61.027 238.753 60.1825L237.959 59.4015C237.959 59.4015 236.494 60.7728 234.933 60.5372C234.933 60.5372 237.115 60.1136 237.774 59.2427L236.89 58.5808C236.89 58.5808 235.435 59.8886 234.137 59.6848C234.137 59.6848 236.61 58.9382 236.676 58.4405C236.676 58.4405 235.83 57.8819 235.531 57.8422C235.531 57.8422 234.472 58.7582 233.724 58.5729C233.724 58.5729 235.311 57.9005 235.282 57.7151C235.282 57.7151 233.983 57.281 233.208 57.4107C233.914 57.2575 234.648 57.2913 235.338 57.5087C235.143 57.1073 234.835 56.7722 234.451 56.545C234.451 56.545 235.261 56.4471 235.652 57.604C235.652 57.604 236.65 57.9825 236.745 58.1334C236.745 58.1334 236.523 56.9236 236.009 56.2803C236.009 56.2803 236.914 56.7118 236.986 58.2896L237.888 58.9356C237.888 58.9356 237.679 57.3207 237.263 56.7224C237.263 56.7224 238.118 57.3075 238.102 59.105L238.896 59.8621C238.896 59.8621 238.821 58.4564 238.504 57.694C238.504 57.694 239.179 58.4061 239.112 60.0766L239.578 60.6457C239.578 60.6457 239.507 59.6212 239.459 59.3221C239.411 59.0229 239.485 58.9912 239.485 58.9912C239.756 59.5801 239.857 60.2327 239.779 60.8761C239.779 60.8761 240.66 62.1574 240.739 62.1097Z" fill="#0049A0"/>
</g>
<g opacity="0.5">
<path opacity="0.5" d="M212.269 209.333C212.269 209.333 210.619 201.391 205.391 203.803C205.1 203.83 204.826 203.949 204.607 204.143C204.388 204.337 204.235 204.595 204.172 204.88C204.172 204.88 204.582 204.782 204.659 205.608C204.687 205.902 204.751 206.19 204.849 206.468C204.981 206.844 205.229 207.167 205.558 207.39C205.558 207.39 207.061 209.338 210.881 209.216C210.881 209.216 211.835 209.635 212.029 209.555L211.108 208.39C211.108 208.39 210.28 209.1 209.394 208.96C209.394 208.96 211.087 208.454 210.981 208.21C210.96 208.16 210.465 207.615 210.465 207.615C210.465 207.615 209.021 208.84 207.658 208.584C207.658 208.584 209.759 208.25 210.28 207.406L209.486 206.611C209.486 206.611 208.037 207.988 206.471 207.744C206.471 207.744 208.653 207.321 209.312 206.45L208.428 205.788C208.428 205.788 206.976 207.096 205.677 206.892C205.677 206.892 208.15 206.148 208.217 205.648C208.217 205.648 207.367 205.089 207.071 205.049C207.071 205.049 206.013 205.965 205.262 205.78C205.262 205.78 206.849 205.108 206.82 204.922C206.82 204.922 205.521 204.488 204.746 204.618C205.453 204.465 206.188 204.498 206.878 204.716C206.683 204.315 206.375 203.98 205.992 203.752C205.992 203.752 206.799 203.654 207.19 204.811C207.19 204.811 208.19 205.19 208.285 205.341C208.285 205.341 208.063 204.131 207.55 203.488C207.55 203.488 208.455 203.919 208.523 205.497L209.428 206.143C209.428 206.143 209.217 204.528 208.801 203.93C208.801 203.93 209.658 204.515 209.642 206.312L210.436 207.069C210.436 207.069 210.362 205.664 210.042 204.901C210.042 204.901 210.719 205.613 210.653 207.284L211.119 207.853C211.119 207.853 211.045 206.828 210.997 206.529C210.949 206.23 211.023 206.201 211.023 206.201C211.294 206.789 211.396 207.441 211.317 208.083C211.317 208.083 212.195 209.373 212.269 209.333Z" fill="#0049A0"/>
</g>
<defs>
<linearGradient id="paint0_linear" x1="14473.8" y1="73502.8" x2="14473.8" y2="32415.3" gradientUnits="userSpaceOnUse">
<stop stop-color="#808080" stop-opacity="0.25"/>
<stop offset="0.54" stop-color="#808080" stop-opacity="0.12"/>
<stop offset="1" stop-color="#808080" stop-opacity="0.1"/>
</linearGradient>
</defs>
</svg>
