<svg width="424" height="254" viewBox="0 0 424 254" fill="none" xmlns="http://www.w3.org/2000/svg">
<path opacity="0.3" d="M113.638 192.047C150.748 192.047 180.831 161.913 180.831 124.741C180.831 87.5686 150.748 57.4347 113.638 57.4347C76.5286 57.4347 46.4453 87.5686 46.4453 124.741C46.4453 161.913 76.5286 192.047 113.638 192.047Z" stroke="#FF9800" stroke-width="4" stroke-miterlimit="10" stroke-dasharray="12 12"/>
<path opacity="0.3" d="M290.851 178.733C327.961 178.733 358.044 148.599 358.044 111.427C358.044 74.2554 327.961 44.1215 290.851 44.1215C253.742 44.1215 223.658 74.2554 223.658 111.427C223.658 148.599 253.742 178.733 290.851 178.733Z" stroke="#FF9800" stroke-width="4" stroke-miterlimit="10" stroke-dasharray="12 12"/>
<path d="M316.825 137.436C313.931 134.353 312.318 130.282 312.314 126.05C312.331 123.13 313.102 120.265 314.552 117.733C316.003 115.201 318.083 113.089 320.591 111.601C319.469 109.969 318.867 108.035 318.863 106.054C318.863 100.473 323.537 95.9506 329.304 95.9506C331.531 95.9279 333.707 96.6225 335.51 97.9322C337.314 99.2419 338.649 101.097 339.32 103.225C340.744 100.981 342.713 99.137 345.043 97.8647C347.373 96.5923 349.987 95.9337 352.641 95.9506C361.232 95.9506 368.199 102.692 368.199 111.006C368.2 112.781 367.877 114.542 367.246 116.202C367.56 116.179 367.877 116.153 368.199 116.153C375.095 116.153 380.685 121.564 380.685 128.239C380.685 128.647 380.664 129.054 380.622 129.459C386.138 131.76 389.999 137.066 389.999 143.246C389.999 151.533 383.059 158.253 374.493 158.253C373.594 158.252 372.696 158.175 371.809 158.024C371.854 158.523 371.883 159.03 371.883 159.54C371.883 168.841 364.093 176.381 354.483 176.381C350.956 176.392 347.505 175.347 344.574 173.382C342.202 175.33 339.227 176.39 336.16 176.381C328.979 176.381 323.161 170.749 323.161 163.808C323.161 163.508 323.187 163.212 323.209 162.916H323.161C315.474 162.916 309.242 156.885 309.242 149.444C309.258 146.932 309.977 144.475 311.318 142.353C312.658 140.23 314.566 138.527 316.825 137.436Z" fill="url(#paint0_linear)"/>
<path d="M318.235 137.381C315.466 134.429 313.923 130.533 313.919 126.482C313.935 123.688 314.673 120.945 316.061 118.521C317.45 116.097 319.441 114.075 321.842 112.651C320.766 111.086 320.189 109.23 320.188 107.33C320.188 101.99 324.663 97.6592 330.182 97.6592C332.315 97.6379 334.398 98.3025 336.126 99.5553C337.854 100.808 339.135 102.583 339.781 104.619C341.142 102.477 343.024 100.715 345.249 99.4983C347.475 98.2818 349.972 97.6503 352.507 97.6629C360.733 97.6629 367.397 104.116 367.397 112.086C367.398 113.785 367.089 115.471 366.485 117.06C366.787 117.037 367.09 117.015 367.397 117.015C373.998 117.015 379.347 122.193 379.347 128.583C379.346 128.973 379.326 129.363 379.285 129.752C384.564 131.97 388.26 137.033 388.26 142.946C388.26 150.879 381.614 157.31 373.418 157.31C372.552 157.31 371.688 157.237 370.834 157.092C370.878 157.569 370.904 158.053 370.904 158.542C370.904 167.443 363.446 174.658 354.25 174.658C350.874 174.667 347.572 173.668 344.765 171.788C342.504 173.648 339.668 174.665 336.742 174.665C329.872 174.665 324.301 169.273 324.301 162.624C324.301 162.336 324.323 162.055 324.345 161.77H324.301C316.943 161.77 310.977 155.997 310.977 148.875C310.992 146.47 311.68 144.119 312.963 142.087C314.246 140.055 316.073 138.425 318.235 137.381Z" fill="#009688"/>
<path d="M348.817 120.521H343.947V210.101H348.817V120.521Z" fill="url(#paint1_linear)"/>
<path d="M347.808 120.521H345.113V210.101H347.808V120.521Z" fill="#795548"/>
<path d="M331.729 130.091L329.805 131.98L345.774 148.298L347.699 146.408L331.729 130.091Z" fill="#795548"/>
<path d="M362.516 148.624L345.961 160.261L347.509 162.471L364.064 150.834L362.516 148.624Z" fill="#795548"/>
<path d="M348.981 139.008C350.641 137.106 351.874 134.868 352.597 132.448C353.32 130.027 353.516 127.479 353.171 124.975C352.826 122.472 351.949 120.072 350.599 117.938C349.249 115.804 347.457 113.984 345.344 112.603C346.437 110.91 347.016 108.936 347.013 106.919C347.013 101.217 342.501 96.5942 336.934 96.5942C334.734 96.6105 332.599 97.3451 330.853 98.6865C329.108 100.028 327.847 101.903 327.261 104.027C325.95 101.774 324.073 99.9025 321.818 98.5988C319.563 97.295 317.006 96.604 314.402 96.5942C306.106 96.5942 299.38 103.484 299.38 111.982C299.378 113.792 299.689 115.589 300.299 117.293C299.996 117.27 299.69 117.245 299.38 117.245C292.734 117.245 287.322 122.792 287.322 129.596C287.322 130.018 287.344 130.432 287.385 130.843C284.674 132.06 282.376 134.039 280.768 136.541C279.16 139.042 278.312 141.957 278.328 144.932C278.328 153.405 285.033 160.272 293.299 160.272C294.166 160.271 295.031 160.193 295.883 160.039C295.839 160.55 295.813 161.067 295.813 161.589C295.813 171.093 303.334 178.8 312.615 178.8C316.045 178.801 319.389 177.729 322.181 175.734C324.428 177.708 327.314 178.798 330.303 178.8C337.237 178.8 342.856 173.042 342.856 165.942C342.856 165.635 342.83 165.331 342.811 165.028H342.856C350.28 165.028 356.294 158.863 356.294 151.26C356.306 148.744 355.631 146.273 354.342 144.113C353.053 141.954 351.199 140.189 348.981 139.008Z" fill="url(#paint2_linear)"/>
<path d="M347.036 138.927C348.593 137.141 349.75 135.042 350.428 132.77C351.105 130.498 351.289 128.107 350.965 125.759C350.641 123.41 349.818 121.158 348.551 119.155C347.284 117.153 345.603 115.446 343.621 114.149C344.647 112.559 345.19 110.706 345.187 108.813C345.187 103.458 340.952 99.1202 335.724 99.1202C333.662 99.1387 331.662 99.8294 330.027 101.088C328.392 102.346 327.21 104.104 326.661 106.095C325.43 103.979 323.668 102.222 321.551 100.998C319.433 99.7735 317.033 99.1251 314.588 99.1165C306.802 99.1165 300.489 105.584 300.489 113.561C300.487 115.261 300.779 116.947 301.352 118.546C301.068 118.524 300.78 118.502 300.489 118.502C294.238 118.502 289.173 123.679 289.173 130.096C289.173 130.491 289.191 130.88 289.232 131.264C286.69 132.41 284.535 134.269 283.028 136.617C281.521 138.965 280.726 141.701 280.74 144.493C280.74 152.443 287.017 158.889 294.796 158.889C295.611 158.889 296.426 158.816 297.229 158.671C297.188 159.152 297.162 159.636 297.162 160.125C297.162 169.048 304.221 176.278 312.93 176.278C316.149 176.279 319.288 175.273 321.909 173.401C324.018 175.254 326.727 176.276 329.533 176.278C336.038 176.278 341.314 170.875 341.314 164.207C341.314 163.919 341.292 163.634 341.273 163.349H341.314C348.28 163.349 353.929 157.562 353.929 150.424C353.938 148.06 353.3 145.738 352.085 143.712C350.87 141.685 349.124 140.03 347.036 138.927Z" fill="#00897B"/>
<path d="M322.162 120.488H318.5V211.75H322.162V120.488Z" fill="url(#paint3_linear)"/>
<path d="M321.383 121.771H319.541V211.75H321.383V121.771Z" fill="#795548"/>
<path d="M334.49 131.913L319.369 148.27L320.721 149.523L335.842 133.167L334.49 131.913Z" fill="#795548"/>
<path d="M304.928 150.579L303.83 152.06L319.506 163.722L320.605 162.24L304.928 150.579Z" fill="#795548"/>
<path d="M278.411 165.694C276.439 163.59 275.34 160.813 275.339 157.928C275.351 155.939 275.877 153.986 276.865 152.261C277.854 150.536 279.272 149.097 280.98 148.083C280.214 146.968 279.803 145.646 279.803 144.293C279.803 140.491 282.989 137.407 286.917 137.407C288.435 137.391 289.917 137.865 291.146 138.757C292.375 139.649 293.286 140.913 293.743 142.362C294.714 140.834 296.056 139.577 297.644 138.71C299.232 137.844 301.014 137.395 302.822 137.407C308.677 137.407 313.425 142 313.425 147.665C313.426 148.876 313.206 150.077 312.775 151.208C312.989 151.208 313.204 151.175 313.425 151.175C318.125 151.175 321.917 154.873 321.917 159.411C321.916 159.689 321.901 159.966 321.872 160.243C323.746 161 325.354 162.297 326.492 163.969C327.629 165.642 328.246 167.616 328.263 169.64C328.263 175.287 323.534 179.865 317.697 179.865C317.078 179.865 316.461 179.813 315.851 179.71C315.884 180.05 315.902 180.394 315.902 180.741C315.902 187.08 310.593 192.206 304.044 192.206C301.654 192.217 299.314 191.518 297.321 190.198C295.702 191.519 293.675 192.235 291.587 192.224C286.696 192.224 282.727 188.385 282.727 183.652C282.727 183.445 282.727 183.245 282.76 183.045H282.727C277.488 183.045 273.242 178.937 273.242 173.867C273.255 172.157 273.746 170.484 274.66 169.04C275.573 167.595 276.873 166.436 278.411 165.694Z" fill="url(#paint4_linear)"/>
<path d="M279.368 165.657C277.477 163.648 276.421 160.992 276.415 158.231C276.426 156.327 276.929 154.458 277.876 152.807C278.822 151.155 280.18 149.778 281.816 148.808C281.083 147.741 280.69 146.476 280.69 145.18C280.69 141.541 283.739 138.59 287.498 138.59C288.951 138.575 290.37 139.028 291.547 139.882C292.724 140.736 293.595 141.947 294.033 143.335C294.961 141.872 296.245 140.669 297.765 139.839C299.284 139.009 300.989 138.579 302.72 138.59C308.324 138.59 312.869 142.987 312.869 148.412C312.87 149.571 312.66 150.72 312.248 151.804C312.455 151.804 312.658 151.774 312.869 151.774C317.365 151.774 321.013 155.302 321.013 159.655C321.013 159.92 321 160.186 320.972 160.45C322.766 161.174 324.305 162.416 325.394 164.017C326.483 165.618 327.073 167.506 327.09 169.444C327.09 174.85 322.56 179.233 316.974 179.233C316.388 179.232 315.802 179.183 315.224 179.085C315.254 179.41 315.272 179.739 315.272 180.072C315.272 186.137 310.192 191.055 303.923 191.055C301.623 191.061 299.374 190.38 297.462 189.099C295.916 190.369 293.976 191.061 291.976 191.055C287.295 191.055 283.485 187.383 283.485 182.849C283.485 182.653 283.485 182.461 283.514 182.269H283.485C278.471 182.269 274.406 178.334 274.406 173.482C274.42 171.843 274.892 170.241 275.769 168.858C276.646 167.474 277.893 166.365 279.368 165.657Z" fill="#009688"/>
<path d="M300.21 154.167H296.891V215.212H300.21V154.167Z" fill="url(#paint5_linear)"/>
<path d="M299.524 154.167H297.689V215.212H299.524V154.167Z" fill="#795548"/>
<path d="M288.562 160.686L287.252 161.972L298.133 173.09L299.443 171.804L288.562 160.686Z" fill="#795548"/>
<path d="M309.551 173.314L298.27 181.245L299.324 182.749L310.605 174.819L309.551 173.314Z" fill="#795548"/>
<path d="M309.638 167.506C310.754 166.23 311.584 164.729 312.071 163.104C312.557 161.478 312.689 159.767 312.458 158.087C312.226 156.406 311.637 154.795 310.729 153.362C309.822 151.93 308.617 150.709 307.197 149.784C307.925 148.645 308.31 147.32 308.305 145.968C308.344 144.317 307.779 142.709 306.716 141.446C305.653 140.184 304.165 139.356 302.534 139.117C300.903 138.878 299.241 139.245 297.861 140.15C296.482 141.054 295.481 142.433 295.047 144.026C294.167 142.515 292.909 141.259 291.396 140.385C289.884 139.51 288.169 139.045 286.423 139.037C280.855 139.037 276.34 143.66 276.34 149.366C276.338 150.581 276.547 151.788 276.957 152.931C276.754 152.931 276.547 152.898 276.34 152.898C275.265 152.91 274.203 153.134 273.215 153.557C272.226 153.981 271.331 154.595 270.579 155.365C269.828 156.135 269.235 157.045 268.835 158.045C268.435 159.044 268.235 160.113 268.247 161.189C268.247 161.47 268.247 161.751 268.288 162.025C266.469 162.842 264.926 164.171 263.847 165.851C262.768 167.53 262.2 169.488 262.211 171.485C262.211 177.169 266.712 181.78 272.261 181.78C272.844 181.78 273.425 181.728 273.999 181.625C273.97 181.969 273.951 182.313 273.951 182.664C273.951 189.044 279.002 194.217 285.227 194.217C287.528 194.218 289.773 193.5 291.647 192.161C293.156 193.486 295.093 194.217 297.1 194.217C298.219 194.205 299.324 193.971 300.353 193.531C301.382 193.09 302.315 192.451 303.097 191.65C303.879 190.848 304.496 189.9 304.913 188.86C305.33 187.819 305.537 186.707 305.525 185.586C305.525 185.379 305.525 185.175 305.495 184.972H305.525C310.509 184.972 314.548 180.834 314.548 175.727C314.555 174.038 314.101 172.38 313.236 170.931C312.371 169.482 311.126 168.298 309.638 167.506Z" fill="url(#paint6_linear)"/>
<path d="M308.332 167.454C309.379 166.255 310.157 164.845 310.612 163.319C311.068 161.793 311.192 160.187 310.974 158.61C310.757 157.032 310.204 155.519 309.352 154.174C308.501 152.829 307.371 151.682 306.039 150.812C306.728 149.746 307.093 148.503 307.092 147.233C307.129 145.683 306.598 144.173 305.601 142.988C304.603 141.803 303.206 141.025 301.675 140.801C300.143 140.576 298.583 140.921 297.288 141.77C295.993 142.619 295.053 143.914 294.646 145.41C293.82 143.99 292.637 142.811 291.216 141.989C289.794 141.168 288.183 140.733 286.542 140.728C281.315 140.728 277.08 145.069 277.08 150.424C277.079 151.565 277.275 152.697 277.66 153.771C277.468 153.771 277.29 153.741 277.08 153.741C275.045 153.765 273.103 154.596 271.68 156.052C270.256 157.507 269.467 159.47 269.486 161.507C269.486 161.774 269.486 162.036 269.522 162.291C267.815 163.058 266.368 164.305 265.355 165.881C264.342 167.457 263.809 169.293 263.818 171.167C263.818 176.503 268.042 180.83 273.251 180.83C273.799 180.829 274.345 180.78 274.883 180.682C274.854 181.004 274.839 181.329 274.839 181.659C274.839 187.646 279.579 192.501 285.424 192.501C287.585 192.503 289.693 191.828 291.453 190.571C292.868 191.816 294.686 192.502 296.57 192.501C298.69 192.477 300.714 191.61 302.197 190.092C303.68 188.573 304.5 186.527 304.478 184.403C304.478 184.21 304.478 184.033 304.448 183.829H304.478C305.602 183.817 306.714 183.582 307.748 183.14C308.783 182.697 309.72 182.054 310.506 181.249C311.293 180.443 311.913 179.49 312.332 178.444C312.751 177.398 312.96 176.28 312.947 175.154C312.95 173.571 312.522 172.018 311.709 170.661C310.895 169.304 309.728 168.195 308.332 167.454Z" fill="#00897B"/>
<path d="M291.637 155.076H289.178V216.332H291.637V155.076Z" fill="url(#paint7_linear)"/>
<path d="M291.112 155.938H289.875V216.332H291.112V155.938Z" fill="#795548"/>
<path d="M299.907 162.741L289.758 173.719L290.665 174.561L300.814 163.583L299.907 162.741Z" fill="#795548"/>
<path d="M280.062 175.274L279.324 176.268L289.846 184.096L290.584 183.101L280.062 175.274Z" fill="#795548"/>
<path d="M287.733 125.033H183.621V217.856H287.733V125.033Z" fill="url(#paint8_linear)"/>
<path d="M285.151 125.033H115.322V214.897H285.151V125.033Z" fill="white"/>
<path d="M293.275 133.908H126.4V90.2704H287.184C288.799 90.2704 290.349 90.9133 291.491 92.0576C292.633 93.2019 293.275 94.754 293.275 96.3723V133.908Z" fill="url(#paint9_linear)"/>
<path d="M126.398 91.9973H285.749C287.365 91.9973 288.914 92.6402 290.057 93.7845C291.199 94.9289 291.841 96.4809 291.841 98.0992V132.784H126.398V91.9973Z" fill="#0049A0"/>
<path opacity="0.7" d="M126.398 91.9973H285.749C287.365 91.9973 288.914 92.6402 290.057 93.7845C291.199 94.9289 291.841 96.4809 291.841 98.0992V132.784H126.398V91.9973Z" fill="white"/>
<path d="M126.03 42.9307L68.4355 83.5583V117.792V217.852H183.624V117.792V83.5583L126.03 42.9307Z" fill="url(#paint10_linear)"/>
<path d="M181.037 82.8742L126.396 42.9307L71.7559 82.8742V116.523H181.037V82.8742Z" fill="#0049A0"/>
<path opacity="0.5" d="M181.037 82.8742L126.396 42.9307L71.7559 82.8742V116.523H181.037V82.8742Z" fill="white"/>
<path d="M181.037 116.527H71.7559V214.897H181.037V116.527Z" fill="white"/>
<path d="M188.053 102.84L126.398 58.7401L64.0045 102.84L59.9434 87.3303L126.398 38.8811L192.853 87.3303L188.053 102.84Z" fill="url(#paint11_linear)"/>
<path d="M187.49 100.57L126.4 56.0331L65.3133 100.57L62.7031 86.624L126.4 40.1903L190.1 86.624L187.49 100.57Z" fill="#0049A0"/>
<path opacity="0.2" d="M187.49 100.57L126.4 56.0331L65.3133 100.57L62.7031 86.624L126.4 40.1903L190.1 86.624L187.49 100.57Z" fill="black"/>
<path d="M157.411 137.976H95.3867V214.897H157.411V137.976Z" fill="#F2F2F2"/>
<path d="M157.411 137.976H95.3867V151.29H157.411V137.976Z" fill="#0049A0"/>
<path d="M157.411 201.584H95.3867V214.897H157.411V201.584Z" fill="#0049A0"/>
<path d="M230.265 187.239C230.412 187.239 230.552 187.181 230.656 187.077C230.76 186.973 230.819 186.831 230.819 186.684C230.819 186.537 230.76 186.396 230.656 186.292C230.552 186.188 230.412 186.13 230.265 186.13C230.118 186.13 229.977 186.188 229.873 186.292C229.769 186.396 229.711 186.537 229.711 186.684C229.711 186.831 229.769 186.973 229.873 187.077C229.977 187.181 230.118 187.239 230.265 187.239Z" fill="#00FF00"/>
<path d="M245.28 158.686H215.006V214.897H245.28V158.686Z" fill="#F2F2F2"/>
<path d="M281.461 146.852H253.033V167.561H281.461V146.852Z" fill="#F2F2F2"/>
<path opacity="0.2" d="M281.461 146.852H253.033V156.097H281.461V146.852Z" fill="#0049A0"/>
<path d="M56.4111 176.718C54.7596 174.97 53.8354 172.657 53.8268 170.25C53.8379 168.592 54.2769 166.965 55.101 165.527C55.9252 164.089 57.1065 162.889 58.5303 162.044C57.8914 161.115 57.549 160.013 57.5482 158.885C57.5754 157.337 58.2152 155.863 59.327 154.786C60.4388 153.71 61.9316 153.12 63.4775 153.146C64.7452 153.132 65.9838 153.526 67.0103 154.272C68.0368 155.017 68.7968 156.073 69.1778 157.284C69.9869 156.01 71.1058 154.962 72.4296 154.24C73.7534 153.517 75.2387 153.144 76.7462 153.153C81.627 153.153 85.5847 156.985 85.5847 161.707C85.5856 162.718 85.4017 163.721 85.042 164.666C85.2229 164.666 85.4112 164.64 85.5847 164.64C89.5018 164.64 92.6769 167.713 92.6769 171.503C92.6765 171.734 92.6642 171.965 92.64 172.195C94.2021 172.826 95.5423 173.907 96.4906 175.301C97.439 176.696 97.953 178.341 97.9674 180.028C97.9674 184.735 94.0245 188.552 89.1585 188.552C88.6475 188.551 88.1375 188.508 87.6337 188.422C87.6596 188.707 87.6743 188.992 87.6743 189.284C87.6743 194.569 83.244 198.851 77.7911 198.851C75.7868 198.856 73.8265 198.263 72.1609 197.146C70.8132 198.253 69.1228 198.856 67.3798 198.851C63.3187 198.851 59.996 195.652 59.996 191.703C59.996 191.533 59.996 191.362 60.0218 191.196H59.996C55.6284 191.196 52.0879 187.768 52.0879 183.545C52.0973 182.115 52.5076 180.717 53.272 179.51C54.0364 178.303 55.1242 177.335 56.4111 176.718Z" fill="url(#paint12_linear)"/>
<path d="M57.2003 176.688C55.6278 175.011 54.7514 172.798 54.7488 170.498C54.758 168.911 55.1773 167.353 55.966 165.976C56.7547 164.6 57.8858 163.451 59.2493 162.643C58.638 161.753 58.311 160.698 58.3115 159.618C58.324 158.883 58.4808 158.159 58.773 157.485C59.0651 156.811 59.4869 156.202 60.0142 155.692C60.5414 155.181 61.1639 154.78 61.8461 154.511C62.5282 154.242 63.2566 154.11 63.9897 154.122C65.2004 154.11 66.383 154.488 67.3633 155.199C68.3437 155.911 69.07 156.919 69.4353 158.076C70.2095 156.856 71.2804 155.853 72.5474 155.162C73.8144 154.47 75.236 154.113 76.6789 154.122C81.3491 154.122 85.137 157.787 85.137 162.31C85.138 163.275 84.9628 164.233 84.6202 165.135C84.79 165.135 84.9635 165.109 85.137 165.109C88.888 165.109 91.9265 168.068 91.9265 171.681C91.9268 171.902 91.9157 172.123 91.8933 172.343C93.3879 172.948 94.6698 173.984 95.5767 175.319C96.4836 176.654 96.9748 178.228 96.9881 179.843C96.9881 184.351 93.215 188.005 88.5558 188.005C88.0608 188.005 87.5668 187.962 87.079 187.879C87.1048 188.149 87.1196 188.426 87.1196 188.704C87.1196 193.759 82.885 197.86 77.6572 197.86C75.7457 197.86 73.8772 197.291 72.2892 196.225C70.9997 197.285 69.3824 197.861 67.7149 197.856C63.8125 197.856 60.6485 194.794 60.6485 191.015C60.6485 190.852 60.6485 190.689 60.6744 190.53H60.6485C56.4693 190.53 53.0801 187.25 53.0801 183.204C53.091 181.841 53.4827 180.508 54.2109 179.357C54.9391 178.205 55.9746 177.281 57.2003 176.688Z" fill="#009688"/>
<path d="M74.5756 167.11H71.8066V218H74.5756V167.11Z" fill="url(#paint13_linear)"/>
<path d="M73.9972 167.11H72.4688V218H73.9972V167.11Z" fill="#795548"/>
<path d="M64.863 172.544L63.7715 173.615L72.843 182.885L73.9345 181.813L64.863 172.544Z" fill="#795548"/>
<path d="M82.3596 183.073L72.9551 189.684L73.8331 190.937L83.2376 184.326L82.3596 183.073Z" fill="#795548"/>
<path d="M38.3232 176.718C36.6717 174.97 35.7475 172.657 35.7389 170.25C35.75 168.592 36.189 166.965 37.0131 165.527C37.8373 164.089 39.0186 162.889 40.4424 162.044C39.8035 161.115 39.4611 160.013 39.4604 158.885C39.4875 157.337 40.1273 155.863 41.2391 154.786C42.3509 153.71 43.8437 153.12 45.3896 153.146C46.6573 153.132 47.8959 153.526 48.9224 154.272C49.9489 155.017 50.7089 156.073 51.0899 157.284C51.899 156.01 53.0179 154.962 54.3417 154.24C55.6655 153.517 57.1508 153.144 58.6584 153.153C63.5391 153.153 67.4968 156.985 67.4968 161.707C67.4978 162.718 67.3138 163.721 66.9541 164.666C67.135 164.666 67.3233 164.64 67.4968 164.64C71.414 164.64 74.589 167.713 74.589 171.503C74.5886 171.734 74.5763 171.965 74.5521 172.195C76.1143 172.826 77.4544 173.907 78.4027 175.301C79.3511 176.696 79.8651 178.341 79.8795 180.028C79.8795 184.735 75.9366 188.552 71.0706 188.552C70.5596 188.551 70.0496 188.508 69.5458 188.422C69.5717 188.707 69.5864 188.992 69.5864 189.284C69.5864 194.569 65.1561 198.851 59.7032 198.851C57.6989 198.856 55.7387 198.263 54.073 197.146C52.7253 198.253 51.0349 198.856 49.292 198.851C45.2308 198.851 41.9081 195.652 41.9081 191.703C41.9081 191.533 41.9081 191.362 41.9339 191.196H41.9081C37.5406 191.196 34 187.768 34 183.545C34.0094 182.115 34.4197 180.717 35.1841 179.51C35.9485 178.303 37.0363 177.335 38.3232 176.718Z" fill="url(#paint14_linear)"/>
<path d="M39.1085 176.688C37.536 175.011 36.6596 172.798 36.657 170.498C36.6662 168.911 37.0855 167.353 37.8742 165.976C38.6629 164.6 39.794 163.451 41.1575 162.643C40.5462 161.753 40.2192 160.698 40.2197 159.618C40.2322 158.883 40.389 158.159 40.6812 157.485C40.9733 156.811 41.3951 156.202 41.9224 155.692C42.4496 155.181 43.0721 154.78 43.7543 154.511C44.4364 154.242 45.1648 154.11 45.8979 154.122C47.1086 154.11 48.2912 154.488 49.2715 155.199C50.2519 155.911 50.9782 156.919 51.3435 158.076C52.1177 156.856 53.1886 155.853 54.4556 155.162C55.7226 154.47 57.1442 154.113 58.5871 154.122C63.2573 154.122 67.0452 157.787 67.0452 162.31C67.0462 163.275 66.871 164.233 66.5284 165.135C66.6982 165.135 66.8717 165.109 67.0452 165.109C70.7962 165.109 73.8347 168.068 73.8347 171.681C73.835 171.902 73.8239 172.123 73.8015 172.343C75.2961 172.948 76.578 173.984 77.4849 175.319C78.3918 176.654 78.883 178.228 78.8963 179.843C78.8963 184.351 75.1232 188.005 70.464 188.005C69.969 188.005 69.475 187.962 68.9872 187.879C69.013 188.149 69.0278 188.426 69.0278 188.704C69.0278 193.759 64.7932 197.86 59.5654 197.86C57.6539 197.86 55.7854 197.291 54.1974 196.225C52.9079 197.285 51.2906 197.861 49.6231 197.856C45.7207 197.856 42.5567 194.794 42.5567 191.015C42.5567 190.852 42.5567 190.689 42.5826 190.53H42.5567C38.3775 190.53 34.9883 187.25 34.9883 183.204C34.9992 181.841 35.3909 180.508 36.1191 179.357C36.8473 178.205 37.8828 177.281 39.1085 176.688Z" fill="#009688"/>
<path d="M56.4838 167.11H53.7148V218H56.4838V167.11Z" fill="url(#paint15_linear)"/>
<path d="M55.9074 167.11H54.3789V218H55.9074V167.11Z" fill="#795548"/>
<path d="M46.7751 172.544L45.6836 173.616L54.7551 182.885L55.8466 181.814L46.7751 172.544Z" fill="#795548"/>
<path d="M64.2678 183.076L54.8633 189.687L55.7413 190.94L65.1458 184.329L64.2678 183.076Z" fill="#795548"/>
<path d="M79.4784 177.121C80.4107 176.056 81.1036 174.803 81.51 173.447C81.9165 172.09 82.027 170.662 81.834 169.259C81.6411 167.856 81.1492 166.511 80.3918 165.315C79.6344 164.12 78.6291 163.101 77.4441 162.328C78.0555 161.381 78.3799 160.276 78.3782 159.148C78.4121 157.771 77.9415 156.429 77.0552 155.376C76.1689 154.323 74.9284 153.632 73.5678 153.432C72.2073 153.233 70.8209 153.54 69.6707 154.294C68.5204 155.049 67.6858 156.199 67.3245 157.528C66.5908 156.267 65.5409 155.22 64.2788 154.49C63.0167 153.76 61.5862 153.373 60.129 153.368C59.0123 153.379 57.9087 153.611 56.8815 154.049C55.8543 154.488 54.9237 155.126 54.1428 155.926C53.3619 156.725 52.7462 157.671 52.3309 158.71C51.9156 159.748 51.7088 160.859 51.7225 161.977C51.7224 162.985 51.896 163.986 52.2357 164.936C52.0658 164.936 51.896 164.91 51.7225 164.91C50.823 164.919 49.9343 165.106 49.1073 165.461C48.2804 165.815 47.5316 166.33 46.904 166.975C46.2764 167.621 45.7825 168.384 45.4506 169.222C45.1186 170.059 44.9553 170.954 44.97 171.855C44.97 172.091 44.97 172.324 45.0032 172.554C43.4871 173.235 42.2013 174.343 41.302 175.743C40.4028 177.142 39.9289 178.774 39.9379 180.438C39.9172 182.688 40.787 184.854 42.357 186.462C43.9269 188.071 46.0692 188.991 48.3148 189.021C48.8013 189.021 49.2869 188.978 49.7658 188.892C49.7399 189.177 49.7252 189.465 49.7252 189.757C49.7252 195.075 53.9339 199.373 59.1248 199.373C61.0439 199.372 62.9151 198.772 64.4781 197.657C65.7353 198.761 67.3504 199.371 69.0228 199.373C70.9048 199.349 72.7006 198.578 74.0159 197.23C75.3311 195.881 76.0582 194.065 76.0375 192.18C76.0375 192.006 76.0375 191.839 76.0116 191.669H76.0375C78.0543 191.646 79.9793 190.821 81.3895 189.377C82.7996 187.933 83.5796 185.986 83.5579 183.966C83.5639 182.561 83.1871 181.182 82.4683 179.975C81.7494 178.769 80.7157 177.782 79.4784 177.121Z" fill="url(#paint16_linear)"/>
<path d="M78.392 177.077C79.2641 176.077 79.9119 174.902 80.2915 173.631C80.6711 172.359 80.7737 171.021 80.5924 169.706C80.4111 168.391 79.9501 167.131 79.2406 166.01C78.531 164.889 77.5895 163.934 76.4796 163.209C77.0527 162.319 77.3566 161.283 77.3546 160.224C77.389 158.93 76.9485 157.669 76.1167 156.679C75.2849 155.689 74.1195 155.038 72.8411 154.851C71.5627 154.664 70.2601 154.952 69.18 155.662C68.0999 156.373 67.3173 157.455 66.9803 158.704C66.2914 157.52 65.3056 156.537 64.1205 155.852C62.9354 155.167 61.5923 154.804 60.2241 154.799C58.111 154.828 56.0957 155.696 54.6201 157.211C53.1446 158.727 52.3292 160.766 52.3529 162.883C52.3521 163.834 52.5158 164.777 52.8365 165.671C52.6778 165.671 52.5153 165.646 52.3529 165.646C50.6547 165.665 49.0337 166.359 47.8464 167.576C46.659 168.792 46.0025 170.431 46.0213 172.132C46.0213 172.354 46.0213 172.572 46.0545 172.787C44.6319 173.426 43.4251 174.465 42.581 175.778C41.7368 177.091 41.2915 178.621 41.2993 180.183C41.2766 182.295 42.0922 184.33 43.5668 185.841C45.0414 187.351 47.0542 188.213 49.1631 188.237C49.6199 188.237 50.0758 188.196 50.5254 188.115C50.5033 188.385 50.4885 188.655 50.4885 188.929C50.4885 193.922 54.4388 197.967 59.3122 197.967C61.1135 197.968 62.8702 197.406 64.3369 196.359C65.5164 197.392 67.0301 197.963 68.5974 197.964C69.473 197.954 70.3381 197.772 71.1434 197.427C71.9487 197.082 72.6783 196.582 73.2906 195.955C73.9029 195.328 74.3859 194.586 74.712 193.772C75.0381 192.958 75.2009 192.088 75.1911 191.211C75.1911 191.048 75.1911 190.889 75.169 190.73H75.1911C76.1288 190.719 77.0552 190.524 77.9174 190.155C78.7797 189.785 79.5609 189.25 80.2164 188.578C80.8718 187.906 81.3888 187.112 81.7378 186.24C82.0867 185.368 82.2608 184.436 82.2501 183.496C82.2519 182.176 81.8935 180.88 81.2135 179.748C80.5336 178.617 79.558 177.693 78.392 177.077Z" fill="#00897B"/>
<path d="M64.4709 166.759H62.4219V217.826H64.4709V166.759Z" fill="url(#paint17_linear)"/>
<path d="M64.032 167.476H63.002V217.826H64.032V167.476Z" fill="#795548"/>
<path d="M71.375 173.149L62.9141 182.302L63.6698 183.003L72.1308 173.851L71.375 173.149Z" fill="#795548"/>
<path d="M54.8231 183.595L54.209 184.423L62.9823 190.95L63.5964 190.121L54.8231 183.595Z" fill="#795548"/>
<path d="M297.361 57.5234C292.14 52.0825 285.885 47.7428 278.964 44.7598C272.044 41.7768 264.597 40.2108 257.063 40.1539C249.529 40.0971 242.06 41.5505 235.095 44.4287C228.13 47.3069 221.81 51.5517 216.508 56.9132C195.128 78.5029 194.766 113.654 215.677 135.683C224.863 145.374 237.175 151.495 250.435 152.963C263.694 154.431 277.044 151.151 288.12 143.705L328.953 186.233C329.203 186.494 329.502 186.703 329.833 186.849C330.163 186.994 330.52 187.072 330.881 187.08C331.242 187.087 331.601 187.023 331.937 186.891C332.273 186.759 332.58 186.562 332.841 186.311L343.012 176.514C343.273 176.264 343.481 175.965 343.626 175.633C343.771 175.302 343.85 174.945 343.857 174.584C343.864 174.222 343.8 173.862 343.668 173.525C343.537 173.188 343.34 172.881 343.089 172.62L302.257 130.092C310.086 119.349 313.887 106.186 312.992 92.9153C312.097 79.6445 306.562 67.1137 297.361 57.5234ZM284.643 125.909C278.884 131.458 271.612 135.172 263.746 136.581C255.881 137.99 247.774 137.031 240.453 133.825C233.131 130.619 226.923 125.311 222.614 118.571C218.304 111.831 216.086 103.962 216.241 95.9595C216.396 87.9571 218.917 80.1804 223.484 73.6128C228.051 67.0453 234.46 61.9818 241.9 59.0627C249.34 56.1436 257.477 55.5001 265.282 57.2134C273.088 58.9267 280.211 62.9199 285.75 68.6881C289.428 72.5181 292.317 77.0363 294.252 81.9848C296.187 86.9332 297.13 92.215 297.027 97.5285C296.925 102.842 295.778 108.083 293.653 112.953C291.528 117.822 288.466 122.225 284.643 125.909Z" fill="url(#paint18_linear)"/>
<path d="M226.718 85.4849C222.173 85.4849 222.166 92.5557 226.718 92.5557C231.27 92.5557 231.266 85.4849 226.718 85.4849Z" fill="url(#paint19_linear)"/>
<path d="M258.388 62.8302C246.16 62.5528 235.029 68.6991 229.115 77.9925C227.184 81.0176 232.666 83.6913 234.586 80.681C239.485 73 248.796 68.1074 258.857 68.3774C269.408 68.6436 279.011 74.6901 284.095 83.0811C286.026 86.2652 291.076 83.3696 289.16 80.204C282.991 70.0083 271.022 63.1149 258.388 62.8302Z" fill="url(#paint20_linear)"/>
<path d="M301.789 55.3711C296.568 49.9302 290.313 45.5905 283.392 42.6075C276.471 39.6245 269.025 38.0585 261.491 38.0016C253.957 37.9447 246.487 39.3982 239.523 42.2764C232.558 45.1546 226.238 49.3994 220.936 54.7609C199.556 76.3506 199.194 111.501 220.105 133.531C229.29 143.221 241.603 149.343 254.862 150.811C268.122 152.279 281.472 148.999 292.548 141.552L333.381 184.081C333.631 184.342 333.93 184.551 334.26 184.696C334.591 184.842 334.947 184.92 335.308 184.927C335.67 184.934 336.029 184.87 336.365 184.738C336.701 184.606 337.008 184.409 337.268 184.158L347.443 174.358C347.704 174.108 347.913 173.809 348.058 173.477C348.203 173.146 348.281 172.789 348.288 172.427C348.295 172.066 348.231 171.706 348.1 171.369C347.968 171.032 347.771 170.725 347.521 170.464L306.688 127.936C314.516 117.193 318.316 104.031 317.42 90.7605C316.524 77.4905 310.99 64.9607 301.789 55.3711ZM289.07 123.757C283.312 129.306 276.04 133.019 268.174 134.428C260.308 135.837 252.202 134.878 244.881 131.672C237.559 128.467 231.351 123.158 227.041 116.418C222.732 109.678 220.514 101.81 220.669 93.8071C220.824 85.8047 223.344 78.0281 227.911 71.4605C232.479 64.8929 238.888 59.8295 246.328 56.9104C253.768 53.9913 261.905 53.3477 269.71 55.061C277.515 56.7743 284.638 60.7675 290.178 66.5357C293.856 70.3658 296.745 74.884 298.68 79.8324C300.615 84.7809 301.558 90.0626 301.455 95.3761C301.352 100.69 300.206 105.931 298.081 110.8C295.956 115.67 292.894 120.073 289.07 123.757Z" fill="#0049A0"/>
<path d="M231.148 83.3217C226.603 83.3217 226.596 90.3925 231.148 90.3925C235.7 90.3925 235.696 83.3217 231.148 83.3217Z" fill="#0049A0"/>
<path d="M262.818 60.678C250.59 60.4006 239.459 66.5469 233.544 75.8403C231.614 78.8654 237.096 81.5391 239.016 78.5288C243.915 70.8478 253.226 65.9552 263.287 66.2252C273.838 66.4914 283.441 72.5379 288.525 80.9289C290.455 84.113 295.506 81.2174 293.59 78.0518C287.421 67.8634 275.451 60.9664 262.818 60.678Z" fill="#0049A0"/>
<defs>
<linearGradient id="paint0_linear" x1="349.624" y1="176.37" x2="349.624" y2="95.9358" gradientUnits="userSpaceOnUse">
<stop stop-color="#808080" stop-opacity="0.25"/>
<stop offset="0.54" stop-color="#808080" stop-opacity="0.12"/>
<stop offset="1" stop-color="#808080" stop-opacity="0.1"/>
</linearGradient>
<linearGradient id="paint1_linear" x1="4464.2" y1="41808.3" x2="4464.2" y2="20108.5" gradientUnits="userSpaceOnUse">
<stop stop-color="#808080" stop-opacity="0.25"/>
<stop offset="0.54" stop-color="#808080" stop-opacity="0.12"/>
<stop offset="1" stop-color="#808080" stop-opacity="0.1"/>
</linearGradient>
<linearGradient id="paint2_linear" x1="71514.7" y1="51901.8" x2="71514.7" y2="33627.5" gradientUnits="userSpaceOnUse">
<stop stop-color="#808080" stop-opacity="0.25"/>
<stop offset="0.54" stop-color="#808080" stop-opacity="0.12"/>
<stop offset="1" stop-color="#808080" stop-opacity="0.1"/>
</linearGradient>
<linearGradient id="paint3_linear" x1="3158.86" y1="42997.4" x2="3158.86" y2="20475.7" gradientUnits="userSpaceOnUse">
<stop stop-color="#808080" stop-opacity="0.25"/>
<stop offset="0.54" stop-color="#808080" stop-opacity="0.12"/>
<stop offset="1" stop-color="#808080" stop-opacity="0.1"/>
</linearGradient>
<linearGradient id="paint4_linear" x1="48078" y1="36672.4" x2="48078" y2="28547.9" gradientUnits="userSpaceOnUse">
<stop stop-color="#808080" stop-opacity="0.25"/>
<stop offset="0.54" stop-color="#808080" stop-opacity="0.12"/>
<stop offset="1" stop-color="#808080" stop-opacity="0.1"/>
</linearGradient>
<linearGradient id="paint5_linear" x1="2675.18" y1="29405.7" x2="2675.18" y2="19329" gradientUnits="userSpaceOnUse">
<stop stop-color="#808080" stop-opacity="0.25"/>
<stop offset="0.54" stop-color="#808080" stop-opacity="0.12"/>
<stop offset="1" stop-color="#808080" stop-opacity="0.1"/>
</linearGradient>
<linearGradient id="paint6_linear" x1="43979.8" y1="37212.7" x2="43979.8" y2="28979.3" gradientUnits="userSpaceOnUse">
<stop stop-color="#808080" stop-opacity="0.25"/>
<stop offset="0.54" stop-color="#808080" stop-opacity="0.12"/>
<stop offset="1" stop-color="#808080" stop-opacity="0.1"/>
</linearGradient>
<linearGradient id="paint7_linear" x1="1996.84" y1="29693.2" x2="1996.84" y2="19546.8" gradientUnits="userSpaceOnUse">
<stop stop-color="#808080" stop-opacity="0.25"/>
<stop offset="0.54" stop-color="#808080" stop-opacity="0.12"/>
<stop offset="1" stop-color="#808080" stop-opacity="0.1"/>
</linearGradient>
<linearGradient id="paint8_linear" x1="57056" y1="45267.7" x2="57056" y2="21969.1" gradientUnits="userSpaceOnUse">
<stop stop-color="#808080" stop-opacity="0.25"/>
<stop offset="0.54" stop-color="#808080" stop-opacity="0.12"/>
<stop offset="1" stop-color="#808080" stop-opacity="0.1"/>
</linearGradient>
<linearGradient id="paint9_linear" x1="104018" y1="22292.8" x2="104018" y2="17143.5" gradientUnits="userSpaceOnUse">
<stop stop-color="#808080" stop-opacity="0.25"/>
<stop offset="0.54" stop-color="#808080" stop-opacity="0.12"/>
<stop offset="1" stop-color="#808080" stop-opacity="0.1"/>
</linearGradient>
<linearGradient id="paint10_linear" x1="28780.2" y1="85112.5" x2="28780.2" y2="2374.63" gradientUnits="userSpaceOnUse">
<stop stop-color="#808080" stop-opacity="0.25"/>
<stop offset="0.54" stop-color="#808080" stop-opacity="0.12"/>
<stop offset="1" stop-color="#808080" stop-opacity="0.1"/>
</linearGradient>
<linearGradient id="paint11_linear" x1="33321.8" y1="11252.8" x2="33321.8" y2="190.465" gradientUnits="userSpaceOnUse">
<stop stop-color="#808080" stop-opacity="0.25"/>
<stop offset="0.54" stop-color="#808080" stop-opacity="0.12"/>
<stop offset="1" stop-color="#808080" stop-opacity="0.1"/>
</linearGradient>
<linearGradient id="paint12_linear" x1="11862.9" y1="31432.5" x2="11862.9" y2="25785.1" gradientUnits="userSpaceOnUse">
<stop stop-color="#808080" stop-opacity="0.25"/>
<stop offset="0.54" stop-color="#808080" stop-opacity="0.12"/>
<stop offset="1" stop-color="#808080" stop-opacity="0.1"/>
</linearGradient>
<linearGradient id="paint13_linear" x1="365.702" y1="24936.3" x2="365.702" y2="17933.3" gradientUnits="userSpaceOnUse">
<stop stop-color="#808080" stop-opacity="0.25"/>
<stop offset="0.54" stop-color="#808080" stop-opacity="0.12"/>
<stop offset="1" stop-color="#808080" stop-opacity="0.1"/>
</linearGradient>
<linearGradient id="paint14_linear" x1="9596.67" y1="31432.5" x2="9596.67" y2="25785.1" gradientUnits="userSpaceOnUse">
<stop stop-color="#808080" stop-opacity="0.25"/>
<stop offset="0.54" stop-color="#808080" stop-opacity="0.12"/>
<stop offset="1" stop-color="#808080" stop-opacity="0.1"/>
</linearGradient>
<linearGradient id="paint15_linear" x1="211.932" y1="24936.3" x2="211.932" y2="17933.3" gradientUnits="userSpaceOnUse">
<stop stop-color="#808080" stop-opacity="0.25"/>
<stop offset="0.54" stop-color="#808080" stop-opacity="0.12"/>
<stop offset="1" stop-color="#808080" stop-opacity="0.1"/>
</linearGradient>
<linearGradient id="paint16_linear" x1="9701.09" y1="31705.7" x2="9701.09" y2="25983.2" gradientUnits="userSpaceOnUse">
<stop stop-color="#808080" stop-opacity="0.25"/>
<stop offset="0.54" stop-color="#808080" stop-opacity="0.12"/>
<stop offset="1" stop-color="#808080" stop-opacity="0.1"/>
</linearGradient>
<linearGradient id="paint17_linear" x1="225.831" y1="24998.3" x2="225.831" y2="17946.4" gradientUnits="userSpaceOnUse">
<stop stop-color="#808080" stop-opacity="0.25"/>
<stop offset="0.54" stop-color="#808080" stop-opacity="0.12"/>
<stop offset="1" stop-color="#808080" stop-opacity="0.1"/>
</linearGradient>
<linearGradient id="paint18_linear" x1="272.049" y1="187.091" x2="272.049" y2="40.157" gradientUnits="userSpaceOnUse">
<stop stop-color="#B3B3B3" stop-opacity="0.25"/>
<stop offset="0.54" stop-color="#B3B3B3" stop-opacity="0.1"/>
<stop offset="1" stop-color="#B3B3B3" stop-opacity="0.05"/>
</linearGradient>
<linearGradient id="paint19_linear" x1="226.718" y1="92.5594" x2="226.718" y2="85.4849" gradientUnits="userSpaceOnUse">
<stop stop-opacity="0.12"/>
<stop offset="0.55" stop-opacity="0.09"/>
<stop offset="1" stop-opacity="0.02"/>
</linearGradient>
<linearGradient id="paint20_linear" x1="46259.5" y1="8179.29" x2="46259.5" y2="6913.69" gradientUnits="userSpaceOnUse">
<stop stop-opacity="0.12"/>
<stop offset="0.55" stop-opacity="0.09"/>
<stop offset="1" stop-opacity="0.02"/>
</linearGradient>
</defs>
</svg>
