<svg width="48" height="48" viewBox="0 0 48 48" fill="none" xmlns="http://www.w3.org/2000/svg">
<circle cx="24" cy="24" r="24" fill="#001A3A"/>
<path fill-rule="evenodd" clip-rule="evenodd" d="M29.25 24.75C32.5637 24.75 35.25 22.0637 35.25 18.75C35.25 15.4363 32.5637 12.75 29.25 12.75C25.9363 12.75 23.25 15.4363 23.25 18.75C23.25 22.0637 25.9363 24.75 29.25 24.75Z" stroke="white" stroke-width="2" stroke-linecap="round" stroke-linejoin="round"/>
<path d="M27.1289 19.5L28.6289 21L32.3789 17.25" stroke="white" stroke-width="2" stroke-linecap="round" stroke-linejoin="round"/>
<path d="M29.505 27.862C29.7073 28.903 30.132 29.8881 30.75 30.75H12.75C12.75 30.75 14.25 28.421 14.25 22.5C14.25 18.3579 17.6079 15 21.75 15V12.75" stroke="white" stroke-width="2" stroke-linecap="round" stroke-linejoin="round"/>
<path d="M19.748 33.75C20.0089 34.6387 20.8243 35.2492 21.7505 35.2492C22.6768 35.2492 23.4922 34.6387 23.753 33.75" stroke="white" stroke-width="2" stroke-linecap="round" stroke-linejoin="round"/>
</svg>
