<svg width="146" height="40" viewBox="0 0 146 40" fill="none" xmlns="http://www.w3.org/2000/svg">
<rect x="1" y="1" width="144" height="38" rx="3" fill="white" stroke="#001A3A" stroke-width="2" stroke-dasharray="3 4"/>
<path d="M34.911 17.208V26.204H33V17.208H34.911ZM40.02 17.208L37.017 21.264L40.254 26.204H38.018L34.989 21.407L37.979 17.208H40.02Z" fill="#001A3A"/>
<path d="M45.4201 17C46.2434 17 46.9541 17.1863 47.5521 17.559C48.1501 17.923 48.6094 18.456 48.9301 19.158C49.2508 19.86 49.4111 20.7093 49.4111 21.706C49.4111 22.6853 49.2508 23.5303 48.9301 24.241C48.6094 24.943 48.1501 25.4803 47.5521 25.853C46.9541 26.2257 46.2434 26.412 45.4201 26.412C44.5968 26.412 43.8818 26.23 43.2751 25.866C42.6771 25.4933 42.2178 24.956 41.8971 24.254C41.5764 23.5433 41.4161 22.694 41.4161 21.706C41.4161 20.7353 41.5764 19.899 41.8971 19.197C42.2264 18.4863 42.6901 17.9447 43.2881 17.572C43.8948 17.1907 44.6054 17 45.4201 17ZM45.4201 18.43C44.7614 18.43 44.2631 18.69 43.9251 19.21C43.5958 19.73 43.4311 20.562 43.4311 21.706C43.4311 22.85 43.6001 23.682 43.9381 24.202C44.2761 24.722 44.7701 24.982 45.4201 24.982C46.0788 24.982 46.5728 24.7263 46.9021 24.215C47.2314 23.695 47.3961 22.8587 47.3961 21.706C47.3961 20.5533 47.2314 19.7213 46.9021 19.21C46.5728 18.69 46.0788 18.43 45.4201 18.43Z" fill="#001A3A"/>
<path d="M60.4808 26.204H58.6088L58.4138 22.551C58.3531 21.459 58.3228 20.5317 58.3228 19.769C58.3228 19.3617 58.3271 19.067 58.3358 18.885L56.8148 25.242H55.0078L53.3828 18.872C53.4175 19.4007 53.4348 19.9943 53.4348 20.653C53.4348 21.355 53.4175 22.0007 53.3828 22.59L53.1878 26.204H51.3288L52.0308 17.208H54.4618L55.9438 23.409L57.3348 17.208H59.7918L60.4808 26.204Z" fill="#001A3A"/>
<path d="M71.6751 26.204H69.8031L69.6081 22.551C69.5475 21.459 69.5171 20.5317 69.5171 19.769C69.5171 19.3617 69.5215 19.067 69.5301 18.885L68.0091 25.242H66.2021L64.5772 18.872C64.6118 19.4007 64.6291 19.9943 64.6291 20.653C64.6291 21.355 64.6118 22.0007 64.5772 22.59L64.3822 26.204H62.5231L63.2251 17.208H65.6561L67.1381 23.409L68.5291 17.208H70.9861L71.6751 26.204Z" fill="#001A3A"/>
<path d="M79.5155 17.208L79.3075 18.599H76.0575V20.939H78.8915V22.317H76.0575V24.8H79.5415V26.204H74.1465V17.208H79.5155Z" fill="#001A3A"/>
<path d="M84.9006 22.681H83.9256V26.204H82.0146V17.208H84.8226C86.0273 17.208 86.933 17.4333 87.5396 17.884C88.1463 18.326 88.4496 18.9977 88.4496 19.899C88.4496 20.4883 88.3023 20.9737 88.0076 21.355C87.7216 21.7363 87.2753 22.0613 86.6686 22.33L88.9956 26.204H86.8246L84.9006 22.681ZM83.9256 21.329H84.9266C85.438 21.329 85.8236 21.2163 86.0836 20.991C86.3436 20.757 86.4736 20.393 86.4736 19.899C86.4736 19.4397 86.335 19.106 86.0576 18.898C85.789 18.6813 85.3643 18.573 84.7836 18.573H83.9256V21.329Z" fill="#001A3A"/>
<path d="M97.9168 17C98.5668 17 99.1302 17.0953 99.6068 17.286C100.092 17.468 100.538 17.7497 100.946 18.131L100.036 19.184C99.7152 18.924 99.3945 18.7333 99.0738 18.612C98.7532 18.4907 98.4108 18.43 98.0468 18.43C97.6482 18.43 97.3275 18.5167 97.0848 18.69C96.8508 18.8547 96.7338 19.093 96.7338 19.405C96.7338 19.6217 96.7815 19.7993 96.8768 19.938C96.9808 20.0767 97.1585 20.2067 97.4098 20.328C97.6612 20.4493 98.0382 20.588 98.5408 20.744C99.4335 21.03 100.101 21.3853 100.543 21.81C100.985 22.226 101.206 22.824 101.206 23.604C101.206 24.1587 101.067 24.6483 100.79 25.073C100.512 25.489 100.109 25.8183 99.5808 26.061C99.0522 26.295 98.4325 26.412 97.7218 26.412C97.0112 26.412 96.3785 26.2993 95.8238 26.074C95.2692 25.8487 94.7925 25.541 94.3938 25.151L95.3688 24.072C95.7155 24.3667 96.0752 24.592 96.4478 24.748C96.8205 24.8953 97.2278 24.969 97.6698 24.969C98.1378 24.969 98.5105 24.8607 98.7878 24.644C99.0738 24.4273 99.2168 24.124 99.2168 23.734C99.2168 23.4913 99.1648 23.292 99.0608 23.136C98.9655 22.9713 98.7965 22.824 98.5538 22.694C98.3112 22.564 97.9602 22.4297 97.5008 22.291C96.5215 21.9877 95.8195 21.6237 95.3948 21.199C94.9788 20.7743 94.7708 20.2197 94.7708 19.535C94.7708 19.0323 94.9052 18.5903 95.1738 18.209C95.4425 17.819 95.8152 17.52 96.2918 17.312C96.7685 17.104 97.3102 17 97.9168 17Z" fill="#001A3A"/>
<path d="M110.31 26.204H107.853L104.993 19.067C105.071 19.6823 105.132 20.263 105.175 20.809C105.227 21.3463 105.253 21.979 105.253 22.707V26.204H103.524V17.208H105.929L108.841 24.358C108.668 23.1967 108.581 22.1307 108.581 21.16V17.208H110.31V26.204Z" fill="#001A3A"/>
<path d="M117.966 26.204L117.459 24.189H114.638L114.131 26.204H112.142L114.911 17.208H117.238L119.994 26.204H117.966ZM115.002 22.772H117.095L116.042 18.625L115.002 22.772Z" fill="#001A3A"/>
<path d="M124.711 22.681H123.736V26.204H121.825V17.208H124.633C125.838 17.208 126.744 17.4333 127.35 17.884C127.957 18.326 128.26 18.9977 128.26 19.899C128.26 20.4883 128.113 20.9737 127.818 21.355C127.532 21.7363 127.086 22.0613 126.479 22.33L128.806 26.204H126.635L124.711 22.681ZM123.736 21.329H124.737C125.249 21.329 125.634 21.2163 125.894 20.991C126.154 20.757 126.284 20.393 126.284 19.899C126.284 19.4397 126.146 19.106 125.868 18.898C125.6 18.6813 125.175 18.573 124.594 18.573H123.736V21.329Z" fill="#001A3A"/>
<path d="M136.524 17.208L136.316 18.703H134.041V26.204H132.13V18.703H129.738V17.208H136.524Z" fill="#001A3A"/>
<path d="M25.6937 19.5804C25.7058 18.7458 25.956 17.9274 26.4208 17.2014C26.8856 16.4755 27.5501 15.8655 28.3523 15.4284C27.8427 14.7832 27.1703 14.2523 26.3887 13.8777C25.6071 13.5032 24.7377 13.2953 23.8496 13.2707C21.9552 13.0944 20.1186 14.2755 19.1532 14.2755C18.1692 14.2755 16.6828 13.2882 15.0823 13.3174C14.047 13.347 13.038 13.6139 12.1537 14.0919C11.2693 14.57 10.5398 15.2429 10.0361 16.0452C7.85423 19.3937 9.4817 24.3147 11.5717 27.0213C12.6174 28.3467 13.8395 29.8271 15.4386 29.7746C17.0035 29.7171 17.5879 28.8901 19.4768 28.8901C21.3481 28.8901 21.8964 29.7746 23.528 29.7412C25.2071 29.7171 26.2651 28.41 27.2741 27.0721C28.0254 26.1277 28.6035 25.084 28.9871 23.9796C28.0115 23.6139 27.1791 23.0017 26.5934 22.2194C26.0078 21.4371 25.6948 20.5193 25.6937 19.5804V19.5804Z" fill="#001A3A"/>
<path d="M22.6118 11.4906C23.5274 10.5164 23.9784 9.26423 23.8692 8C22.4705 8.13022 21.1784 8.72278 20.2505 9.65961C19.7969 10.1173 19.4494 10.6497 19.228 11.2265C19.0066 11.8033 18.9156 12.413 18.9603 13.021C19.6599 13.0274 20.352 12.893 20.9845 12.6279C21.617 12.3628 22.1734 11.9739 22.6118 11.4906Z" fill="#001A3A"/>
</svg>
